<?xml version="1.0" encoding="UTF-8"?>
<svg id="Discord.gg-_x40_marazm" xmlns="http://www.w3.org/2000/svg" version="1.1" viewBox="0 0 847.2 784.8">
  <!-- Generator: Adobe Illustrator 30.1.0, SVG Export Plug-In . SVG Version: 2.1.1 Build 136)  -->
  <defs>
    <style>
      .st0 {
        stroke: #000;
        stroke-width: 1.2px;
      }

      .st0, .st1 {
        fill: #363636;
      }

      .st2 {
        fill: #987f00;
      }
    </style>
  </defs>
  <g id="Third_Floor">
    <g id="Floor-3">
      <path class="st1" d="M786,151.8h-5.4v30.6h-72v-30.6h-5.4v358.2h5.4V205.8h72v375h5.4V151.8ZM700.2,568.8h-1.2V151.8h-5.4v151.2h-73.2v-79.2h-5.4v19.2l-10.2-.6v-42h6v-27.6h-1.2v-25.2h-19.2v39h-21.6v-1.2h19.2v-29.4h-36.6v29.4h10.8v1.2h-24v-1.2h10.8v-29.4h-27.6l1.2,29.4h10.8v1.2h-24.6v-1.2h12l-.6-29.4h-66v29.4h21v1.2h-22.8v-38.4h-19.2v41.4h-1.8V23.4H143.4v86.4h12v-1.8h263.4v96h-168v5.4h60.6v88.2h-60.6v5.4h324.6v3.6H250.8v99h336.6v9H250.8v99h287.4v3.6H250.8v5.4h90.6v88.2h-90.6v5.4h287.4v3h71.4v-114.6h-4.8v-98.4h3v-1.8l1.2.6,2.4-3.6,3,1.8.6-1.2v178.8h85.2v-12h0ZM693.6,325.8v243h-73.2v-243h73.2ZM614.4,249v149.4l-1.8-1.2-1.2,1.8-3.6-2.4-1.2,1.8.6.6-1.2,2.4h-1.8v-153l10.2.6h0ZM587.4,200.4v3.6h-156v-3.6h156ZM587.4,209.4v82.2h-1.8v-10.8h-10.2v17.4h-237v-88.8h249ZM587.4,298.8v7.8h-1.8v-7.8h1.8ZM587.4,312.6v88.2h-58.2v-88.2h58.2ZM587.4,420.6v84h-49.2v4.8h-123v-88.8h172.2ZM538.2,523.2v88.2h-169.8v-88.2h169.8ZM516.6,316.2v80.4h-3v-80.4h3ZM504.6,185.4v1.2h-24.6v-1.2h24.6ZM500.4,312.6v88.2h-237.6v-88.2h237.6ZM418.8,82.8v19.8h-18v-1.8h-12.6v1.8h-134.4V28.8h153v54h12ZM387.6,420.6v88.2h-124.2v-88.2h.6v1.2h11.4v-1.2h112.2ZM230.4,28.8v73.8h-75V28.8h75Z"/>
    </g>
    <g id="Wall-3">
      <path class="st0" d="M586.8,201h3"/>
      <path class="st0" d="M600.6,201h4.2"/>
      <path class="st0" d="M415.2,66.6v5.4h16.2"/>
      <path class="st0" d="M415.2,57v-30h16.2"/>
      <path class="st0" d="M484.2,185.4v-13.2"/>
    </g>
    <g id="Stairs-3">
      <g id="Stairs-3-down">
        <path id="stair-127" class="st2" d="M609,181.8v-37.8h-19.2v38.4h19.2v-.6ZM600,172.8h-1.2v-19.8h1.2v19.8Z"/>
        <path id="stair-128" class="st2" d="M452.4,181.8v-37.8h-19.2v38.4h19.2v-.6ZM442.8,172.8h-1.2v-19.8h1.2v19.8Z"/>
        <path id="stair-69" class="st2" d="M179.4,109.2h-36.6v16.2h36.6v-16.2ZM172.8,117v.6h-22.8v-.6h22.8Z"/>
        <path id="stair-96" class="st2" d="M430.8,85.2h-34.8v16.2h34.8v-16.2ZM423.6,93v.6h-21.6v-.6h21.6Z"/>
        <path id="stair-97" class="st2" d="M286.8,312.6h-36v16.2h36v-16.2ZM279.6,320.4v.6h-22.2v-.6h22.2Z"/>
        <path id="stair-100" class="st2" d="M286.8,421.8h-36v16.2h36v-16.2ZM279.6,429.6v.6h-22.2v-.6h22.2Z"/>
        <path id="stair-101" class="st2" d="M716.4,580.2v-34.8h-16.2v34.8h16.2ZM708.6,573.6h-.6v-21.6h.6v21.6Z"/>
        <path id="stair-129" class="st2" d="M586.2,280.2h-36.6v16.2h36.6v-16.2ZM579,288v.6h-22.2v-.6h22.2Z"/>
      </g>
    </g>
  </g>
</svg>