<?xml version="1.0" encoding="UTF-8"?>
<svg id="Discord.gg-_x40_marazm" xmlns="http://www.w3.org/2000/svg" version="1.1" viewBox="0 0 878.8 767.39">
  <!-- Generator: Adobe Illustrator 30.1.0, SVG Export Plug-In . SVG Version: 2.1.1 Build 136)  -->
  <defs>
    <style>
      .st0 {
        fill: none;
      }

      .st1 {
        fill: #666;
      }
    </style>
  </defs>
  <rect class="st0" width="878.8" height="767.39"/>
  <path class="st1" d="M504.59,461.31l.78-2.99,14.1,3.64-.84,3.25-1.36-.39-.19.58.52.13-1.43,5.46.33.13-4.09,15.34-3.77-.98,1.24-4.23-.52-.13-1.17,4.23-5.33-1.43-.65,2.21,16.58,4.49c-.19.78-.39,1.62-.65,2.41h.26l9.82-36.53,14.5,3.9-.26,1.04.84.26.26-1.04,1.5.39,13.39-49.79,32.17,8.78-13.33,49.73,1.43.33-.26,1.1.98.26.26-1.04,15.47,4.09-12.48,47.06.58.13.65-2.41,33.22,8.97.65-2.41-9.23-2.47,5.59-21.12,14.1,3.83-2.73,10.59.52.13,5-19.43h.26l1.95-7.08-7.86-2.15.58-2.08,11.9,3.12-2.47,9.36h.26l-8.19,29.38-4.16-1.1,2.34-8.71-.58-.13-2.47,9.49-2.08-.45-.52,1.89,16.77,4.49-1.69,6.31-52.78-14.17.65-2.47-.72-.19-32.43,121.23-66.89-17.88,35.03-131.75h-.33l-.65,2.41-21.51-5.78,1.62-6.17,1.89.45.52-2.21-1.82-.45,2.73-10.2,10.27,2.73-1.17,4.75.52.13,2.53-10.01.39.13,1.5-5.59.33.13.19-.52-10.47-2.92h.13Z"/>
  <path class="st1" d="M411.12,91.13v5.46h-.13v-.97h-19.44v-8.9h-3.31v7.8h-6.31v1.3h-.13v-1.37h-5.14v-.59l-3.31-4.36h-.26l-.45-.26-.65-.33-.59-.19h-.13v-3.18h-6.31v3.44l-1.23.59-.91.65-.72.59-.72.78-.45.65-.59.97-.45,1.11-.26.85-.13.91v.52l-.06,1.76.19,1.17.32,1.11.52,1.11.52.85.72.97.19.19-1.56,2.79,1.04.59-.52.97-.98-.59-9.03,15.47-.26-.13,1.62-2.86-2.73-1.56.19-.32,2.73,1.62,2.21-3.97-8.52-5.14-2.27,4.03,5.07,2.99-.13.26-7.86-4.42-3.77,6.76,11.24,6.5,1.56-2.66.26.13-6.69,11.83,1.95,1.17-.39.65-2.6-1.49-6.76,11.89-.65-.39.26-.39-1.82-1.04,3.77-6.5-5.4-3.05,1.95-3.12-11.9-7.09-3.97,6.95.39.2-.13.26-.32-.2-.59.97-2.34-1.36,1.69-2.93-13.32-7.74-2.8,5.14-.39-.2.45-.78-10.27-5.85-.52.91-.26-.2.45-.84-.59-.32,2.86-5.26-7.67-4.49.52-.97-3.31-1.82-.39.72-5.4-3.18-2.4,4.42,5.27,3.32-.45.91.78.45.59-.97,2.15,1.24.39-.59,5.07,3.12-2.47,4.42,3.44,2.01.52-.91.32.2-.52,1.04,10.14,5.91.65-1.11.32.2-.65,1.17,13.19,7.67,1.43-2.41,2.34,1.3-.59.97,4.35,2.28-.85,1.36.32.26-.39.72,14.3,8.38c.26-.45.52-.91.78-1.36.19.13.39.2.59.32-.26.39-.45.84-.72,1.24l2.66,1.62-.39.65-1.3-.72-12.87,22.62,1.1.65-.45.78-2.53-1.49-8.45,14.89,50.9,28.27.78-1.36,1.89,1.23-2.66,5.14,1.1.59-.13.26-1.1-.52-1.95,3.9-.13.19-.72.39h-.32l.59-2.34-5.91-1.69-4.35,16.57.52.13v.26l-2.73-.72-4.35,16.19,1.04.26v.13h-.19l-1.23,4.42,1.17.32-.26.98-18.72-5.01,1.43-5.01-2.53-.72.26-.91.98.26.78-2.8-.91-.26,1.69-5.72-.78-.19.19-.65.59.19,2.02-7.22-.98-.19.26-.78,2.02.59-.19.78-.91-.26-2.08,7.41,9.23,2.47,2.02-7.48-6.95-1.82.26-.78,1.69.45,1.23-4.29-11.83-3.12.19-.72,14.17,3.77,1.69-6.44-16.64-4.48-1.69,6.44.91.26-.19.78-10.53-2.8-.32,1.3h-.45l.32-1.43-4.23-1.17-1.17,4.23,4.23,1.1.39-1.36.39.13-.32,1.36,2.15.52-.19.78-15.53-4.1.26-.85,2.15.65.45-1.43.59.19-.39,1.43,4.1.98,1.17-4.23-4.1-1.17-.39,1.49-.52-.13.39-1.43-23.79-6.44-.39,1.49h-.39l.39-1.56-4.74-1.23-1.23,4.23,4.81,1.3.39-1.36.39.13-.32,1.36,1.62.39-.26.85,1.49.39.26-.85,1.95.52-.19.78-.98-.26-1.95,7.28.65.19-.13.45-1.3-.39-1.49,5.98-1.17-.32-.78,2.93.59.19-.19.85-.52-.13-.85,4.03-1.04.78-12.48-3.44-1.04,3.25,13.13,3.57.39.65-.98,4.29,4.61,1.23,1.04-3.84,1.23-.65,16.97,4.55.52,1.56-.85,3.77.59.13-.32,1.43-2.21-.59-1.1,4.55-1.43-.39-1.23,4.48-1.04-.26-.91,3.25.45.13-.26,1.04-.91-.26.13-.39-1.04-.32-.39.19-27.36-7.28-.26.98-.78-.13.19-.65-4.03-1.04-.78-1.23,1.89-7.09-3.31-.91-1.62,6.56-5.07-1.43-.59,2.34h-.78l.13-.85-2.93-.78-.19.72c-1.89-.52-3.77-1.04-5.65-1.62,0,.19-.13.39-.19.59-.13,0-.19,0-.32-.06,0-.06,0-.13.06-.19-2.66-.78-5.27-1.56-7.93-2.34v.26s-.26,0-.32-.06c0-.06,0-.13.06-.26,0-.06,0-.13.06-.26l.32-1.04s.19,0,.26.06c-.06.32-.19.72-.26,1.04,2.66.72,5.27,1.49,7.93,2.21.85-3.06,1.62-6.11,2.47-9.16l-7.48-2.08-1.82,6.82-.72-.19.39-1.62-1.36-.39.13-.45,1.36.39,1.3-4.74-4.23-1.17-1.3,4.74,1.36.39v.45l-1.49-.32-3.12,11.77-.78-.19,3.84-14.3-6.37-1.76-4.55,16.7,6.44,1.69.19-.85.85.19-2.08,7.67-.78-.26,1.76-6.31-6.44-1.76-3.77,13.91,6.57,1.69,1.49-6.05.78.19-.32,1.43,1.36.39v.39l-1.49-.39-1.1,4.35,4.23,1.1,1.1-4.29-1.36-.32v-.45l1.49.32.45-2.15.85.19-4.1,15.34-.78-.19.65-2.08-4.16-1.36-.45,1.56-.85-.26,1.69-5.85-6.43-1.82-3.7,13.78,6.43,1.69,1.69-6.37.78.19-2.08,7.6-.72-.19.2-.91-6.57-1.76-4.22,16.57,6.43,1.69,3.77-14.17.78.19-3.32,11.83,1.43.32v.32l-1.49-.32-1.17,4.74,4.29,1.17,1.23-4.68-1.36-.39.13-.39,1.43.32.45-1.82.65.19-1.82,6.95,7.41,2.02,2.4-9.1-7.54-1.95-.26.78-.65-.13.52-1.95.65.13-.26.91,7.35,1.95.13-.65.32.13-.26,1.23,4.55,1.1-.32,1.17,10.85,2.73-.13.52-4.55-1.17-1.36,5.01,1.23.39-2.08,7.09,2.15.65-.19.78-2.86-.72-5.72,21.52.91.26-.13.52h-.39l-2.21,7.8,1.43.39-.19.59-1.56-.45-2.47,8.32-3.38-.85.13-.39,2.73.72,2.15-8.12-10.53-2.8-2.14,8.06,6.05,1.62v.39l-2.14-.52-.39,1.3-.39-.13.26-1.3-3.51-.98-1.17,4.42,3.32.98.45-1.49.45.13-.39,1.49,7.47,2.08-1.04,4.29,4.42,1.17,1.1-4.1,31.65,8.45-.19.78-10.14-2.86-.52,1.82-.91-.26.52-1.82c-5.72-1.62-11.44-3.25-17.16-4.88-.65,2.6-1.36,5.14-2.02,7.73l12.28,3.44-.26.98-20.35-5.33-.98,3.97-.72-.13.85-4.29-13.32-3.31-3.32,13.59,13.2,3.31,1.43-5.59.78.19-.13.45,5.59,1.3-.13.52-5.46-1.49-1.11,4.68,8.06,2.15,1.23-4.55-1.17-.32.13-.45,1.49.45-1.23,4.88,47.39,12.74,1.23-4.94,1.82.39.52-2.02,7.35,1.95-.52,2.34-3.84-.98.52-2.15-2.93-.78-1.1,4.68,16.06,4.68,2.27-7.6-3.12-.98,3.31-12.09.65.13-.59,2.34,11.24,3.06,4.42-16.06-11.44-2.99-3.25,12.22-.65-.13.85-3.57-.78-.26.19-.72.91.19,2.08-7.93-12.68-3.38-.13.59-.72-.13-1.76,6.76.78.26v.26l9.62,2.8-.13.59-11.24-3.25-.39,1.56-.72-.19.32-1.3-10.98-3.12,2.34-8.32-1.43-.32.13-.39,1.43.32,1.76-7.41,1.3.32.85-2.93-.72-.19.19-.91h.45l3.51-13.13,19.63,5.27v.26l19.63,5.2-.26,1.1-13.39-3.57-1.23,4.29,17.68,4.74,1.1-4.29-2.47-.65.32-1.1,6.31,1.62.32-1.23.85.19-.32,1.3,1.69.45.59,1.17-.91,3.51,1.62.45-.19.91-1.36-.39-1.17,4.29-2.02-.52-1.76,6.11,33.54,8.97-1.95,7.15,1.04.32-.32,1.1h-.32l-.59,2.21h-.32l.52-2.34-11.9-3.19-2.08,7.73,7.15,1.95-.13.59-7.15-1.89-1.04,3.7,3.77,1.04-.13.59-3.7-.98-2.08,7.67,10.34,2.8,2.08-7.6-5.2-1.43.19-.65,13.19,3.51-.19.65-2.21-.59-.13.45h-.39l.13-.59-5.07-1.36-2.02,7.67,5.07,1.36,1.56-5.72h.32l-.45,1.82,2.15.65-.59,2.27-2.15-.59-.45,1.62,4.35,1.17,2.15-8.26,3.12.72,1.1-3.7-4.16-1.17.19-.59,4.35,1.17-1.17,4.35,2.66.78-.13.45h-.32l-1.43,5.65h-.32l1.43-5.52-5.33-1.49-1.95,7.54,5.2,1.43.13-.65h.32l-.13.72,7.86,2.14,1.95-7.73-5.59-1.49.13-.59,5.98,1.62-2.15,8.32,4.23,1.1.45-1.62-2.15-.58.65-2.34,2.21.59.39-1.3.52.13-1.3,5.2,10.14,2.6,2.02-7.6-4.94-1.36.19-.65.52.13,1.1-4.16.78.19-.13.59h-.45l-.91,3.38,3.97,1.17.98-3.51-2.34-.65.19-.72,2.27.59,2.08-7.6-33.28-9.03-.65,2.34h-.39l.65-2.4h-.19l.32-.98.91.19,3.7-13.65-4.94-1.3v.19l-1.17-.19v-.39l-23.6-6.24v.19l-1.1-.26.26-1.17h.32l.91-3.31-1.49-.39.26-.72,1.49.39,1.17-4.42,4.74,1.17,1.43-5.52-4.81-1.23,7.28-26.65-2.4-.72v-.32l2.47.72,2.93-10.73-5.07-1.36v-.32l9.03,2.47.32-1.3,1.04.26-.32,1.36,5.59,1.49.72-2.8.52.19-.52,2.02,2.02.52v.39l-2.08-.52-1.3,4.81,4.74,1.23,1.23-4.61-1.23-.39.13-.39,7.73,2.02-.13.45-6.18-1.56-1.49,5.85h-.32l.26-.98-4.81-1.3-1.36,5.07,4.68,1.23.72-2.4h.32l-.65,2.47,18.91,5.2,2.66-10.01-11.18-3.06.13-.45,1.95.52.19-.39h.32l-.06.59,1.89.52.59-2.21,5.33,1.43-.52,2.08,1.62.39,1.1-4.29-9.23-2.53.32-1.49h.26l-.26,1.3,8.84,2.47,1.43-5.2-1.56-.45-1.04,3.64h-.26l.98-3.64-6.89-1.95-.72,2.27h-.32l.72-2.34-5.46-1.36-.45,1.62h-.32l.26-1.04-4.29-1.17-1.1,3.97,4.35,1.1.32-1.17h.32l-.39,1.62-9.49-2.4-.19.78-.52-.13.39-1.43-5.65-1.56-.32,1.3-1.04-.19.32-1.36-3.77-.98.19-.78-.72-.13,2.4-9.56-.52-.13,8.32-31.07-1.1-.32.13-.45,1.43.32,2.53-9.56-8.39-2.21v-.19l6.18,1.56,4.29-15.93-2.21-.52.13-.39,1.76.39,3.38-12.74h.39l-.06.45,4.16,1.43,3.06-5.52-1.69-.98.13-.26,1.43.78,5.01-8.77-5.85-3.38,5.33-9.23-46.8-26.59.45-.78,1.17.65,13-22.43-1.23-.78.45-.65,42.38,24.38,1.43-2.66-.32-.13.59-1.11,6.56,3.84,6.5-11.31-48.75-27.82.32-.59,2.02,1.11,10.66-18.2,2.02,1.04,1.04-1.82.32.2-.52,1.11,3.44,1.82-.32.59,3.7,2.14-.98,1.82,4.29,2.47,1.04-1.76,3.57,1.89,3.97-6.76-11.64-6.76-1.49,2.8-3.57-2.01-.72,1.43-.32-.2.98-1.95-1.89-.91,3.12-5.78-1.17-.65.45-.84,1.17.59,1.82-2.93h2.47l.98-.26.91-.32.91-.39.52-.32v-.39l.39-.39.65-.71.72-.65.65-.71.39-.39.19-.19.19-.71h.19v-.78l.19-.19h5.01v-1.11h.13v1.23h9.36v-.97h19.63v-.85h.13v2.08h4.55v-5.39h3.84v-4.1h-8.39l-.26.13ZM324.15,132.6l-2.15-1.24-2.21,3.9-.59-.32.19-.39.39.2,2.8-4.74,2.27,1.36s-.72,1.24-.71,1.23ZM368.48,410.35l5.91,1.62-.13.59-3.19-.91-.13.45-.59-.13.13-.45-2.15-.65.19-.59-.06.06ZM349.83,396.18l.39.13-1.1,4.23,1.62.45-.19.59-3.25-.91.19-.65,1.17.32.65-2.34-3.7-.98-.65,2.34,1.04.26-.13.72-4.42-1.17.13-.39,2.99.85,1.1-4.42h.39l-.32,1.43,3.64,1.04.45-1.43v-.07ZM276.77,244.79l-.65-.98,1.04-4.29-.85-.26.19-.78.91.19.78-2.99-.78-.19,1.56-5.85-.72-.19.13-.52.65.13,1.76-7.09h-.26l.26-.98.39.13-1.62,6.18,2.15.59,1.76-6.18,6.95,1.95-.19.72-6.24-1.62-2.08,7.22,8.9,2.4,2.02-7.22-1.17-.32.19-.72,2.4.65-.19.78-.91-.26-1.89,7.22,20.22,5.46,1.95-7.28-.85-.19.19-.91,10.92,2.99-1.62,6.18,2.15.59,1.62-6.24.45.13-.19.65h-.32l-1.89,7.22.39.13-.13.59-1.1-.32-1.56,5.85-1.1-.32-.65,2.8.78.26-.26.98-.78-.13-1.1,4.03-1.1.65h-.19l-16.19-4.35-.78-1.17-4.61-1.3-1.69.52-17.03-4.48h0ZM312.19,309.2s-.13.52-.19.85c-.65-.13-1.3-.32-1.95-.45l-.39,1.56h-.32l.39-1.76-13-3.51-.65,2.21h-.32l.59-2.34-19.56-5.27c-1.17,4.23-2.27,8.52-3.44,12.74l6.44,1.76-1.1,4.23h-.32l.91-3.97-6.11-1.49-2.08,7.8,6.24,1.69.65-2.27h.19l-.65,2.34.78.19-.13.45-7.28-1.95-.78,2.86-.59-.13c2.27-8.39,4.48-16.7,6.76-25.09l35.81,9.56h.13ZM291.52,296.07l.19-.98,1.1.26-.19.98-1.1-.26ZM304.72,299.59l.26-.98,1.1.26-.26.91-1.1-.26v.07ZM309.14,312.78l-1.69,6.37-.39-.13,1.69-6.37.39.13ZM272.41,292.82c-.52-.13-1.1-.26-1.62-.45l1.04-4.16c.59.13,1.1.26,1.69.39-.39,1.36-.72,2.8-1.1,4.16v.06ZM278.14,292.5l.26-1.04,1.04.32-.26.98-1.1-.26h.06ZM248.1,268.58l1.43-.78,3.9,1.04.26-.98.85.19-.26.98,28.8,7.86v-.13l.98.26-.26.91s-.39-.06-.59-.13c-.59,2.15-1.17,4.29-1.76,6.44l-6.24-1.69-.72,2.73-1.56-.45.72-2.8-14.56-3.9-7.73,28.93,4.88,1.3-.13.26-9.88-2.66-1.17,4.16,7.15,1.95-.32,1.23-4.55-1.23-.26.85-4.74-1.3v-.59l-4.42-1.17-.52-1.23,4.61-17.35,1.23-.39,3.64.91,1.36-4.88-3.51-1.04-.98-1.36,4.35-16.25v.32ZM265.14,288.34c-.06.32-.13.65-.19,1.04l-.98-.19.19-1.04s.65.13.98.19ZM263.19,295.94l-.19.98-.98-.26.26-.98.98.26h-.07ZM232.9,308.81l-4.16-.98-.19.78-.72-.13.19-.85-3.12-.91-.26.78-13.52-3.57-.13.45-.72-.19.13-.59,6.5,1.76.52-2.02-6.31-1.69,1.76-7.15.91.19.32-1.3-.98-.19.72-2.86.85.19-.26,1.17,7.35,1.95,5.4-20.28-7.28-1.95-.32,1.1-.85-.26.72-2.6.85.26-.32,1.17,7.28,2.08,2.4-9.1-7.22-1.89-1.76,6.31-.91-.26,2.02-6.95,6.5,1.69.52-2.08-6.44-1.82.13-.52h.13v.32l7.8,2.15.13-.52.39.13-.32,1.1,5.85,1.56-.26.91,3.06.85.26-.91.65.13-.26.98,3.97,1.04h.13l.72,1.3-4.35,16.38-1.43.78-1.23,4.81.72,1.3-4.55,17.23-1.17.65.19.07ZM230.16,327.08l4.48,1.17,3.06-12.09-3.12-.85.19-.59,6.24,1.62.13-.39,4.68,1.23-.32.98,9.62,2.6,1.95-7.28h.45l.06-.26h-.32l1.04-3.9-1.1-.26v-.32l1.17.26,1.62-5.78,1.3.32-3.9,14.49h.26l-3.31,12.55-.32-.13-.98,3.57-23.2-6.18.26-.91.06.13ZM261.43,383.11l-.13.39-1.3-.39-2.21,8.12,10.47,2.86,2.27-8.12-7.54-2.08.13-.39,7.54,2.02.45-1.69.72.19-.39,1.3,2.34.65-.13.45,7.35,2.08-.19.78-.78-.13v-.39l-8.12-2.27-2.99,11.11,8.19,2.21,2.34-8.58.91.26c-.98,3.25-1.95,6.44-2.86,9.69-3.19-.85-6.37-1.76-9.49-2.6l.98-3.38-34.12-9.16.26-.98,1.56.45.52-1.95s.59.19.91.26l-.45,1.95,15.08,3.97,1.95-7.35-1.69-.45.32-.98,2.21.59-1.23,4.23,4.35,1.17,1.1-4.29,1.76.52-.07-.06ZM261.23,356.78l1.89.52-.26.78-1.04-.32-2.73,10.53,1.23.39-.13.32-1.23-.39-2.21,8.39-9.36-2.47v-.39l8.97,2.34,1.89-7.73-15.15-4.1-1.95,7.73,4.61,1.23-.13.39-26-6.82,2.4-8.65-1.76-.45.19-.59,1.23.32,1.43-5.46,1.43.45.65-2.53-1.69-.45.13-.52.52.13,4.1-15.53,36.27,9.75-3.44,13,.13.13ZM308.43,348.14l-16.57-4.42-.26,1.17-32.37-8.71,1.1-3.77-.52-.13,3.31-12.41h.26l6.5-24.05,1.56.45-7.99,29.97,5.27,1.49.32-1.36h.19l-.32,1.43,20.09,5.4,1.56-5.85-10.66-2.86.13-.39,10.6,2.86,4.61-17.16.32.13-2.99,11.05,12.94,3.51.98-3.64.39.13-2.73,10.14-.45-.13,1.69-6.11-12.94-3.44-3.25,11.9,13,3.44,1.1-4.1.39.13-1.1,4.1,1.56.45-.26,1.1-1.95-.45-2.08,7.67,8.52,2.4v.19l.06-.13ZM323.05,352.3l-1.23.78-1.76-.45-.13.65-.72-.19v-.39l-6.18-1.76.39-1.43-3.38-.85v-.32l2.27.59,2.08-7.67-8.58-2.4.32-1.1,1.89.45c.19-.72.39-1.43.59-2.21.13,0,.26.06.32.13-.19.72-.39,1.43-.59,2.21l5.65,1.56c.39-1.69.85-3.38,1.23-5.07-1.89-.52-3.7-.98-5.59-1.49-.13.45-.26.91-.32,1.36-.13,0-.26-.06-.39-.13,0,0,.85-3.31.91-3.31,0-.19,1.89-7.15,1.95-7.35.13,0,.26.06.32.13l-2.4,9.1,5.52,1.43,2.99-11.18-5.59-1.43v.39l-.45-.06.78-2.99.45.13-.45,1.89,5.33,1.43,2.66-10.14-5.33-1.43-1.69,6.44-.45-.13,1.76-6.37-1.62-.45.19-.78,8.52,2.34.52-2.02,1.36.32-.39,1.82.85.19-.26,1.04h.26l-4.81,17.81,2.86.65v.32l-2.6-.65-3.38,12.74,4.88,1.36,3.51-12.87-.98-.26v-.26l.72.19.45-1.62,3.06.78-5.46,20.6.13-.06ZM317.98,303.16l.26-.98,1.1.26-.26,1.04-1.1-.32ZM323.77,306.73l1.04-3.64,1.49.39-1.04,3.7-1.49-.45ZM332.99,315.64h-.26l-2.8,10.66,2.6.65-.13.39-5.33-1.43,2.66-10.98,1.36.32.26-.98,1.1.32-.19.59.72.19v.32-.06ZM334.36,307.65l-1.17-.32.26-1.1,1.17.32-.26,1.04v.06ZM348.14,268.26l-.13.52-3.06-.78-8.52,31.72-1.1-.26.13-.65-6.5-1.76-.19.59-.98-.26-.32,1.17-1.3-.32.45-1.95-13.78-3.64.39-1.76-3.31-.91-.59,1.76-21.06-5.65,1.76-6.31-.65-.19.26-.98.72.13,1.36-5.33-.72-.19.32-1.04.65.13.85-3.12,4.1,1.04,2.6-9.1-2.66-.72.39-1.43.52.13,1.04-3.97,1.23-.91,16.38,4.42.59,1.95-.78,3.06,6.56,1.62,1.3-4.61,18.65,5.01-.26.91,5.65,1.49v.19ZM369.98,100.75h-4.35v-5.07h4.35v5.07Z"/>
</svg>