<?xml version="1.0" encoding="UTF-8"?>
<svg id="svg1" xmlns="http://www.w3.org/2000/svg" version="1.1" viewBox="0 0 885.47 812.54">
  <!-- Generator: Adobe Illustrator 30.1.0, SVG Export Plug-In . SVG Version: 2.1.1 Build 136)  -->
  <defs>
    <style>
      .st0 {
        fill: #666;
      }
    </style>
  </defs>
  <g id="Bunkers">
    <path id="path1-4" class="st0" d="M259.31,452.97l-60.23-16.91,3.35-10.78-11.56-3.34,7.49-25.34,12.5,3.37,2.33-9.31-.5-.08,1.93-7.29-1.55-.45,2.32-8.5,1.69.33,1.58-6.18,3.03.94.37-1-2.49-.74,2.07-7.38-1.16-.36,1.47-5.22-4.91-1.35.39-1.3-6.12-1.68-2.75,10.97-21.74-5.89,19.12-72.7,22.35,6.01-2.6,9.58,5.91,1.64.23-.85,8.35,2.42.92-.47,1.77-7.26,3.57.89-2.03,7.27.46.95,35.32,9.31,1.17-4.2,1.35.33,1.09-4.06,1.21.28,1.41-5.1,2.18.56.4-1.21-.78-.26,1.3-4.2-.65-1.36-17.11-4.74-1.6.68-1.38,4.46-5.07-1.42,1.07-4.16-.96-1.84-12.06-3.31.91-3.09,12.03,3.39,1.69-1.03,2.04-7.8,1.17.33,1.4-5.4-11.55-3.22,5.67-21.25,72.98,19.48-5.65,21.68-9.11-2.49-1.73,5.53.85.23-2.27,7.84.9,1.61,15.3,3.77,6.23-21.67,2.55.69,4.71-17.13,5.84,1.91,1.32.95,5.05-8.3-2.47-1.25-1.29,2.06-51.37-30.76,9.1-15.49,1.44.89,14.23-23.54-17.59-10.12,1.36-2.49-4.56-2.84,6.42-10.86,4.35,2.52-1.05,1.89-2.18-1.26-3.18,5.16,2.49,1.28,2.06-3.55,13.44,7.9-3.7,5.88,2.15,1.38,13.38-20.24-12.02-7.25,4.19-6.95,3.84,2.39,2.69-4.39,8.15,4.86,7.69-12.48c-5.2-5.72-1.71-12.8,3.1-14.54l.03-3.62,6.04.11-.04,3.28c3.72,1.27,6.18,4.58,6.18,8.7,0,4.66-3.55,9.32-10.28,8.65l-5.96,9.68,6.32,3.89,1.55-2.4,11.68,6.95-4.13,6.82-3.53-2.03-1.34,1.96-3.08-2.17,1.2-1.82-8.51-5.26-.58.87-2.58-1.52-10.92,18.31,48.06,28.59-6.96,11.68-6.82-4.14-2.36,4.02-41.86-24.9-14.19,23.51,46.98,27.9-5.56,8.95,6.27,3.79-9.57,15.69-3.95-2.4-3.77,13,.97.31-4.72,16.52,3.99,1.05-2.73,9.42-.75.03-8.85,32.36.67.32-2.92,10.37,11.13,2.95,1.27-4.88,26.42,7.47-5.89,21.16-24.96-7.16,2.79-10.08-11.48-3.14-3.05,11.3,1.22.17-1.81,5.8-1.53-.42-6.19,22.5,5.3,1.35-1.38,4.96-4.81-1.44-1.24,4.91-1.46-.42-.27.89,1.39.34-1.09,4.03,31.2,8.61-4.19,14.67,34.36,9.3-6.25,22.9-52.85-14.13,6.25-23,13.34,3.55,2.19-8.17-34.77-9.54,1.84-6.58,2.14.61,1.27-4.23,1.63.61.3-.77-1.71-.55,1.06-3.58-1-1.48-8.48-2.46-42.5-11.73-3.83,13.81.42.3-.99,3.77-1.28-.25-2.21,7.25,39.58,10.89-9.57,34.72-27-7.52-.66,2.26ZM214.8,400.92l38.17,10.51,3.18-11.2-.89-.26,3.75-13.87-37.31-10.22-4.61,16.71,1.44.51-.64,2.44-1.48-.46-1.61,5.84ZM307.59,391.45l-.1.74,1.56.34-.62,2.03,8.19,2.13,2.43-1.44,5.63-20.78-2.68-.8-4.19,15.6-5.38-1.7,9.01-32.33-1.3-.32.51-2.32-1.52-.52-.7,2.37-.91-.16-8.08,29.07-7.99-2.12-.07.52,8.48,2.31-2.27,7.35ZM253.32,378.44l33.19,9.16.34-1.1,8.6,2.31,2.09-8.08,1.76.48.32-1.09-43.59-11.83-2.72,10.15ZM228.14,370.98l19.15,5.23,3.64-13.04-11.23-3.27.23-.85-5.28-1.6-.23.85-2.67-.69-3.6,13.37ZM212.47,346.9l5.89,1.72.13-.49,8,2.15,1.13-.61,4.96-17.64-.55-1.06,1.44-5.1,1.06-.6,4.81-17.25-.75-1.19-8.36-2.26.33-1.07-5.86-1.63-12.24,45.04ZM231,350.39l.71,1.38,3.97,1.12.21.72,5.13,1.28.32-.74,4.55,1.24.49-1.4-5.81-1.61,1.22-4.36,3.6.84,8.15-30.12,15.04,4.52-.98,3.06,1.72.44.95-3.1,8.16,2.17.51-1.42-1.98-.57,1.45-5.45-29.95-8.68-4.68-1.47-1.25.7-4.75,17.02.82,1.23,4.34,1.18-1.35,5.05-4.62-1.22-1.04.64-4.92,17.56ZM333.11,340.93l8.96-32.02-2.53-.73.25-1.13-19.67-5.39-1.54.92-1.2,4.02-5.05-1.4,1.03-4.35-.79-1.3-16.39-4.62-1.46.88-1.11,4.23-.61-.1-.5,1.35,2.79.77-2.54,9.17-4.31-1.12-4.38,15.48-1.84-.34-.42,1.56,23.61,6.49.42-1.58,3.2.9-.33,1.61,14.24,3.91-.85,3.19,1.51.39.99-3.2,8.51,2.41ZM271.44,283.33l.92,1.84,17.59,4.81.98-.73,4.88,1.43.79,1.17,16.53,4.47,1.8-.91,2.19-7.79,1.02.28,1.54-5.47-44.7-12.24-2.1,5.24.85.23-2.3,7.67Z"/>
    <path id="path2-3" class="st0" d="M551.02,696.74l-69.27-18.95,36.38-132.68-22.99-6.3,1.87-6.72,2.32.59.55-1.84-2.36-.6,3.12-11.19,11.53,3.21,2.83-9.66-14.9-3.93,1.48-5.28,18.01,4.99-7.04,25.88-9.8-2.58-.42,1.76,17.44,4.92,9.63-35,18.27,5.34,14.02-51.78,32.87,8.97-14.15,51.76,18.31,5.25-12.44,44.96,35.37,9.65.31-1.13-9.76-2.5,6.05-22.21,15.07,4.11,4.2-15.93-10.57-2.69,1.03-3.76,15.11,4.11-11.04,41.44-7.06-1.93-.31,1.13,16.77,4.66-2.11,7.47-55.09-14.92-33.22,121.38Z"/>
  </g>
</svg>