<?xml version="1.0" encoding="UTF-8"?>
<svg id="svg1" xmlns="http://www.w3.org/2000/svg" version="1.1" viewBox="0 0 888.4 815.47">
  <!-- Generator: Adobe Illustrator 30.1.0, SVG Export Plug-In . SVG Version: 2.1.1 Build 136)  -->
  <defs>
    <style>
      .st0 {
        stroke: #000;
        stroke-width: 8.54px;
      }

      .st0, .st1 {
        fill: none;
        stroke-miterlimit: 17.09;
      }

      .st2 {
        fill: #262626;
      }

      .st3 {
        fill: #212121;
      }

      .st4 {
        fill: #444;
      }

      .st5 {
        fill: #333;
      }

      .st1 {
        stroke: #444;
        stroke-width: 4.27px;
      }
    </style>
  </defs>
  <g id="Terrains">
    <path id="path1" class="st3" d="M752.5,809.8l-317.2-86.23,8.91-32.79-177.93-47.04,4.59-16.87c-4.73-1.3-6.57-2.28-8.64-6.69-1.68-3.58-1.83-6.15-1.83-6.15l-4.24-1.64-40.4-15.32-38.08-12.31-16.73-4.93-18.73-2.87L5.24,540.5l55.94-208.17-.55-6.4,8.82-35.51-.45-6.91c-.6-2.21-1.09-2.83-.5-5.13l1.98-4.88c.16-.59.36-1.43.7-1.91.88-1.24,5.6-3.16,7.19-3.89,7.16-3.27,13.13-5.85,19.3-10.88l7.93-5.67,5.5-4.22,5.38-3.65c7.62-5.43,12.5-9.63,21.11-14.09l7.66-2.73,7.23-3.35,7.45-3.05,19.96-10.32,14.82-5.82,15.83-7.42c1.78-.97,2.87-3.11,3.76-4.87l4.52-8.4c4.11-6.7,8.68-12.5,14.17-18.11,1.85-1.9,3.5-3.75,5.61-5.4,5.02-3.92,9.63-5.81,15.64-7.61,2.26-.68,4.08-1.27,6.45-1.6,3.9-.54,7.85.29,11.63-.72,2.8-.74,8.25-3.99,10.81-5.65,3.7-2.39,7.8-5.38,10.46-8.89l6.33-10.92,5.05-7.05c2.6-4.12,2.69-6.6,6.54-10.56,2.84-2.92,6.53-3.79,10.28-4.93,4.71-1.44,9.6-3.09,13.83-5.68,7.39-4.51,14.65-9.37,21.57-14.59,3.67-2.77,6.66-6.43,10.77-8.68,2.61-1.43,5.76-1.89,8.55-2.97l8.27-3.87,16.97-3.74,2.83-.65c3.08-1.13,8.34-4.26,11.3-5.97,2.25-1.3,4.07-3.35,6.75-2.68l57.16,15.54c.6.16,1.4.35,1.92.68,1.1.68,3.25,3.72,4.09,4.87,3.31,4.53,7.27,10.82,9.66,15.86,2.26,4.77,3.1,7.64,4.83,12.45l5.01,13.4,7.26,16.72,3.74,7.64,4.34,7.23,4.4,7.05c1.48,2.15,3.35,4.73,5.12,6.62l5.21,5.2c3.12,3.59,5.99,7.68,9.74,10.66l10.39,6.06,3.81,2.12c.55.56.77,2.59.91,3.41.55,3.34,1.65,6.01,1.65,6.01l-21.1,79.7,86.11,23.41,4.13-1.14,243.84,65.84-122.35,447.48Z"/>
  </g>
  <g id="Dirty_roads">
    <path id="path2" class="st5" d="M636.95,494.32c-7.26-1.98-14.53-3.95-21.8-5.94,3.52-.83,5.72-4.45,5.7-7.93.84-5.9,1.82-11.79,2.76-17.67,1.07-3.35,2.86-6.41,4.24-9.65,1.5-3.38,3.39-6.64,4.14-10.29,1.25-4.5,2.61-8.98,3.1-13.64.4-2.65.69-5.34,1.79-7.82.63-2.81,3.39-4.84,2.88-7.92-.16-3.39.94-6.79,2.95-9.51.96-2.76-.5-5.59-.43-8.34.41-2.86,2.52-4.88,4.61-6.62,1.57-2.61,5.08-6.16,6.15-8.98,1.17-2.87-1.61-4.69-3.47-6.25-1.37-1.71-1.06-5.06.74-6.33,2.47,1.07,4.36-1.57,6.3-2.84,1.68-1.64,4.11-2.69,6.32-1.42,4.44,1.16,8.95,2.1,13.33,3.42,1.45.83,3.44,4.52,1.74,5.26-2.86-.09-4.06,3.48-3.79,5.84.48,2.51.64,4.68-.62,7.5-1.21,3.56-5.83,3.14-7.96,5.77-2.18,2.51,2.2,5.65,4.25,3.33.72-1.37,2.74-5.4,4.17-2.66-.31,2.63,1.8,4.47,3.37,6.25.87,1.78,2.83,2.29,4.66,2.24,3.03.25,6.74-.86,7.73-4.08.93-2.78,1.15-5.74,1.98-8.55,1.26-5.26,2.29-10.59,3.48-15.86,1.09-2.54,3.16-4.49,4.72-6.74,1.7-2.11,3.23-4.37,4.81-6.55,3.04-3.06,6.42-6.14,10.64-7.41,2.87-.52,5.27,1.5,7.75,2.54,3.13.74,6.39.38,9.56.84,2.78.55,5.56,0,8.32.14,2.26.34,4.69,1.77,4.67,4.33.52,2.47,1.27,4.94,1.13,7.5.42,2.4,2.52,4.02,4.23,5.59,1.91,1.63,4.35,2.44,6.83,2.68,2.73.23,3.83,2.96,2.57,5.19-1.73,6.54.24,13.34,2.29,19.57,1.32,3.18,1.05,6.69,1.7,10.01.67,2.99,3.94,3.27,5.88,4.53,3.12-.15,2.49-4.2,5.04-5.2,2.03-1.27,5.23-.51,6.31,1.69,1.15,2.9,1.75,6,2.72,8.97.77,2.86,1.78,5.67,2.34,8.58-.34,2.25-2.1,4.88-3.92,5.89-.65-1.8-.76-5.45-3.73-4.43-2.22,1.27-3.86,3.62-6.74,3.5-3.38.32-6.97.03-10.03,1.8-2.49,1.01-5.3,3.26-4.46,6.29.9,2.98-.83,6.2.61,9.07.93,2.55-.24,5.8,2.02,7.8,2.26,2.34,5.41,3.69,7.28,6.43,1.76,1.98,2.93,4.41,4.35,6.61,1.62,1.36,2.55,3.57,4.79,4.07,2.79.74,5.73,1.98,8.59.84,2.71-.8,5.42-1.82,8.24-2.02,2.16.16,3.83,1.77,5.74,2.66,1.8.81,3.4,2.37,5.45,2.4,2.58-.08,5.87-.03,7.31,2.52,1.28,2.99,1.9,6.46.78,9.6-.66,2.22-1.89,4.45-4.13,5.39-2.18,1.01-4.5,1.67-6.65,2.74-3.08.98-6.36.28-9.49-.04-3.27-1.01-6.38-2.5-9.58-3.73-2.61-1.03-5.21-2.38-8.1-2.22-4.23-.08-9.07.14-12.34-3.04-2.19-2.02-4.07-4.35-6.39-6.23-1.81-1.97-3.79-4.01-4.43-6.69-.99-2.58-2.54-4.91-3.97-7.27-1.68-2.4-3.71-4.59-5.16-7.12-1.31-3.54-1.1-7.68-3.39-10.82-2.15-2.33-5.44-2.73-8.33-3.58-3.3-.41-5.93,2.49-9.22,2.17-2.93.11-5.93-.29-8.75.69-2.52.56-4.99,1.46-7.55,1.72-4.87-.07-9.76-.29-14.58.63-3.92.33-6.08,4.34-9.8,5.2-2.7,1.43-5.3-.76-7.76-1.6-3.84-.66-7.75-.17-11.62-.1-3.72.03-6.96,2.03-10.32,3.35-2.66,1.24-5.48,2.22-7.95,3.82-2.14,2.13-3.26,5.07-4.61,7.73-1.5,4.12-1.94,8.53-2.81,12.81-.58,3.1-.98,6.53.73,9.36l.11.25h0ZM652.28,439.97c2.61.58,5.75,1.17,7.69-1.2,2.46-1.87,5.25-.09,7.64.89,2.54,1.5,5.61.53,7.35-1.69,1.65-2.59-1.14-5.46-2.06-7.89-1.83-2.39-4.74-3.75-7.41-5.03-2.84-.77-5.77.27-8.64.39-2.78.35-5.65,2-6.37,4.88-1.06,2.59-2.41,5.89-.54,8.43.6.67,1.47,1.05,2.34,1.22h0ZM686.63,434.27c5.43,1.06,10.81,2.44,16.27,3.29,4.27.22,8.55-.27,12.79-.72,3.19-.71,5.8-2.84,8.13-5.02,1.24-2.53-1.31-5.04-2.97-6.69-1.89-1.67-4.16-3.27-6.81-3.02-3.09-.02-6.43-.48-8.72-2.77-2.62-2.24-4.48-5.6-7.84-6.84-4.66-.96-8.58,2.35-12.77,3.7-2.43.83-5.03,1.2-7.37,2.25-2.41,1.68-2.31,4.99-2.55,7.61.5,2.64,3.15,4.02,5.14,5.48,2.05,1.28,4.31,2.27,6.69,2.72ZM741.97,416.85c3.49-.08,7.05-.46,10.27-1.88,1.95-1.59,3.12-3.92,4.37-6.04,2.43-5.75,1.3-12.22-.23-18.05-.53-2.35-2.02-4.5-4.42-5.11-2.57-1.47-1.29-5.03-3.35-6.72-2.52-1.42-4.6,1.58-7.17,1.07-2.59-.31-5.25.19-7.4,1.73-2.16,1.35-4.14,3.34-4.87,5.83-1.82,2.63-5.87,2.07-7.56,4.89-1.47,2.3-2.9,4.69-3.87,7.24-1.05,3.84,1.04,8.15,4.66,9.79,3.56,1.77,7.31,3.15,10.98,4.68,2.79,1.08,5.64,2.06,8.6,2.59h0ZM694.75,395.71c2.74-.7,4.56-3.09,6.9-4.53,1.96-1.91,5.63-2.94,5.97-5.96-.28-2.4-2.32-4.01-3.58-5.93-1.61-1.27-2.24-4.42-4.7-4.08-1.5,2.13-1.85,5.1-1.39,7.68-.51,1.89-5.03,1.34-4.09,4.49-.22,2.51-1.67,5.34-.04,7.66.26.29.57.52.92.68h0ZM705.34,377.8c2.33.47,5.2,1.81,7.25-.08,1.28-2.35-.15-5.24-1.01-7.49-1.98-1.97-5.22-.72-6.91,1.03-.51,2-.99,4.71.86,5.92l-.12.33-.07.29ZM706,367.59c3.66-.1.13-5.52-1.93-2.91-.82,1.24.76,2.72,1.93,2.91ZM714.03,367.97c2.38.14,5.47.19,6.88-2.1.95-2.27-.05-5.42-2.26-6.58-2.54-.28-5.09,1.03-7.4,2.03-2.43,1.66-.32,5.07,1.44,6.37.42.19.88.29,1.34.29h0Z"/>
    <path id="path3" class="st5" d="M164.7,453.92c-3.05,1.48-6.44,2.77-8.55,5.58-1.92,2.47-3.72,5.2-4.52,8.25-.58,4.42-1.06,8.87-1.7,13.28-.73,1.52-.95,3.18-.79,4.84,0,2.25.41,4.55-.4,6.72-.4,2.97-.06,6.02.46,8.95,1.05,3.2,1.71,6.66.95,10.01-.58,3.35-2.47,6.29-3.17,9.61-.64,2.56-1.4,5.37-3.8,6.85-2.58,1.59-5.6,2.27-8.54,2.87-3.38.57-5.72-2.61-8.79-3.34-2.3-.23-3.89-2.09-3.86-4.41-.44-1.88-.69-3.83-.14-5.72.76-4.36,1.76-8.72,3.57-12.78,1.19-2.87,4.1-4.47,5.44-7.26,1.42-2.62,3.35-5.21,3.29-8.34.04-2.92-.06-6.01-1.4-8.66-1.69-2.01-4.13-3.33-6.57-4.21-3.36-.76-6.19,1.91-9.46,2.05-2.22.32-4.47.52-6.67.93-3.1,1.64-5.32,4.51-7.53,7.16-1.1,1.55-2.03,3.28-3.7,4.32-2.44,1.9-5.85,2.56-7.53,5.38-1.81,2.57-3.11,5.44-4.02,8.44-.71,2.03-2.88,3.05-4.93,2.65-2.29-.28-4.69.13-6.91-.63-1.72-1.28-2.75-3.26-4.13-4.88-1.72-2.37-3.74-4.53-5.24-7.06-.61-1.55.35-3.13.64-4.67.53-1.66.75-3.46,1.58-5,1.79-.43,4.11.2,5.68-1.49,2.34-1.74,5.4-2.99,8.31-1.99,3.07.87,6.28-.7,8.57-2.68,2.79-2.48,5.2-5.36,8.14-7.67,1.75-1.41,2.95-3.35,4.52-4.95,2.67-2.85,4.98-6.12,8.35-8.21,2.79-1.79,4.67-4.72,5.9-7.73.35-2.11-.52-4.49.89-6.38,1.38-1.1,2.6-3.31.5-4.42-2.14-1.3-4.55-2.09-7.04-2.32-4.74-.02-8.88,3.69-13.71,2.65.21-2.17,4.21-2.23,6.17-3.01,3.45-1.2,6.67-4.08,6.92-7.92.22-2.9-.53-5.76-.94-8.6-.65-2.43-2.69-4.53-5.09-5.24-2.07-.08-3.9,1.38-6.01,1.2-2.65.12-5.32.08-7.96.3-2.92.64-5.89,1.11-8.79,1.87-1.68.57-3.4,1.28-5.21.96-3.42-.17-6.83-.6-10.26-.33-1.71.13-4.57-.75-3.71-2.98.88-2.19,1.99-4.3,2.57-6.6.8-2.8,1.85-5.53,2.44-8.38.42-2.72-.82-5.65.73-8.18,1.14-2.03,2.61-4.36,5.05-4.87,2.29-.11,4.59.02,6.89-.14,2.03-.07,4.06-.08,6.05-.54,2.32-.37,4.61-.92,6.97-.85,2.55-.03,5.08-.19,7.61-.55,2.49-.25,4.96-.73,7.47-.55,2.16-.02,4.34.19,6.5-.01,3.29-.68,6.44-1.94,9.6-3.03,3.11-1.04,2.54-4.56,2.9-7.51.46-2.9.9-5.59-.03-8.44-.58-2.02-.28-3.99-.4-6.15-.41-2.46-1.83-5.2-1.12-7.54.87-2.94-1.4-5.47-2.63-7.92-1.94-3.34-3.62-6.86-4.5-10.64-.88-1.83.11-3.66,1.35-5.01,1.07-1.94,2.89-3.11,5.15-2.68,5.15,0,10.31-.11,15.46-.11,2.33.05,3.44,2.62,4.18,4.48-1.1.33-3.9.61-4.59,2.5-.87,2.28.77,4.68-.04,6.99-.64,3.07.58,6.27-.37,9.25-.99,2.18-1.73,4.27-.32,5.98,1.31,1.69,3.3,4.1,3.07,6.12.22,2.36-2.45,4.75-1.99,7.08.71,3.53,1.85,6.96.93,10.4-.42,2.16.98,4.54,1.85,6.63,2.18,7.12,4,14.55,8.29,20.76l5.68,6.81c-3.09-.22-6.22-.02-9.16.98-4.41,1.44-9.03,3.69-11.44,7.86-1.61,3.86-1.68,8.17-1.48,12.28.2,3.56,1.97,6.93,4.78,9.12,5.09,4.26,11.6,6.14,17.71,8.41l6.02,2.03ZM137.1,464.54c2.27.47,3.57-1.84,3.09-3.81-.23-2.27-.5-4.56-.02-6.82.74-2.59-2.52-3.53-3.89-1.52-2.13,1.77-4.71,3.28-6.03,5.8-.51,1.97,1.5,3.4,2.87,4.42,1.23.82,2.55,1.55,3.99,1.93ZM121.22,435.31c1.72-.63.7-2.76.72-4.11-.13-1.91-.22-3.84-1.07-5.6-.9-2.41-2.17-5.13-4.87-5.87-1.48-.12-1.16,1.68-.92,2.61.43,1.8.33,3.68.65,5.49.88,2.33,2.66,4.17,4,6.25.41.5.9.96,1.49,1.24h0ZM132.88,418.08c2.62-.05,3.14-3.02,2.93-5.09-.14-2.65-.9-6.03-3.72-7.02-2.31-.64-4.44,1.13-5.93,2.7-1.62,1.43-1.4,3.91.31,5.18,1.77,1.84,3.76,3.84,6.41,4.23ZM86.04,397.77c3.23.18,6.48.1,9.67.67,3.22.4,6.42.95,9.62,1.51,3.24.51,6.4-.88,8.87-2.9,1.92-1.54,4.79-2.45,5.34-5.16.65-2.65-2.27-3.98-4.43-4.19-2.73-.48-5.36.9-8.1.68-2.35.06-4.72-.15-7.03.38-3.49.62-7.05.85-10.5,1.72-2.3.53-4.61.99-6.96,1.17-2.04.34-4.26.16-6.09,1.2-1.79,1.52,1.04,2.77,2.38,2.95l7.23,1.97Z"/>
  </g>
  <g id="Roads">
    <path id="path4" class="st5" d="M255.16,683.32l-12.61-3.43,17.52-64.45,1.42-4.13,11.66-42.87c.81-3.01,1.52-6.8,1.09-9.87-.21-1.47-.6-3.64-1.79-4.63-.82-.68-2.16-.52-3.17-.5l-7.72-1.25c-10.58.59-8.66-.48-19.51,1.7-3.7.74-8.71,2.1-11.91,4.06-1.84,1.13-5.14,4.56-6.35,6.39l-3.21,5.13c-1.11,1.13-3.39.67-3.94-.84-.49-1.33,1.8-4.43,2.58-5.53l3.01-3.99c2.38-2.66,6.83-5.99,10.15-7.24l5.53-1.52c5.1-1.31,12.94-1.98,18.21-2.43l12.03.86c3.14-.27,8.6-4.06,10.82-6.44.96-1.02,1.27-2.17,1.63-3.47l5.56-20.46.86-4.28,5.79-21.3c.33-1.28.54-2.38-.28-3.56-.71-1.02-1.74-1.2-2.86-1.51l-47.08-12.25-4.28-.86-73.57-19.11-3.85-1.35-1.12-.31-5.74-2.13c-5.62-1.96-14.73-5.27-17.85-10.63-2.62-4.51-1.99-11.83-.61-16.69.86-3.01,5-6.25,7.62-7.79.98-.58,2.5-1.47,3.52-1.89,1.14-.47,2.08-.6,3.25-.87,3.37-.79,5.97-1.25,9.43-.35l1.12.3,4.28.86,2.52.69,4.28.85,3.64.99,3.44.65c4.26.94,10.2,2.16,15.62,3.58,6.15,1.6,11.56,3.34,11.56,3.34l-3.35,10.78s-19.2-3.26-26.96-5.37l-4.28-.86-10.37-2.82-5.96-1.32c-3.32-.86-6.6-1.11-8.59,2.18-.47.78-.86,1.52-1.03,2.43-.35,1.91,0,4.9,1.21,6.45,2.9,3.75,11.83,4.33,16.33,5.54l4.84,1.02,55.81,14.93,4.28.86,51.84,14.09,4.84,1.01,9.25,2.51c2.71.72,3.3.01,4-2.52l3.43-12.61,1.42-4.13,7.77-28.58c.65-2.4,2.98-8.25,1.25-10.24-.72-.82-1.9-1.07-2.91-1.35l-74.82-20.34c-1.97-.54-7.89-2.97-9.4-4.17-5.54-4.41-7.08-11.53-5.29-18.18l24.07-88.55c1.77-6.48,7.88-10.98,14.52-11.37,1.02-.06,4.93.71,6.04,1.01l14.01,3.81,4.84,1.01,61.93,16.84,4.84,1.01,19.06,5.18c1.12.29,4.16.84,5.05.23.76-.52.99-1.71,1.22-2.55l15.72-59.84c.36-1.32,1.21-4.91.62-6.07-.78-1.51-2.9-1.69-4.36-2.3l-6.87-2.4-5.67-2.39-43.17-18.21c-3.44-1.59-6.59-3.88-9.39-6.42-1.55-1.4-3.13-3.25-3.21-5.46-.08-2.22,1.55-8.3,3.7-9.27.89-.4,2.63-.36,3.66-.4l7.79.14,14.97,2.8,10.57.98,2.87.51,6.74.67,3.87.17,2.6.41,10.6.86,12.9,1.25c1.77-.14,3.21-1.21,3.47-3.04.27-1.92-.99-2.18-2.64-2.96-2.44-1.04-5.88-1.8-8.58-2.46l-4.27-.9-58.28-15.85c-4.62-1.26-8.81-5.42-9.76-10.18-.23-1.15-.18-2.47-.13-3.65.05-1.29-.01-4.37.4-5.6.62-1.86,1.97-2.36,3.76-2.8l9.44-1.52,14.83-.22,19.1-3.16,11.17-3.44c4.23-1.15,8.23-1.47,9.08-5.85l-.02-5.34c.11-.88-.19-4.72.37-5.33.72-.79,1.93-.77,2.91-.79h6.32c1,.03,2.73,1.09,2.73,1.09l.85,31.18-8.47.18-18.77.43-16.78.83-15.67,1.18c-1.86.11-5.68.11-7.12,1.19-1.7,1.28-.76,1.93.54,3.09,1.51,1.36,3.25,1.65,5.13,2.16l4.13,1.42,58.84,16c4.58,1.25,8.45,1.91,12.74,3.82,1.02.46,3.78,1.46,4.25,2.39.33.65.19,2.96.11,3.67l-.76,2.8-.54,3.16-.91,4.27c-.73,1.75-1.69,2.53-3.35,2.78l-4.11.73c-1.85.25-5.2-.03-7.2-.08l-23.91-1.72-14.38-1.36-9.84-2.39-14.49-2.04c-1.27-.17-4.36-.47-4.24,1.63.1,1.7,2.05,2.28,3.35,2.75l4.62,1.81,5.79,1.95,17.69,6.67,3.83,1.4c1.52.62,2.06,1.05,3.79,1.55l7.15,2.49,5.22,1.82,6.03,2.19,14.81,4.03,4.84,1.01,11.77,3.2,4.28.86,59.77,15.43,4.13,1.42,28.02,7.62,4.13,1.42,21.3,5.79.61-2.24c.74-2.54,2.52-2.02,4.61-1.46l12.12,4.85,4.84,1.02,22.42,6.09,4.28.86,18.77,5.1,4.28.86,13.45,3.66,4.84,1.01,10.65,2.9,4.84,1.01,10.65,2.9,4.84,1.01,9.81,2.67,3.43.66,11.16,2.13,20.01,3.88,10.87,2.08,5.61,1.52,4.84,1.01,7.85,2.13,4.28.86,6.16,1.68,4.28.86,3.92,1.07,4.28.85,4.48,1.22,3.44.65,10.44,2.54,4.84,1.02,24.47,5.18,34.25,6.85,14.59,2.76c9.68,1.93,19.58,3.24,29.11,5.83l-3.35,12.33-10.31-1.93-17.97-3.63-5.74-1.01-24.28-4.77-2.52-.69-17.68-3.58-21.31-4.62-4.28-.86-4.76-1.29-4.56-.94-4.2-1.14-4.56-.94-3.92-1.07-4.56-.94-4.2-1.14-4.28-.86-4.76-1.3-4.28-.86-17.04-3.75-11.66-2.51-10.87-2.08-2.52-.69-7.44-1.42-9.32-2.23-4.84-1-4.48-1.22-3.44-.63-4.2-1.14-3.44-.65-11-2.69-3.72-.71-5.88-1.6-4.84-1.01-6.72-1.83-4.84-1.01-7.57-2.06c-.83-.21-4.51-.92-5.18-.76-1.22.3-1.63,1.36-3.16,1.53l-6.3-1.14-6.72-1.83-4.28-.86-6.44-1.75-4.28-.86-16.89-4.29-8.63-3.3-3.92-1.07-4.56-.94-9.53-2.59-4.84-1.01-78.06-21.87-4.84-1.01-33.35-9.07c-2.61-.7-5.92-.54-7.71,1.82-.65.85-1.56,3.52-1.86,4.61l-13.86,54.1c-.5,1.83-2.78,6.19-1.47,7.77.67.81,1.93,1.08,2.9,1.34l93.42,24.48c1.67.46,6.23,1.19,6.88,2.82.33.84,0,1.77-.22,2.6l-1.68,6.16c-.23.81-.42,1.62-1.23,2.05-.91.48-1.97.09-2.89-.16l-49.43-12.53-4.13-1.42-68.65-18.66c-1.46-.4-5.79-1.99-6.98-1.17-.76.52-.99,1.71-1.22,2.55l-12.8,47.08-1.42,4.13-10.67,39.23c-.91,3.38.43,4.02,3.49,4.86l158.88,43.19,4.13,1.42,47.35,12.87,4.13,1.42,96.22,23.87,4.13,1.42,13.45,3.66,4.69,1.58,13.17,3.58,4.69,1.57,43.71,11.88,4.28.86,45.11,13.06c6.07,1.66,11.11,7.24,12.57,13.35.78,3.26.31,10.11-.58,13.39l-7.23,29.47-1.42,4.13-5.02,19.18-1.42,4.13-4.63,19.21-1.42,4.13-9.29,34.19c-.51,1.8-1.42,3.5-2.48,5.04-2.12,3.09-6.46,7.48-10.05,8.68-2.54.85-4.49.67-7.09.62-3.87-.08-15.26-3.31-18.97-4.33l-4.2-1.14-3.29-1.18-7.57-2.06-4.41-1.5-7.01-1.9-4.41-1.5-7.01-1.91-4.69-1.58-108.72-29.56-4.13-1.42-20.17-5.48-4.13-1.42-22.14-6.02-4.13-1.42-23.82-6.48-4.13-1.42-7.84-2.13-4.28-.86-142.86-37.21-4-.79-33.7-9.35c-3.49-.94-4.58-2.2-5.6,1.55l-12.18,45.77-3.25,12.13-9.38,32.25-1.42,4.13-5.79,21.3ZM726.22,672.9c4.85.57,14.15,3.42,18.44-.1.77-.64,1.48-1.3,2.01-2.16.66-1.08.95-2.07,1.28-3.26l12.26-46.31,1.42-4.13,16.05-63.58c.58-2.19,1.04-4.81-.03-6.9-1.49-2.92-5.52-4.2-8.46-5.04l-3.57-1.27-1.12-.3-8.81-3-96.99-25.43-4.28-.86-9.53-2.59-4.28-1.25-6.22-1.45c-3.01-.81-3.44.23-4.24,3.12l-2.78,9.81-1.8,7.69-2.13,7.85-1.01,4.84-2.36,8.69-1.58,4.69-4.49,16.53-1.58,4.69-9.21,36.12-1.58,4.69-4.11,15.13c-.64,2.23-1.73,3.53-1.01,6.04.63,2.22,3.5,3.36,5.53,3.92l81.44,21.69,4.13,1.42,28.86,7.85,2.74.99,7.01,1.91ZM344.16,569.17c2.52.27,5.68,1.29,8.19,1.97l14.57,3.96c1.8.46,5.05,1.13,6.76.39,1.65-.71,2.04-4.76,2.85-6.33,1.15-2.23,2.25-8.12,2.88-10.45l3.5-12.89,1.01-4.84,1.68-6.16,1.01-4.84,5.56-18.66,1.01-4.84,15.91-55.15c.56-2.17,1.22-5.09-.9-6.64-.57-.42-1.5-.63-2.18-.82l-8.69-2.36-4.69-1.58-61.37-16.68c-1.29-.35-3.31-1.08-4.6-.81-2.15.45-2.56,1.68-3.07,3.54l-1.68,6.16-1.01,4.84-2.82,10.37-1.01,4.84-2.82,10.37-1.02,4.84-4.87,17.93-.86,4.28-4.87,17.93-.86,4.28-4.88,17.93-1.02,4.84-4.04,14.85c-.19.72-.47,1.55-.14,2.28.54,1.18,3.54,3.7,4.8,4.05l35.66,9.88,3.86,1.31,8.13,2.21ZM580.4,631.49c1.67-.19,2.22-.67,2.71-2.25l.94-4.56,15.01-55.2.86-4.28,16.07-59.12c.26-.98.64-2.85.25-3.8-.48-1.19-1.58-1.37-2.68-1.68l-24.66-6.7-4.13-1.42-152.99-41.59c-2.29-.62-8.4-2.94-10.26-.98-.58.61-.79,1.62-1.01,2.42l-5.26,19.33-1.01,4.84-11.87,48.25-1.42,4.13-8.08,29.7-1.42,4.13-2.21,8.13c-.75,2.76-2.04,6.55,1,8.5.62.4,1.48.6,2.19.79l13.17,3.58,4.69,1.55,163.36,44.41,6.72,1.83ZM313.47,405.75c1.05-.04,2.06-.09,2.9-.79,1.28-1.07,2.28-6.09,2.77-7.87l22.7-83.5c.26-.97.66-2.15.29-3.13-.57-1.49-1.99-1.84-3.35-2.21l-80.14-21.79c-2.57-.66-2.73.11-3.36,2.4l-24.76,91.07c-.74,2.76-.51,3.16,2.25,3.9l71.17,19.35,9.53,2.59Z"/>
  </g>
  <g id="Fence_ext">
    <path id="path5" class="st0" d="M561.97,194.51l-21.2,79.69,86.11,23.41,4.13-1.14,243.84,65.84-122.23,447.91-317.3-86.26,9.02-33.16-178.05-47.06,4.59-16.87c-5.77-1.99-9.73-5.8-10.46-12.84l-39.96-15.45-56.67-18.32-22.8-3.49L5.24,540.5l55.94-208.17-.55-6.4,8.82-35.51-1.62-6.09"/>
  </g>
  <g id="Fences_int">
    <path id="path6" class="st1" d="M767.86,737.65l-16.5,62.39-167.81-44.89"/>
    <path id="path7" class="st1" d="M578.59,754.02l-68.99-18.08"/>
    <path id="path8" class="st1" d="M502.94,733.89l-60.11-16.32"/>
    <path id="path9" class="st1" d="M444.48,712.94l15.04-56.11"/>
    <path id="path10" class="st1" d="M475.67,619.5l-9.8-2.66-8.5,30.84M460.45,653.05l8.2-30.76,5.4,1.47"/>
    <path id="path11" class="st1" d="M456.34,652.24l-10.75,39.52"/>
    <path id="path12" class="st1" d="M768.84,733.96l19.67-73.81"/>
    <path id="path13" class="st1" d="M790.99,651.05l8.12-30.86"/>
    <path id="path14" class="st1" d="M800.3,615.8l22.56-84.2-41.79-11.06"/>
    <path id="path15" class="st1" d="M643,492.95l4.26-15.68,104.89,27.8M688.5,495.77l-35.67-9.6-2.53,8.82M778.54,519.77l-87.08-23.3"/>
    <path id="path16" class="st1" d="M755.75,505.87l67,18.13"/>
    <path id="path17" class="st1" d="M824.85,524.32l4.35,1.18"/>
    <path id="path18" class="st1" d="M640.72,303.75l-26.91,100.77,14.78,4.16-5.79,21.4M629.7,420.78l4.41-16.12-14.62-3.86,25.67-95.76"/>
    <path id="path19" class="st1" d="M622.1,433.46l-12.43,45.8-5.26-1.48M602.69,482.4l9.83,2.55,15.96-59.4"/>
    <path id="path20" class="st1" d="M543.93,288.76l-8.03-2.18"/>
    <path id="path21" class="st1" d="M531.39,285.35l-29.2-7.94-13.96,51.34-2.74-.75"/>
    <path id="path22" class="st1" d="M481.77,326.99l-18.03-4.9"/>
    <path id="path23" class="st1" d="M457.91,320.3l-64.86-17.63,7.24-26.65"/>
    <path id="path24" class="st1" d="M403.01,266.02l5.38-19.79,15.09,4.1"/>
    <path id="path25" class="st1" d="M427.01,251.29l100.52,27.33"/>
    <path id="path26" class="st1" d="M531.65,279.74l13.72,3.73"/>
    <path id="path27" class="st1" d="M612.17,506.81l-93.08-25.3"/>
    <path id="path28" class="st1" d="M512.38,479.57l-88.05-23.94"/>
    <path id="path29" class="st1" d="M423.05,461.11l89.8,24.41"/>
    <path id="path30" class="st1" d="M519.58,487.56l58.96,16.03"/>
    <path id="path31" class="st1" d="M583.97,505.07l26.76,7.28"/>
    <path id="path32" class="st1" d="M407.05,449.47l-8.28,30.45"/>
    <path id="path33" class="st1" d="M311.28,490.71l2.69-9.89,73.7,20.04,7.01-25.8M397.56,484.38l-6.17,22.69-74.09-20.14-1.16,4.27"/>
    <path id="path34" class="st1" d="M395.94,470.4l6.06-22.3"/>
    <path id="path35" class="st1" d="M271.75,625.64l13.07-47.57"/>
    <path id="path36" class="st1" d="M285.72,574.78l2.85-10.47,5.56-14.32"/>
  </g>
  <g id="Rocks">
    <path id="path37" class="st2" d="M452.07,141.63l-.28-.08.36-.2-.08.28Z"/>
    <path id="path38" class="st2" d="M804.07,241.54l-.61-1.07.61,1.07Z"/>
    <path id="path39" class="st2" d="M352,33.78c2.26,1.54-1.89,4.93-3.55,6.9-1.67,2.12-4.48,2.49-6.88,3.31-4.17,1.15-8.36,2.39-12.11,4.59-1.95,1.07-4.02,1.93-6.19,2.39-4.55,1.24-9.16,2.29-13.64,3.79-2.81.78-5.58,2.14-8.57,1.81-2.43-.44-3.94-2.63-5.78-4.07-2.48-2.02-3.94-4.9-5.6-7.56-1.19-1.96-3.18-3.46-5.51-3.64-2.78-.53-5.7.84-7.17,3.23-1.43,1.96-1.78,4.41-2.68,6.6-1.92,3.37-5.88,4.61-9.39,5.6-2.8.69-5.88,1.88-8.68.5-2.88-1.12-5.52,1.05-8.29,1.46-2.08.42-4.25-.9-6.24.23-1.73.94-3.64,1.51-5.62,1.44-2.11.16-4.44-.17-6.34.94-1.4,1.17-1.79,3.09-3.05,4.39-2.19,2.75-5.09,5.63-8.85,5.67-2.49-.09-5.17-.78-7.48.51-2.4,1.38-5.01,2.36-7.72,2.97-3.64.91-7.28,2.08-11.06,2.16-2.78-.37-5.36-1.64-7.86-2.84-2.53-1.38-5.3-3.28-5.74-6.36-.45-2.41-.09-4.89-.6-7.29-.49-3.26-.9-6.54-1.44-9.79-.94-2.86-3.51-4.84-4.35-7.75-1.12-2.6-.41-5.47-.16-8.17.27-2.81,1.5-5.39,2.33-8.06.57-1.74,1.23-3.46,1.74-5.21-.12-2.33-.37-4.66.08-6.97.47-2.84.62-6.18,3.11-8.1,3.43-2.99,7.3-6,12.01-6.39,3.68-.33,7.18,1.25,10.45,2.74,2.17.87,2.8,3.31,4.03,5.07.76,1.49,2.37,3.11,4.12,1.96,1.91-1.03,4.05-1.8,6.25-1.4,2.52.35,5.16.52,7.5,1.62,1.74,1,2.73,3.42,5.02,3.33,3.14-.16,6.2-1.38,9.37-1,1.58.11,3.17.1,4.73.29,1.4.56,2.89,1.18,4.42.68,1.95-.41,3.99-1.92,5.97-.76,1.24.93,2.87,1.07,4.2.22,2.08-.91,3.84-2.59,6.09-3.07,1.85.15,3.66.67,5.41,1.28,0,0,21.13,9.51,32.44,11.34,11.11,1.8,22.97-3.74,33.75-.52,6.78,2.03,17.57,11.95,17.57,11.95h0Z"/>
    <path id="path40" class="st2" d="M445.61,147.7l-.28-.08.36-.2-.08.28Z"/>
    <path id="path41" class="st2" d="M722.77,250.6c-4.67-.69-8.58-3.53-12.6-5.78-2.35-1.39-3.98-3.61-5.88-5.52-1.93-2.02-3.79-4.11-5.76-6.08-1.75-1.52-3.45-3.11-5.23-4.59-1.96-1.34-4.01-2.58-5.69-4.28-2.67-2.47-5.03-5.34-8.23-7.16-1.69-1.2-3.78-1.8-5.29-3.25-1.19-1.28-.62-3.11-.21-4.58.48-2.19-1.32-3.95-3.03-4.98-1.56-1.13-3.79-1.79-4.47-3.78-.41-1.86.94-3.47,1.9-4.92,1.79-2.49,4.63-3.95,7.55-4.69,3.89-.97,7.46-2.9,11.38-3.72,2.85-.72,5.85.1,8.7-.62,2.12-.66,3.03-3.01,5.06-3.83,2.06-.93,4.38-1.82,6.67-1.4,2.06.53,2.95,2.92,5.06,3.37,1.21.24,2.3.88,3.09,1.82,1.96,1.76,4.72,2,7.14,2.79,4.44,1.25,8.99,2.4,13.64,2.18,3.72-.12,7.47-.29,11.12-1.06,1.94-.35,3.3-2.13,5.32-2.16,1.64-.18,3.3-.21,4.92-.49,2.71-.63,5.42-1.31,8.14-1.92,2.28-.3,4.67.02,6.89-.71,3.34-1.69,6.22-4.27,9.84-5.4,1.74-.6,3.66-.72,5.4-.1,2.24.76,4.83.59,6.76,2.12,1.5,1.25,2.22,3.37,1.66,5.26-.55,1.45.7,3.22,2.29,2.87,1.89-.21,4.12-1.09,5.75.33,2.11,2.06,3.03,5.17,2.78,8.07-.2,1.68.75,3.12,1.28,4.63.7,1.71-.79,3.14-2.15,3.91-1.84,1.12-2.99,3.06-4.78,4.25-1.5,1-3.14,2.05-3.74,3.86-1.15,2.9-3.07,5.4-4.89,7.91-1.92,2.6-5.37,2.87-8.05,4.28-2.05.96-3.59,2.68-4.72,4.6-1.81,2.71-3.21,5.71-5.3,8.24-1.03,1.3-2.69,1.89-4.31,1.69-2.3-.15-4.6-.49-6.81-1.17-1.95-.24-2.97,2.17-4.92,1.89-1.72-.39-3.56-.59-5.23.13-3.98,1.59-7.05,4.86-11.14,6.26-6.33,2.46-13.29,2.42-19.94,1.71h0Z"/>
    <path id="path42" class="st2" d="M334.91,147.56c-5.43-.75-1.77-6.85-.02-9.5,1.13-1.71,2.82-3.83,4.75-4.58,1.45-.56,3.47-.53,5.04-.82,1.31-.24,3.19-.9,4.43-.8,1.83.15,2.77,1.73,4.08,2.72,1.41,1.07,3.15.77,3.91,1.87.63.92.06,2.39-.22,3.37-.2.7-.36,1.28-.77,1.9-.4.6-3.38,3.56-4.01,4.02-3.01,2.22-6.97,1.3-10.44,1.35l-6.75.46Z"/>
    <path id="path43" class="st2" d="M446.61,180.56c-2.82-.9-2.57-2.01-4.5-3.37-1.6-1.13-4.26-1.22-5.75-2.07-1.48-.85-2.17-2.5-3.65-3.16-1.22-.55-2.22-.3-3.19-.44-1.13-.17-1.92-.84-2.97-1.25-1.14-.45-2.95-.65-3.82-1.44-1.39-1.28-3.16-6.38.77-7.24,1.59-.32,3.82.94,5.32,1.45,2.1.62,2.51.25,4.4.41l3.15.59c1.56.17,2.54,0,3.98.84,2.63,1.52,4.24,5.64,6.82,4.75,1.53-.53,1.52-1.66,2.23-2.82.66-1.09,1.58-1.85,2.58-2.61,4.33-3.25,5.89-2.35,8.91-4.21,3.09-1.91,2.15-2.86,3.58-4.1,1.21-1.06,3.14-.7,3.82-2.02,1.07-2.09-3.6-3.83-2.13-6.59.67-1.26,2.14-2.09,2.68-3.48.35-.91.19-1.94.37-2.91.28-1.52.99-1.9,1.16-3.6l-.02-3.62c.18-.89,1.04-1.82,1.95-1.15.99.72.64,2.63.72,3.69.22,2.71,2.42,3.28,1.42,6.1-.34.95-.66,1.36-.89,2.47-1.02,4.93,4.06,5.92,2.61,10.04-.34.96-2.08,5.04-2.67,5.58-1.01.92-2.5,1.14-3.75,1.63-1.15.45-3.14,1.57-4.19,2.24-1.82,1.17-2.86,3.09-4.49,4.5-1.66,1.44-4.24,2.74-5.53,4.22-.98,1.12-.92,1.97-1.52,3.2-1.59,3.29-3.61,5.15-7.37,4.4h0Z"/>
    <path id="path44" class="st2" d="M480.57,193.97c-2.71-.49-4.34-5.16-1.18-5.57.76-.1,4.12-.03,4.64.46,1.36,1.28-1.19,4.05-2.26,4.71-.55.34-.63.28-1.19.4h0Z"/>
    <path id="path45" class="st2" d="M526.45,210.09c-3.19-.31-2.78-3.86-.38-4.09,1.63-.16,3.36,1.69,2.52,3.05-.47.75-1.35.91-2.14,1.04Z"/>
    <path id="path46" class="st2" d="M789.52,286.21c-2.11-.3-6.5-1.62-7.78-3.36-1.37-1.87-.43-4.19-2.13-5.6-.69-.57-1.87-.71-2.73-.97-3.03-.92-3.66-4.05-2.25-6.63.68-1.25,2.04-2.26,3.2-3.03,4.28-2.82,6.48-2.16,11.2-1.84,1.51.1,3.89.15,5.25.61,1.04.35,1.96.97,2.89,1.54,4.16,2.51,7.95,5.81,10.53,9.96,1.78,2.86,1.5,7.11-1.4,9.19-1.87,1.33-3.76,1.15-5.89,1.08l-10.88-.94Z"/>
    <path id="path47" class="st2" d="M385.04,176.78l-6.47-2.78-2.33-1.4c-1.2-.45-2.34.02-3.53-.29-1.67-.43-2.48-1.93-4.22-2.18-1.46-.21-2.63.55-4.56.17l-5.14-2.14c-2.66-.83-6.04-4.86-4.68-7.72.45-.96,1.17-1.81,2.1-2.34,1.05-.59,1.97-.56,3.11-.72,2.24-.32,4.14-.81,6.07.92,1.68,1.5,2.85,5.44,5.78,5.32,3.29-.13,1.47-4.08,4.83-5.53,1.76-.77,3.57-.12,4.89-.33,2.69-.41,3.7-2.44,6.96-1.24,1.81.67,2.76,1.91,4.79,2.32l11.8-.23c1.67.15,3.39,1.13,4.92,1.83,1.18.54,3.2,1.02,3.88,2.06,1.26,1.93-.88,4.47-2.43,5.52l-2.54,1.45c-1.3.93-1.62,2.19-3.3,2.66-1.92.54-6.66-.61-9.38.22-2.86.88-7.93,4.32-10.53,4.43h0Z"/>
    <path id="path48" class="st2" d="M420.11,187.27c-1.2-.15-3.83-.71-4.71-1.49-.99-.89-1.47-2.47-2.65-3.54-1.22-1.11-3.09-1.27-4.03-3.37-1.53-3.41,1.78-7.61,4.54-7.36l2.8.76c1.71.23,4.17-.38,5.5.8.69.61,1.33,1.99,1.94,2.81,1.64,2.2,3.06,2.04,3.91,6.9.17.95.38,2.09-.23,2.93-1.18,1.64-5.21,1.65-7.08,1.56h0Z"/>
    <path id="path49" class="st2" d="M480.66,210.19c-3.42.21-3.76-3.31-1.03-3.88,2.08-.43,4.06,2.6,1.03,3.88Z"/>
    <path id="path50" class="st2" d="M485.99,224.92c-2.83-.66-2.16-4.58,1.32-4.87,1.25-.1,2.43.78,1.94,2.11-.45,1.24-2.05,2.48-3.27,2.76h0Z"/>
    <path id="path51" class="st2" d="M278.98,171.78c-1.97-.37-6.31-3.21-5.59-5.6.34-1.13,3.09-2.77,4.13-3.39,3.58-2.12,4.46-1.4,8.16-1.2,1.46.08,3.29.02,4.65.5,4.1,1.43,3.24,4.01,2.02,7.14-.66,1.69-1.14,3.04-2.94,3.9-1.81.86-3.76,0-5.55-.49-1.6-.43-3.24-.65-4.88-.86Z"/>
    <path id="path52" class="st2" d="M436.06,220.48c-3.33-.37-3.11-1.6-5.23-2.88l-2.73-1.03c-.87-.4-1.77-1.11-2.55-1.67-2.35-1.7-4.96-4.05-4.21-7.29.27-1.18.56-1.69.16-2.96-.56-1.79-2.5-4.38-.93-6.26.94-1.11,2.43-1.01,3.49-.14,1.64,1.35,1.88,4.18,4.65,2.61,1.55-.88,3.57-3.33,6.9-4.14,2.76-.67,5.72.63,8.29-1.08,1.76-1.17.99-2.29,1.23-3.83.28-1.83,1.69-2.61,2.99-3.7,3.58-3.01,5.22-4.53,10.22-4.16,2.94.22,6.36,4.03,5.8,7.01-.31,1.69-1.85,3.65-1.92,4.29-.14,1.5,1.54,2.24.96,5.08-.86,4.21-3.83,5.4-6.93,7.75l-5.16,4.01-3.51,2.36c-1.43,1.24-2.82,4.13-5.96,5.48-1.54.66-3.88.59-5.56.56h0Z"/>
    <path id="path53" class="st2" d="M460.09,230.58c-3.63-1.35.15-5.65,2.37-4.32,1.41.85,1.04,3.03-.05,3.83-.68.5-1.51.51-2.32.49Z"/>
    <path id="path54" class="st2" d="M473.76,235.39c-2.06.03-1.54-1.34-1.48-2.8.05-1.15-.28-2.6,1.12-3.11,1.27-.47,2,.85,2.18,1.91.27,1.59-.36,3.26-1.82,4h0Z"/>
    <path id="path55" class="st2" d="M302.23,194.71l-1.12-.3c-2.22-.45-5.1-2.55-3.85-5.19.43-.92,1.52-1.47,2.28-2.39.76-.92.9-1.87,2.03-3.06l3.27-2.72c1.28-1.43,1.8-4.92,5.39-5.78,1.8-.43,6.2-.54,7.63.73,1.71,1.53,1.93,4.79,4.13,4.67,1.21-.07,2.28-1.37,3.6-2.03,1.89-.95,2.67-.18,4.69-.74,1.83-.51,2.96-1.58,4.32-1.49,1.51.1,2.17,1.63,4.34,2.86l6.36,2.06c1.46.67,2.87,2.15,4.49,2.3,1.43.12,3.77-.97,5.2-1.4l6.63-1.13c.75-.02,1.31.12,2.02.31,2.06.54,5.3,1.16,6.81,2.62,1.11,1.07,1.71,2.5,2.59,3.74.87,1.21,2.16,2.47,2.29,4.04.08,1.01-.41,1.78-1.32,2.2-1.05.48-2.19.14-3.34.47-2.8.81-3.53,2.77-7.12,1.64-2.1-.66-3.87-2.07-5.76-3.15l-6.22-2.59-4.59-1.93c-2.1-.46-7.09,1.45-10.07,1.61-1.96.1-2.46-.8-4.14-1.37-1.9-.64-8.3.01-10.59.23-2.37.23-6.26.6-8.23,1.88-1.95,1.27-2.21,2.93-4.15,3.72-1.7.7-5.62.32-7.55.22h0Z"/>
    <path id="path56" class="st2" d="M386.4,220.51c-.7-.07-1.36-.12-1.96-.53-1.61-1.15-2.69-5.18-2.28-7.07.24-1.13,1.42-3.96,2.12-4.84.59-.75,1.44-1.26,2.32-1.58,1.03-.38,7.16-1.01,8.4-.99,1.14.02,2.2.25,3.01,1.11,1,1.06,1.29,2.51,2.76,3.13l2.52.69c1.07.39,1.72,1.05,2.99,1.19,1.3.14,3.56-.6,5.4.06,1.22.44,4.21,3.15,5.19,4.16.33.34.63.71.9,1.11,1.95,2.97-.24,4.08-.58,6.1-.3,1.82.54,3.23-1.65,4.24-3.01,1.38-4.35-1.23-6.62-2.08-1.16-.44-2.09-.12-3.45-1.69-1.25-1.43-1.45-2.99-2.67-3.48-1.37-.56-3.89.98-6.05,1.22-2.21.25-2.53-.67-4.26-.92-1.95-.29-4.09.21-6.07.19h0Z"/>
    <path id="path57" class="st2" d="M272.09,195.99c-1.99-.85-2.12-2.26-3.45-2.82-.73-.31-1.59-.09-2.37-.15-1.74-.12-3.21-1.02-4.06-2.55-1.88-3.39,1.13-5.63,3.92-6.9,3.56-1.62,5.34-.48,8.85-.45,2.68.02,6.05-.55,8.64.32,5.38,1.8,5.2,7.3,1.16,10.51-2.07,1.65-5.21,1.28-7.77,1.63-1.91.27-2.95.78-4.92.4h0Z"/>
    <path id="path58" class="st2" d="M313.03,212.51c-3.55.01-6.47-2.07-9.08-4.23-1.1-.91-2.29-1.62-2.49-3.18-.21-1.67,1.09-2.52,1.57-4.41.2-.78.35-1.78,1.07-2.26.75-.5,1.74-.28,2.54-.03,1.5.46,5.19,2.89,6.02,4.19.98,1.53.32,2.46,1.1,4.35.92,2.24,3.06,4.6-.73,5.56h0Z"/>
    <path id="path59" class="st2" d="M272.21,206.62c-1.76-.18-6.29-1.47-7.33-2.87-1.62-2.18-1.12-5.37,2.06-5.41l5.8.79c1.44.04,3.14-.36,4.37.52,1.72,1.22,2.46,4.06.63,5.53-1.22.98-3.99,1.4-5.54,1.43Z"/>
    <path id="path60" class="st2" d="M240.82,205.86c-2.75-.16-2.99-2.29-3.93-4.47-.51-1.19-1.22-2.78-.57-4.07.5-.99,1.54-1.39,2.56-.93,1.02.45,2.06,1.84,2.9,2.62.89.83,2.25,1.48,2.82,2.49,1.46,2.57-1.74,4.04-3.78,4.36h0Z"/>
    <path id="path61" class="st2" d="M96.5,178.88c-.09-1.87.76-3.61,1.17-5.41,2.41-8.86,4.8-17.72,7.23-26.57.27-1.12.95-2.11,1.95-2.69,1.94-1.43,3.65-3.13,5.48-4.7,2-1.88,4.36-3.3,6.66-4.76,1.97-1.14,4.05-2.57,6.45-2.28,1.19.12,2.73.25,3.47-.92.83-1.47.15-3.28.92-4.77.68-1.73,2.42-3.07,4.33-2.95,1.68-.02,3.37.26,5.04-.05,2.33-.26,4.66-.59,6.99-.8,2.08.06,4.43.68,6.27-.61,2.14-1.41,4.24-2.9,6.42-4.26,1.33-.8,2.94-1.31,3.9-2.6.73-1.26.47-2.87,1.33-4.08,1.05-1.82,2.8-3.2,4.84-3.74,2.49-.66,4.97-1.36,7.42-2.18,1.71-.66,3.53-1.34,5.39-.88,2.96.67,6,1.43,8.53,3.16,1.57,1.03,2.65,2.97,2.12,4.87-.47,1.6-1.36,3.05-2.3,4.41-.63.73-1.83,1.56-1.23,2.67.79,1.29,2.02,2.4,2.22,3.98.27,1.79-.79,3.51-.39,5.31.36,2.46,2.27,4.49,2.11,7.07.05,2.06-1.46,3.76-1.47,5.8.24,1.66,1.01,3.2,1.29,4.85.41,2.02.63,4.13.03,6.14-.32,1.68-.06,3.4-.06,5.09.04.9.09,1.8-.11,2.69-.42,2.79-.79,5.59-1.25,8.37-1.03,3.62-3.89,6.52-7.15,8.26-1.66.84-3.7,1.54-5.49.64-.73-.49-2.28-.93-2.35.42.21,1.54,1.18,3.04.66,4.63-.28,1.53-1.44,2.62-2.47,3.68-.89,1.05-1.54,2.28-2.42,3.33-2.3,2.06-5.42,2.87-8.39,3.37-1.83.3-3.88.39-5.43-.8-1.96-1.36-3.82-2.95-5.25-4.87-1.2-1.8-2.04-3.81-3-5.74-.66-1.38-.92-2.97-.42-4.44.98-3.07.81-6.38,1.88-9.42.57-1.47,1.98-2.36,2.73-3.7l1.24-3.51c.49-1.09,2.14-1.41,2.13-2.74-.19-1.21-.84-2.61.07-3.7,1.44-1.89,4.46-1.26,5.79-3.29,1.08-1.92,1.99-3.97,2.46-6.13.4-1.41-.32-2.8-1.27-3.81-.97-.95-1.67-2.23-2.88-2.91-1.42-.58-2.12,1.19-2.47,2.24-.64,1.87-1.25,3.87-2.82,5.18-1.73,1.59-3.73,3.42-6.26,3.26-1.79-.06-3.45-.79-5.12-1.34-1.36-.28-2.37.97-2.39,2.23-.18,1.52,0,3.21-1.03,4.48-1.53,2.2-4.33,2.68-6.68,3.57-2.54.91-5.11,2.6-5.89,5.33-.38,1.45-1.13,2.93-2.57,3.58-1.97.93-4.16,1.18-6.21,1.87-2.47.76-5.03,1.24-7.62,1.21-2.36.11-4.79,0-7.08.67-1.22.28-1.83,1.54-1.52,2.7.24,1.18.04,2.65-1.14,3.25-1.98,1.13-4.24,1.63-6.39,2.34h0Z"/>
    <path id="path62" class="st2" d="M743.55,364.49c-2.47-.07-2.43-1.18-4.29-1.89-1.03-.39-1.82-.13-2.56-.51-1.28-.65-1.6-2.71-.22-3.33.64-.28,1.08-.05,1.68.12,1.82.51,4.12-.21,5.56.59,1.85,1.04,2.82,4.21-.17,5.02Z"/>
    <path id="path63" class="st2" d="M746.56,370.83c-1.28-.33-1.92-1.45-1.79-2.77.05-.52.32-1.57,1.02-1.51.93.08,2.35,3.45.77,4.28Z"/>
    <path id="path64" class="st2" d="M748.93,383.4c-3.29-.41-1.74-3.39-1.59-4.41.19-1.28-.22-3,1.63-3.25,1.67-.23,2.6,1.12,2.72,2.62.16,2.1-.54,4.42-2.76,5.03h0Z"/>
    <path id="path65" class="st2" d="M708.43,381.68c-.14-.06-.33.07-.74-.2-.75-.33-2.41-2.79-2.18-3.63.22-.8,1.27-1.23,1.99-1.39,3.59-.81,3.77,3.81.92,5.23h0Z"/>
    <path id="path66" class="st2" d="M744.17,392.14c-1.18-.19-2.66-.65-3.27-1.79-1.17-2.17,1.23-4.27,3.34-4.01,2.73.34,4.86,4.12,2.31,5.54-.74.41-1.58.31-2.38.25Z"/>
    <path id="path67" class="st2" d="M776.55,404.75c-3.53-.35-.31-3.79,1.33-3.78.99,0,1.35,1.15,1.09,1.95-.36,1.1-1.4,1.58-2.42,1.82h0Z"/>
    <path id="path68" class="st2" d="M733.04,393.22c-1.1-.42-1.66-1.12-1.75-2.34-.11-1.46,1.09-1.93,2.16-1.38,1.6.83,2.23,3.57-.41,3.72h0Z"/>
    <path id="path69" class="st2" d="M728.08,394.8c-2.8.04-2.9-3.19-1-3.74,2.51-.73,4.02,2.49,1,3.74Z"/>
    <path id="path70" class="st2" d="M221.85,257.92c-2.74-.23-5.28-1.88-5.39-4.9-.03-.76.29-1.83.5-2.57.54-1.89,1.91-4.51,4.22-4.44,3.25.11,1.99,4.04,2.22,5.28.4,2.15,3.03,5.03-.3,6.39-.52.21-.73.19-1.25.24h0Z"/>
    <path id="path71" class="st2" d="M770.75,413.91c-2.64-.2-1.57-3.56.5-4,1.52-.33,2.26.87,1.71,2.22-.43,1.05-1.21,1.44-2.21,1.78Z"/>
    <path id="path72" class="st2" d="M168.77,261.14c-2.92-.78-4.23-3.04-5.13-5.7-.34-1.01-.77-2.06-.48-3.14.28-1.08,1.81-2.72,2.62-3.5.71-.68,2.76-2.42,3.56-2.84,1.61-.86,4.69-1.24,6.43-.6,1.86.68,4.61,2.28,5.2,4.27.33,1.13-.08,1.8.4,3.41.78,2.63,2.02,3.62,1.03,6.6-1.16,3.48-5.27,3.86-8.28,2.84l-2.68-1.2c-.83-.21-1.8-.08-2.67-.14h0Z"/>
    <path id="path73" class="st2" d="M146.31,270.18c-1.83-.21-4.57-2.31-3.72-4.43.74-1.84,3.69-2.42,5.41-1.8.86.31,4.1,2.19,4.6,2.87.9,1.24.83,3.02-.72,3.71-1.39.62-2.11-.24-3.14-.45-.7-.14-1.69.04-2.43.09h0Z"/>
    <path id="path74" class="st2" d="M170.06,280.29c-1.86-.61-3.13-3.92-2.51-5.77.45-1.36,2.31-2.3,3.63-1.62,2.38,1.21,2.23,6.93-1.11,7.4h0Z"/>
    <path id="path75" class="st2" d="M147.96,278.74c-1.37-.13-3.16-1.09-3.5-2.55-.4-1.72,1.75-3.04,3.61-2.23,1.85.82,2.83,4.03-.11,4.78Z"/>
    <path id="path76" class="st2" d="M147.5,291.07c-4.41.18-6.79-7.78-.85-6.78,3.43.57,4.74,5.26.85,6.78h0Z"/>
    <path id="path78" class="st2" d="M779.4,471.64c-1.4-.62-1.51-2.67-1.72-4.06-.11-.77-.06-1.78.98-1.74,2.36.1,2.48,4.61,1.7,5.41-.4.41-.52.3-.97.39h0Z"/>
    <path id="path79" class="st2" d="M772.42,470.94c-1.92-1.59.9-3.96,2.3-3.07,1.48.94.64,3.76-2.3,3.07Z"/>
    <path id="path80" class="st2" d="M687.97,125.12c-1.29,2.67-3.49,3.35-4.26,5.76-.5,1.55-.38,3.3-1.23,5.38-.81,1.96-2.23,2.37-3.37,4.5l-1.76,5.24-5.24,9.11c-1.31,2.35-4.42,8.49-6.34,10-2,1.58-7.01,1.69-9.42,1.06-1.91-.5-4.67-1.07-5.78-2.86-.71-1.14-1.24-4.24-2.25-5.42-1.27-1.48-3.04-.14-5-2.44-.85-1-1.09-1.92-1.44-3.14-1.48-5.17-.3-6.14-1.14-9.32-.38-1.44-.8-1.55-1.57-2.67-3.22-4.74-4.82-4.6-8.14-8.31-1.15-1.28-2.37-3.64-3.99-4.14-1.16-.36-2.3.06-3.12.92l-2.2,3.3c-1.04,1.32-4.12,4.32-5.44,5.44-1.15.98-2.77,2.38-4.12,2.99-1.54.7-8.99,1.83-11.11,2.15-3.28.51-4.86,1.17-8.19.22-3.27-.93-6.22-2.74-8.95-4.71-1.28-.92-2.47-1.68-3.2-3.15-1.5-3.05-.01-6.82-2.17-8.11-1.53-.91-4.27,1.58-5.48,2.47-1.36.99-5.23,3.57-6.04,4.68-.86,1.17-.91,2.53-1.44,3.82-.5,1.21-2.35,3.64-3.32,4.51-1.91,1.73-5.5,2-6.42,4.58-.49,1.38.8,2.42,1.59,3.37l1.81,2.21c1.48,1.47,2.69,1.51,3.85,4.22,1.65,3.85-.65,5.55-.26,9.26.19,1.75,1.1,3.46,1.86,5.02,1.32,2.69,2.61,6.38,5.45,7.8,1.34.67,2.41.38,3.78.48l4.2,1.14,3.86,1.31c1.64.31,2.99.18,4.48,1.22,1.91,1.43,2.7,3.9,3.52,4.95l3.11,2.78c.85.87,2.16,2.87,2.81,3.94l1.41,2.71,2.59,4.62c1.42,2.81,1.97,4.93,4.01,7.59,2.36,3.08,6.32,5.55,9.77,7.22,2.97,1.43,6.15,2.52,8.61,4.8,1.17,1.08,1.7,2.81,2.28,4.26.85,2.14,2.51,5.75,4.23,7.26,1.22,1.07,2.76.85,4.27.88,4.99.1,6.51-1.11,10.53-1.11,1.56,0,2.95-.08,4.28.86,1.58,1.11,3.65,3.63,4.46,5.38.91,1.99.73,3.12,2.25,5.36.91,1.34,2.72,2.81,4.14,3.58.94.51,2.14.84,2.83,1.65,1.27,1.5,1,4.41.45,6.17l-2.92,7.63c-.38.98-.93,2.71-1.64,3.45-.67.7-4.43,1.87-5.74,2.49-1.84.87-3.46,1.93-5.48,2.43-1.36.34-3.97.28-5.52.37-1.74.1-3.99.27-5.65-.24-1.3-.4-2.23-1.19-3.42-1.82l-6.64-3.24-8.01-3.73c-1.77-.56-5.05-.52-6.56-1.33-3.25-1.74-2.79-6.49-1.95-9.44.73-2.56,3.49-6.01,5.75-7.37,1.04-.62,3.42-1.24,3.19-2.25-.22-.95-2.23-1.8-3.12-1.86-2.06-.14-4.01,2.21-6.89-.1-2.07-1.66-3.86-6.08-5.22-8.48-2.1-3.72-4.33-6-7.55-8.74-1.13-.96-5.18-3.92-6.54-2.57-.55.55-.5,1.71-.67,2.48-.21.97-.55,1.89-1.14,2.7-.43.58-.85.99-1.48,1.33-1.1.59-2.18.66-3.32.17-3.03-1.31-3.67-4.79-4.98-7.47-.38-.78-.99-1.94-1.64-2.5-1.54-1.32-4.12.25-6.28-2.32-1.29-1.54-1.17-2.76-1.4-4.55l-1.13-9.42c-.29-2.58-.25-4.38-2.55-6.12-1.89-1.43-5.36-1.49-7.66-1.7l-15.3-1.3c-1.1.06-3.02.44-4.11.72-4.95,1.29-8.13,4.38-13.66,2.63-3.34-1.06-5.52-3.33-7.32-6.24-1.48-2.39-.66-3.68-1.67-3.95-.86-.23-1.51.97-1.92,1.52-.79,1.06-1.73,1.96-3.16,1.77-2.57-.34-5.21-4.27-7.48-4.59-2.24-.32-5.76,1.83-7.27,3.37-1.16,1.19-2.29,3.16-4.29,2.62-2.43-.66-2.07-3.96-3.28-6.78-.37-.86-.91-2.33-2.06-2.25-1.15.08-2.13,1.74-3.87,1.97-1.5.1-2.54-1.03-3.92-1.07-1.65.07-3.53,1.4-4.97,1.68-2.1.41-10.77-1.99-8.75-7.06.66-1.65,2.07-2.25,4-6.13,1.25-2.64.61-3.68,1.37-5.04.59-.94,1.62-1.5,2.72-1.5.82,0,1.56.31,2.17.86l2.47,3.08c1.44,1.39,4.13,2.5,5.76.82,1.53-1.57-.1-3.17,0-5.1.07-1.23.43-1.43.02-3-.46-1.8-1.51-2.7-1.81-4.71-.31-2.01.48-3.15-.06-5.13-.53-1.92-2.08-3.53-1.84-5.62.32-2.79,3.37-3.1,5.46-5.44,1.64-1.84,1.33-3.61,1.77-5.84.41-2.09,1.81-3.06,2.1-4.24.41-1.65-.88-3.83-2.64-3.94-1.82-.12-3.88,1.22-5.21,1.46-1.77.32-3.7-.9-4.81-2.2-2.43-2.83-.43-4.36-.07-5.7.44-1.63-.18-4.44-1.37-5.66-.88-.91-4.17-2.04-5.78-3.04-2.99-1.86-3.37-3.23-5.13-4.39-1.56-1.03-1.97-.84-3.59-1.18-2.21-.48-4.19-2.18-4.93-4.32-.52-1.49,0-2.06-1.87-4.97-1.21-1.87-4.44-5.43-5.05-7.15-.88-2.29.93-4.08,1.67-6.15.63-1.63.36-3.24.89-4.57.74-1.86,2.19-2.6,2.92-4.02,1.31-2.55.03-4.33-1-6.59-.31-.69-.76-2.07-1.23-2.58-.6-.65-1.2-.52-1.86-.03l-1.85,2.17-2.83,2.24c-1.71,1.61-1.42,3.05-2.93,4.62-1.57,1.63-3.91,1.77-5.76,2.95-1.9,1.22-3.41,4.09-6.58,5.23-2.42.87-4.58-.36-7.07.57-.85.32-1.97.95-2.12,1.94-.29,1.98,3.12,4.63,4.53,5.75,1.68,1.33,6.07,4.44,7.1,5.94.61.89,1.02,1.99,1.42,2.99.77,1.97.97,2.58.43,4.63-.62,2.39-2.39,6.32-4.37,7.84l-6.19,3.43c-2.33,1.45-4.35,3.48-7.15,4.08-3.14.66-5.5-.58-7.12-.37-2.23.29-3.87,2.03-6.85,1.97-1.41-.03-3.6-.28-4.91-.77-1.75-.66-3.31-1.83-5.26-1.69-2.9.2-6.7,1.69-10.08,1.64-4.2-.06-4.62-1.49-6.82-1.47l-5,.7c-1.25.09-4.48-.97-5.61-1.52-1-.59-3.04-2.46-3.91-3.32-1.98-1.94-6.47-7.56-8.14-9.9-.89-1.24-2.98-5.19-4.65-4.92-2.92.47-1.25,4.9-2.4,7.35-1.51,3.21-4.51.69-5.98,2.89-.54.81-.17,2.12.01,3.01.4,2.03.75,2.79.1,4.84l-6.37,13.31c-.81,1.66-1.69,4.85-2.71,6.19-2.18,2.84-5.72,1.87-7.49,3.69-1.09,1.12-.21,2.45-.94,4.55-.77,2.19-1.79,5.83-4.19,6.64-1.85.63-3.17-.73-5.09.8-1.8,1.42-2.53,5.35-3.93,6.71-3,2.92-9,.01-12.3-.92-1.92-.55-6.48-2.38-8.08-3.48-1.59-1.09-2-2.6-3.91-3.33-3.51-1.34-6.45,1.96-9.04,3.8-2.55,1.81-5.5,3.68-8.76,3.01-1.11-.23-1.52-.55-2.47-.89l-.83-.23c-3.18-.42-.36,3.3-3.03,4.32-2.68,1.03-5.01-2.99-7.4-2.34-1.01.27-1.22,1.07-1.48,1.95l-1.58,4.69-1.14,4.2-1.17,5.4-1.02,4.84-1.75,6.44c-1.11,3.89-2.13,4.49-5.82,5.9-1.1.41-2.39.91-3.57.94-1.55.05-3.92-.68-5.3-.43-1.24.23-2.19.91-3.16,1.68l-6.98,5.63c-1.4,1.67-.99,2.67-2.07,4.25-.86,1.27-4.23,4.1-5.54,5.11-3.83,2.96-8.24,5.23-12.35,7.78l-13.71,8.31-6.5,3.94-7.55,3.4c-3.24,1.72-4.01,3.19-5.72,6.24-.57,1.01-1.32,2.37-1.7,3.45l-1.19,3.29c-.77,2.21-.54,3.45-2.69,4.99-2.2,1.57-8.02,3.47-10.81,4.72l-7.08,3.9c-4.15,2.07-6.94,2.83-11.46,3.43-2.17.29-6.01.9-8.05.82-3.3-.13-8.11-.96-11.24.32-3.48,1.49-1.31,3.87-1.77,6.5-.17.66-.49,1.28-.77,1.9-1.38,3.01-2.4,3.82-5.59,4.97l-7.11,1.79-5.04,1.94c-1.5.45-3.14.57-4.55,1.25-2.18,1.06-2.45,2.13-4.08,3.34-1.27.94-4.6,2.29-6.19,2.34-.78.02-1.81-.29-2.57-.51-1.46-.42-4.79-2.36-5.31-3.74-.21-.58-.74-5.31-.58-5.9.52-1.91-19.7-3.1-22.23-10.96-2.91-9.06,5.13-20.58,13.46-25.16,5.88-3.23,13.69-.57,20.07,1.5.86.28,1.5,1.05,2.32,1.43,1.84.87,5.78,1.97,5.78,1.97,2.65.75,5.14,2.04,7.96,1.72.88-.1,2.43-.39,2.94-1.18.59-.91-.69-3.78-1.06-4.79-1.93-5.24-1.91-7-2.88-12.22-.33-1.76-.91-6.03-.64-7.7.27-1.7.77-2.4,1.29-3.86l.84-3.08,3.91-8.87c.98-3.2-.53-6.2,1.03-7.82,1.05-1.09,3.34-1.17,4.79-1.39,3.73-.58,8.11-2.33,11.8-1.35l1.96.53,13.06,1.75c2.54.75,3.99,2.28,5.27,2.74,1.37.49,4.64.1,6.08-.23,4.45-1,6.62-2.74,10.49-4.26l12.11-3.6c3.79-1.14,6.92-2.6,10.92-1.42,1.36.41,3.19,1.53,4.39,1.54,1.41.02,3.54-1.01,4.92-1.5,2.3-.83,2.75-.77,5.09-1,2.02-.2,5.95-.12,7.41-1.55,1.09-1.07.25-2.42-.12-3.63-.81-2.61-.73-5.05-.77-7.73l.27-21.89.35-7.43c.06-1.37.02-3.11.47-4.39l1.61-4.08,3.48-8.98,2.71-5.88,1.51-8.62c.69-1.91,3.36-4.71,4.63-6.56,1.1-1.61,1.9-3.65,3.58-4.69,1.58-.98,6.7-2.32,8.53-1.85,3.03.78,4.75,2.97,8.19,1.98.75-.21,1.59-.55,2.2-1.08,1.1-1.01.97-2.53,1.06-3.91.23-2.34.34-4.22,1.93-6.09,4.2-4.93,7.87-5.53,13.35-8.43,3.67-1.94,3.17-2.81,5.23-4.24,1.2-.83,2.3-.91,3.52-1.79,2.64-1.89,2.53-5.98,6.08-6.42,1.71-.21,5.71.31,7.2,1.2,1.06.64,2.05,1.93,3.5,2.64.91.48,2.77.68,3.92,1.07l4.76,1.29c2.18,1,6.52,3.16,8.66,3.55,2.63.48,6.28-.76,8.62.38,1.7.83,4.22,2.9,5.44,4.35,1.66,1.96,3.63,4.71,6.47,4.98,2.01.2,3.02-1.58,4.36-2.7,1.23-1.03,3.41-2.33,4.95-2.76,2.34-.65,5.26-.22,6.03-3.28.42-1.65-.36-3.15-1.21-4.52-1.63-2.62-4.4-5.18-5.46-8.13-.67-1.85.38-3.16.87-4.88.34-1.21.57-2.52,1.31-3.56,1.33-1.88,3.93-2.75,5.87-4.42l5.63-5.68c1.66-1.07,7.22-2.27,9.46-2.92,4.11-1.2,7.3-3.19,11.71-3.25,3.46-.05,3.98.04,7.27.94l3.03,1.01c.97.21,3.22.75,4.03.21.96-.65.54-1.66.25-2.55-1.24-3.75-.8-3.83.19-7.47.65-2.4,48.34-12.14,72.42-8.76,24.62,3.46,44.71,22.53,68.71,29.03,25.58,6.93,53.08,4.08,78.85,10.26,24.13,5.78,47.78,14.14,70.15,24.87,6.34,3.04,13.51,5.62,17.94,11.08,4.27,5.27,7.91,17,6.87,19.15h0ZM281.12,139.51c.84-.23,1.2-.32,1.57-1.2l.61-2.24c.4-1.43,2.07-4.03.48-5.24-.85-.64-1.89.01-2.64.47-1.46.87-2.68,1.67-4.47,1.41-3.55-.52-7.34-5.92-10.56-7.63-.97-.51-2.18-1.23-3.31-1.12-2.82.26-4.35,3.03-3.44,5.61.84,2.35,2.18,3.29,4.46,3.92l8.49,1.99c1.34.3,2.33.21,3.7.77,2.41.99,2.7,3.01,5.12,3.26Z"/>
    <path id="path83" class="st2" d="M107.68,364.62c-2.58-.53-2-3.53.12-3.7,1.36-.11,2.32,1.29,1.87,2.39-.36.9-1.15,1.14-1.99,1.31Z"/>
    <path id="path84" class="st2" d="M105.6,370.01c-2.55-.08-2.07-2.74-.13-2.77,1.24-.02,2.53,1.78.13,2.77Z"/>
    <path id="path85" class="st2" d="M787.24,564.67c.28-.57.62-1.34,1.08-1.78.31-.3.69-.51,1.1-.63,4.56-1.47,3.28,4.82-.67,3.51-.64-.21-1.03-.65-1.51-1.1h0Z"/>
    <path id="path86" class="st2" d="M349.61,449.9l-.28-.08.36-.2-.08.28Z"/>
    <path id="path87" class="st2" d="M59.3,374.36c-3.43-1.57-.73-4.96,1.47-4.31,1.42.42,2.45,2.55,1.29,3.73-.79.81-1.75.75-2.76.58Z"/>
    <path id="path88" class="st2" d="M62.32,380.95c-3.45-.66-1.26-4.7.94-4.53,1.37.1,2.26,1.81,1.66,3.01-.54,1.07-1.49,1.41-2.59,1.52Z"/>
    <path id="path89" class="st2" d="M757.53,575.46c-3.07-2.01,2.14-5.21,3.69-4.79,1.31.35,1.38,1.79.69,2.76-.99,1.39-2.72,2.12-4.38,2.03h0Z"/>
    <path id="path90" class="st2" d="M131.54,412.93c-3.9-.25-2.13-6.51.75-4.88,1.65.93,2.08,4.06-.75,4.88Z"/>
    <path id="path91" class="st2" d="M780.25,626.93c-3.22-.45-.88-4.06.54-4.09,1.44-.02,2.79,2.19,1.87,3.39-.48.62-1.69.64-2.41.69h0Z"/>
    <path id="path92" class="st2" d="M478.31,628.47c-1.82-.96-.37-3.34.78-4.34,2.33-2.02,3.44-.75,5.24-1.24,1-.27,1.9-1.02,2.96-.94.84.06,4.8,2.41,3.08,3.49l-2.11.69-2.76,1.28c-1.15.38-2.26.32-3.44.48-1.28.18-2.46.62-3.76.56h0Z"/>
    <path id="path93" class="st2" d="M633.86,681.68c-3.51-.49-1.73-3.57.38-3.58,1.43,0,2.25,1.6,1.47,2.74-.49.71-1.08.75-1.85.84Z"/>
    <path id="path94" class="st2" d="M661.67,687.61c.62.28,2.31.96,2.63,1.32.72.83.04,3.6-1.06,3.9-1.84.5-1.71-1.84-1.79-2.87-.04-.51-.18-1.01,0-1.51.03-.49.18-.59.23-.84h0Z"/>
    <path id="path95" class="st2" d="M566.14,669.56c-2-.23-2.4-1.32-3.84-2.5-1.13-.92-2.68-1.59-2.72-3.3-.02-1.33,2.09-3.88,3.5-2.91.75.51,1.43,2.21,1.59,3.09.09.46.02,1.28.31,1.64.74.92,2.09-.76,3.47-.15.95.42,1.16,1.56.71,2.43-.6,1.16-1.84,1.53-3.03,1.69h0Z"/>
    <path id="path96" class="st2" d="M536.82,663.39c-3.76-.61-3.9-5.85.53-5.26,3.5.47,3.77,4.74-.53,5.26Z"/>
    <path id="path97" class="st2" d="M631.42,693.97c-3.81-.59-2.86-3.56-1.5-5.96,1.78-3.13,2.61-4.57,6.44-3.36,1.57.5,2.89,2.19,1.8,3.77-.45.65-1.23.84-1.54,1.44-.31.59.03,1.32-.25,2.01-.64,1.56-3.46,2.07-4.95,2.1h0Z"/>
    <path id="path98" class="st2" d="M508.59,662.83c-2.87.12-3-3.77-1.36-4.26,1.77-.54,3.67,2.84,1.36,4.26Z"/>
    <path id="path99" class="st2" d="M654.55,702.9c-2.28-.17-1.86-1.66-.64-1.83,1.27-.18,2.81,1.18.64,1.83Z"/>
    <path id="path100" class="st2" d="M502.07,662.55c-2.25-.14-2.8-3.83-.82-4.32,2.39-.59,3.3,3.09.82,4.32Z"/>
    <path id="path101" class="st2" d="M626.39,696.63c-1.83-.2-4.42-3.23-6.38-3.84-1.29-.4-2.63.33-3.47-.36-1.06-.86-.42-3.38,1.53-3.55,1.66-.15,2.6,1.5,3.67,1.97,1.38.61,3.01-.53,4.41,1.38.85,1.16,1.75,3.51.24,4.4h0Z"/>
    <path id="path102" class="st2" d="M471.33,658.39c-2.12-.21-2.18-2.69-.58-3.07,1.66-.39,2.84,2.05.58,3.07Z"/>
    <path id="path103" class="st2" d="M650.94,717.14c-1.31-.22-1.41-1.27-1.53-2.47-.21-2.09,1.06-3.94,3.16-4.38,1.65-.34,2.15.67,1.81,2.12-.38,1.63-1.89,4.07-3.44,4.73h0Z"/>
    <path id="path104" class="st2" d="M601.43,707.93c-1.12-.48-2.01-2.14-1.28-3.32.92-1.49,3.23-.25,4.38-.86.89-.47.79-1.76,1.85-1.64,1.25.15,1.74,1.7,1.23,2.7-.69,1.33-2.13,1.08-3.3,1.64-1.3.62-1.28,1.25-2.88,1.49h0Z"/>
    <path id="path105" class="st2" d="M478.75,689.93c-1.7.05-2.59-.94-1.93-2.62.55-1.4,2.61-3.82,4.1-4.23,2.52-.7,2.65,1.77,2.02,3.49-.65,1.78-2.49,2.8-4.19,3.37h0Z"/>
    <path id="path106" class="st2" d="M479.36,704.24c-2.19.1-3.62-1.64-1.99-2.22.55-.2,2.69-.56,3.18-.23,1.24.81-.42,2.13-1.19,2.46h0Z"/>
    <path id="path107" class="st2" d="M543.78,730.53c-.42-.05-.6.07-1.02-.28-.51-.28-.62-.83-.36-1.35.31-.63,1.2-1.09,1.72-1.93l1.49-4.11c.2-.54.34-1.3.93-1.55.75-.32,3.58.44,2.95,2.31-.21.6-1.03,1.41-1.4,2.02l-.81,1.59c-.67,1.04-2.37,2.74-3.48,3.31h0Z"/>
    <path id="path108" class="st2" d="M498.05,719.68c-1.38-.34-2.25-1.17-2.55-2.62-.26-1.26.38-2.81,1.87-2.63l1.4.38c1.51.43,2.36.24,3.82,1.42.69.56,1.24,1.44.68,2.31-.75,1.17-3.94,1.19-5.23,1.14h0Z"/>
    <path id="path109" class="st2" d="M538.44,736.83c-1.51-.51-.98-1.57-.3-1.6.74-.03,1.61,1.14.3,1.6Z"/>
  </g>
  <g id="Concrete">
    <path id="path110" class="st5" d="M304.05,400.28c-1.53,0-4.54-1.01-6.16-1.45l-60.24-16.38c-.96-.26-3.69-.83-4.27-1.51-.66-.78-.17-2.07.07-2.94l23.39-86.02c.78-2.84,1.07-3.01,3.92-2.24l64.17,17.44c.96.26,3.69.83,4.27,1.51.66.78.17,2.07-.07,2.94l-22.63,83.22c-.26.97-1.05,4.32-1.56,4.92-.36.43-.45.34-.89.51h0Z"/>
    <path id="path111" class="st5" d="M554.97,472.33l-62.84-17.45c-.96-.26-3.69-.83-4.27-1.51-.66-.78-.17-2.06.07-2.94l20.5-74.4,1.68.46,6.09-22.42-1.68-.46,8.96-33.42,1.04-1.9,2.73.22,34.33,9.93,5.86-22.46-4.76-1.3,6.41-21.67,34.93,9.55,1.55.9-.43,2.71-.84-.23-32.74,118,.84.23-1.98,7.29-1.4-.38-14.03,51.25Z"/>
    <path id="path112" class="st5" d="M744.21,574.63c-1.74.1-5.25-1.12-7.08-1.62l-71.45-19.43c-2.33-.68-2.78-2.37-3.93-4.38-1.34-2.34-1.72-2.49-1.02-5.09l3.58-13.17c.75-2.75,1.35-2.67,3.82-4.08,2.47-1.41,2.7-1.97,5.45-1.23l75.94,20.64c2.58.72,2.72,1.85,4,4.1,1.41,2.47,1.97,2.7,1.23,5.45l-3.58,13.17c-.16.59-.35,1.43-.7,1.91-.76,1.07-4.92,3.27-6.25,3.71Z"/>
    <path id="path113" class="st5" d="M583.3,534.5l19.61,5.33c3.29.9,3.32,2.15,2.5,5.19l-4.04,14.85c-.43,1.6-.95,4.68-2.29,5.66-1.48,1.07-3.95.47-5.57.03l-182.14-49.52c-.82-.23-1.73-.46-2.13-1.31-.39-.83.01-1.98.24-2.81l5.48-20.17c.35-1.19.72-2.05,2.11-2.21.84-.1,3.06.61,3.97.86l7.85,2.13c1.09-4,.89-4.85,3.82-4.08l14.85,4.04c2.45.68,2.38,1.18,1.76,3.49l-.53,1.96,41.75,11.35c.27-1.01.84-3.98,1.7-4.47.68-.39,1.76,0,2.48.19l11.21,3.05c.27-1.01.84-3.98,1.7-4.47.68-.39,1.76,0,2.47.21l12.6,3.43c2.29,1.07-.1,3.24.66,4.89.43.93,1.57,1.12,2.46,1.36l8.12,2.21c.76.21,1.77.4,2.06,1.25.26.78-.66,3.56-.91,4.47l28.02,7.62c.3-1.11.8-4.2,1.94-4.58.61-.2,1.62.13,2.23.3l15.13,4.11c2.68.78,1.94,1.72.87,5.65h0Z"/>
    <path id="path114" class="st5" d="M549.11,593.82l36.99,10.06c.85.25,1.5.43,1.99,1.23.74,1.21.29,2.56-.05,3.81l-4.04,14.85c-.43,1.6-.95,4.68-2.29,5.66-1.48,1.07-3.95.47-5.57.03l-182.13-49.52c-.82-.23-1.73-.46-2.13-1.31-.39-.83.01-1.98.24-2.82l5.33-19.61c.82-3.01,1.66-3.15,4.56-2.37l23.54,6.4,1.6-5.88-20.46-5.56c-1.5-.41-5.69-1.06-6.15-2.64-.22-.74.14-1.81.34-2.55l5.33-19.62c.83-3.01,1.66-3.15,4.56-2.37l179.05,48.68c1.13.31,5.72,1.42,6.39,1.92.46.34.73.74.9,1.29.34,1.05-.04,2.18-.32,3.21l-4.04,14.85c-.44,1.6-.95,4.68-2.29,5.66-1.48,1.07-3.95.47-5.57.03l-34.19-9.29-1.6,5.88ZM429.75,561.36l115.17,31.31,1.6-5.88-115.17-31.31-1.6,5.88Z"/>
    <path id="path115" class="st5" d="M381.13,636.91l-6.16-1.37-1.67-.94.19-2.48,8.61-31.66.94-1.67,2.48.19,3.92,1.07,1.67.94-.21,2.47-8.91,32.77-.86.68Z"/>
    <path id="path116" class="st5" d="M430.79,664.56c-1.45.14-4.63-.92-6.16-1.37-.6-.17-1.34-.35-1.67-.94-.39-.68,0-1.76.19-2.48l12.34-45.39c.18-.66.37-1.59,1.01-1.95.69-.39,1.76,0,2.48.19l3.36.91c.71.2,1.84.4,2.23,1.09.39.68,0,1.76-.19,2.48l-11.96,43.99c-.35,1.3-.44,2.72-1.64,3.46h0Z"/>
  </g>
  <g id="Bunker_entr">
    <path id="path117" class="st4" d="M681.51,377.92l-3.36-7.24c-.33-.81-1.07-3.13-1.64-3.7-.4-.24-1.83-.54-2.38-.65l-6.44-1.75-5.67-1.28c-2.75-.73-3.44.47-5.58,2.09l-4.68,3.54-1.45-1.3,6.82-9.58,21.58,5.86,2.06.86,2.24,6.62.8,3.53-2.29,2.99Z"/>
    <path id="path118" class="st4" d="M771.32,406.28c1.8-2.17,2.22-1.61,4.64-1.58l3.34-.1c1.03.01,2.61-.19,3.41.56.69.64,2.18,4.97,2.6,6.11l5.16,13.44c.4,1.07,1.83,4.65,1.75,5.59-.1,1.12-1.66,2.01-2.51,2.63l-3.96,2.84c-.54.39-1.33,1.02-2.02,1.05-.71.03-1.29-.48-1.81-.89l2.28-3.89,2.12-3.34-1.06-4.8-2.81-9.79-1.82-4.7-2.92-1.11-2.17-.87-4.2-1.14Z"/>
    <path id="path119" class="st4" d="M117.41,334.32l-.97-2.07,1.33-2.95,3.33-6.32,10.15.31,13.16.31,3.04,6.54c.83,1.74,1.54,2.56.61,4.38l-3.64-4.33-2.29-2.64-4.46-.2-9.95.09-4.77.38-2.24,2.57-3.29,3.92Z"/>
    <path id="path120" class="st4" d="M86.39,507.14c-.1.77-.08,1.32-.71,1.89-.59.54-2.08,1.01-2.87,1.32-2.46.95-4.73,2.56-7.28,1.3-1.58-.78-4.46-5.27-5.65-6.89l-6.15-8.35c-1.28-1.74-2.51-2.36-1.74-4.62.37-1.07.7-1.27,1.08-2.11l.96-2.75c.94-1.63,2.79-2.28,4.51-2.69l-2.13,7.85c-.56,2.23.42,2.93,1.75,4.65l3.77,4.94c.7.91,3.11,4.35,3.93,4.69.64.27,2.66.23,3.46.26l7.08.53Z"/>
    <path id="path121" class="st4" d="M571.36,661.72l-84.06-22.85,3.4-12.5,9.25,2.51-.31,1.12,17.37,4.72.23-.84,34.75,9.45-.3,1.12,17.65,4.8.3-1.12,5.04,1.37-3.32,12.22Z"/>
    <path id="path122" class="st4" d="M663.72,686.23l-80.7-21.94,3.32-12.22,80.7,21.94-3.32,12.22Z"/>
  </g>
  <g id="Buildings">
    <path id="path123" class="st4" d="M424.46,123.68c-2.05-.24-1.97-1.77-2.59-3.5-.75-2.52-1.92-4.36,1.42-5.22.38-.15.78-.23,1.19-.23,2.21,0,2.76,3.19,3.22,4.94.2.75.44,1.67.08,2.42-.53,1.11-2.23,1.44-3.33,1.6h0Z"/>
    <path id="path124" class="st4" d="M410.93,137.86l-.08-11.59,13.41.05v11.74s-13.33-.21-13.33-.21Z"/>
    <path id="path125" class="st4" d="M393.05,136.16l-4.49-.14-.02-11.62h7.74l-.03,8.31-3.2,3.45Z"/>
    <path id="path126" class="st4" d="M456.95,157.59l-26.97.17-.35-26.98,7.54-.06-.15-25.17,19.8-.12.12,52.16Z"/>
    <path id="path127" class="st4" d="M388.97,153.18v-11.17h3.62s3.69,3.38,3.69,3.38v7.84s-7.31-.05-7.31-.05Z"/>
    <path id="path128" class="st4" d="M543.7,259.53l-10.93-2.97,3.5-12.89,10.93,2.97-3.5,12.89Z"/>
    <path id="path129" class="st4" d="M682.07,321.55l-5.74-1.51,1.98-7.28,5.74,1.51-1.98,7.29Z"/>
    <path id="path130" class="st4" d="M866.92,377.71l-11.13-3.12,2.77-10.33,11.13,3.12-2.77,10.33Z"/>
    <path id="path131" class="st4" d="M563.36,295.34l-7.46-.22.25-5.35,7.46.22-.25,5.35Z"/>
    <path id="path132" class="st4" d="M561.57,328.43l-51.07-14.77,2.8-9.88,22.42,5.92,3.39-11.42,28.31,7.69-5.86,22.46Z"/>
    <path id="path133" class="st4" d="M228.35,248.42l-5.6-1.52,1.98-7.28,5.6,1.52-1.98,7.29Z"/>
    <path id="path134" class="st4" d="M367.77,292.35l-8.41-2.29,2.59-9.53,8.41,2.29-2.59,9.53Z"/>
    <path id="path135" class="st4" d="M335.82,285.34l-73-19.91,5.67-21.25,72.97,19.48-5.65,21.68Z"/>
    <path id="path136" class="st4" d="M510.1,376.48l-21.3-5.79,3.94-12.23-9.23-2.41,2.72-9.73,9.32,2.63,20.65,5.11-6.09,22.42Z"/>
    <path id="path137" class="st4" d="M600.34,420.55l-26.82-7.34,31.84-118.28,26.75,7.27-31.77,118.35Z"/>
    <path id="path138" class="st4" d="M432.75,386.51c-.58-.05-.85.03-1.39-.38-.95-.57-2.24-3.71-2.81-4.81l-2.96-5.83c-.36-.77-.83-1.69-.46-2.55.46-1.06,2.18-1.67,3.17-2.17.7-.35,1.56-.87,2.35-.91,2.06-.13,3.46,4.19,4.26,5.74l2.56,5.16c.46.96,1.03,1.82.46,2.88-.46.86-1.96,1.48-2.83,1.92-.98.5-1.29.64-2.37.95Z"/>
    <path id="path139" class="st4" d="M315.38,356.64l-6.45-1.75,2.9-10.65,6.45,1.75-2.9,10.65Z"/>
    <path id="path140" class="st4" d="M450.09,393.57l-7.29-1.98,4.04-14.85,7.29,1.98-4.04,14.85Z"/>
    <path id="path141" class="st4" d="M74.25,316.67l-3.76-.9.94-3.75,3.85.93-1.02,3.72Z"/>
    <path id="path142" class="st4" d="M211.96,360.88l-21.75-5.89,19.12-72.7,22.35,6.01-19.73,72.58Z"/>
    <path id="path143" class="st4" d="M394.62,423.74l-36.24-9.68,3.75-13.53-21.05-5.6,11.4-43.93,15.78,4.5,2.86-10.18,55.89,14.98-9.61,35.47-8.28-2.31-3.74,14.07-5.87-1.88-4.88,18.09Z"/>
    <path id="path144" class="st4" d="M488.44,451.67l-33.15-8.96,13-48.61,10,2.71,3.13-11.61,17.83,4.87-3.27,11.15,5.14,1.64-12.69,48.82Z"/>
    <path id="path145" class="st4" d="M592.27,479.92l-33.16-9.23,12.81-49.21,33.22,9.22-12.86,49.22Z"/>
    <path id="path146" class="st4" d="M186.37,387.91l-5.93-1.53,2.67-9.89,5.93,1.53-2.67,9.89Z"/>
    <path id="path147" class="st4" d="M810.74,556.42l-3.58-.98.99-3.68,3.76.94-1.17,3.73Z"/>
    <path id="path148" class="st4" d="M379.55,468.7l-52.85-14.13,6.25-23,52.85,14.22-6.25,22.9Z"/>
    <path id="path149" class="st4" d="M639.51,541.36l-18.77-5.1,3.5-12.89,18.77,5.1-3.5,12.89Z"/>
    <path id="path150" class="st4" d="M506.49,508.2l-4.76-1.3,1.37-5.04,4.76,1.3-1.37,5.04Z"/>
    <path id="path151" class="st4" d="M262.73,452.47l-60.23-16.91,3.35-10.78-11.56-3.34,7.34-25.55,8.83,2.44,1.39-5.2,8.41,2.29-1.63,5.21,35.83,9.82,1.58-5.16,8.04,2.29-1.48,5.21,37.37,10.22-9.57,34.72-27-7.52-.66,2.26Z"/>
    <path id="path152" class="st4" d="M502.31,540.17l-43.43-11.81,6.93-25.5,43.43,11.81-6.93,25.5Z"/>
    <path id="path153" class="st4" d="M552.47,553.8l-43.43-11.81,6.93-25.5,43.43,11.81-6.93,25.5Z"/>
    <path id="path154" class="st4" d="M493.78,571.55l-43.43-11.81,6.93-25.5,43.43,11.81-6.93,25.5Z"/>
    <path id="path155" class="st4" d="M543.86,585.47l-43.43-11.81,6.93-25.5,43.43,11.81-6.93,25.5Z"/>
    <path id="path156" class="st4" d="M771.54,671.14l-10.93-2.97,2.67-9.81,10.93,2.97-2.67,9.81Z"/>
    <path id="path157" class="st4" d="M307.62,553.44l-15.13-4.11,2.21-8.13,15.13,4.11-2.21,8.13Z"/>
    <path id="path158" class="st4" d="M485.02,603.77l-43.43-11.81,6.93-25.5,43.43,11.81-6.93,25.5Z"/>
    <path id="path159" class="st4" d="M535.18,617.41l-43.43-11.81,6.93-25.5,43.43,11.81-6.93,25.5Z"/>
    <path id="path160" class="st4" d="M729.05,670.01l-66.51-17.74,4.57-15.98-5.93-1.63,1.28-4.41,5.74,1.6,3.25-12.26-10.05-2.92,2.88-11.67,10.3,2.77,5.89-21.73,60.72,16.36-6.39,22.21,10.67,2.73-2.98,11.04-10.31-2.88-6.23,22.91,5.92,1.43-2.81,10.15Z"/>
    <path id="path161" class="st4" d="M295.97,575.25l-10.09-2.74,1.58-4.69,9.81,2.67-1.3,4.76Z"/>
    <path id="path162" class="st4" d="M319.86,599.2l-23.54-6.4,3.89-14.29,23.54,6.4-3.89,14.29Z"/>
    <path id="path163" class="st4" d="M354.32,608.57l-23.54-6.4,3.89-14.29,23.54,6.4-3.89,14.29Z"/>
    <path id="path164" class="st4" d="M158.68,564.51l-6.2-6.5,6.21-5.81,6.35,6.53-6.35,5.79Z"/>
    <path id="path165" class="st4" d="M17.12,541.85l-9.98-2.76,2.92-11.08,9.98,2.76-2.92,11.08Z"/>
    <path id="path166" class="st4" d="M256.68,610.22l-23.08-8.86,4.11-15.46,13.78,3.66,1.71-6.37,10.09,2.74-6.6,24.29Z"/>
    <path id="path167" class="st4" d="M744.46,746.49l-17.2-4.72,10.91-40.52,5.81,1.8.57-1.74,11.31,3.13-11.4,42.06Z"/>
    <path id="path168" class="st4" d="M289.4,638.16l-12.05-3.28,3.05-11.21,12.05,3.28-3.05,11.21Z"/>
    <path id="path169" class="st4" d="M715.33,771.86l-41.62-11.15,4.72-17.37,40.19,10.76-1.82,6.18,1.69.52-3.15,11.05Z"/>
    <path id="path170" class="st4" d="M742.73,794.81l-12.05-3.28,3.12-11.49,12.05,3.28-3.12,11.49Z"/>
    <path id="path171" class="st4" d="M455.85,718.75l-10.27-2.85,2.97-11.11,10.27,2.85-2.97,11.11Z"/>
    <path id="path172" class="st4" d="M568.6,750.17l-8.41-2.29,2.06-7.57,8.41,2.29-2.06,7.57Z"/>
  </g>
  <g id="Misc">
    <path id="path173" class="st4" d="M431.6,271.18l-7.57-2.06,1.22-4.48,7.57,2.06-1.22,4.48Z"/>
    <path id="path174" class="st4" d="M471.35,291.01l-3.64-.99,2.51-9.25,3.64.99-2.51,9.25Z"/>
    <path id="path175" class="st4" d="M480.59,293.53l-3.64-.99,2.51-9.25,3.64.99-2.51,9.25Z"/>
    <path id="path176" class="st4" d="M436.22,286.28l-3.92-1.07,4.04-14.85,3.92,1.07-4.04,14.85Z"/>
    <path id="path177" class="st4" d="M442.11,287.88l-3.92-1.07,4.04-14.85,3.92,1.07-4.04,14.85Z"/>
    <path id="path178" class="st4" d="M447.99,289.48l-3.92-1.07,4.04-14.85,3.92,1.07-4.04,14.85Z"/>
    <path id="path179" class="st4" d="M467.39,305.59l-3.64-.99,2.51-9.25,3.64.99-2.51,9.25Z"/>
    <path id="path180" class="st4" d="M476.63,308.1l-3.64-.99,2.51-9.25,3.64.99-2.51,9.25Z"/>
    <path id="path181" class="st4" d="M425.28,294.44l-7.57-2.06,1.22-4.48,7.57,2.06-1.22,4.48Z"/>
    <path id="path182" class="st4" d="M554.88,361.3l-6.47-.56c-.72-.05-2.13-.08-2.6-.7-.93-1.26.39-2.91.65-4.06.19-.84-.15-1.52.29-3.51l9.35,1.04-.13,4.45-1.09,3.34ZM556.68,352.46l-6.47-.56c-.72-.05-2.13-.08-2.59-.71-.5-.67-.1-2.51.07-3.29l9.35,1.04-.35,3.51Z"/>
    <path id="path183" class="st4" d="M473.47,369.53l-9.3-.12.35-3.52,9.3.12-.35,3.51Z"/>
    <path id="path184" class="st4" d="M541.8,431.44l-8.97-2.44.92-3.38c-.5-.04-1.17-.05-1.54-.42-.62-.67-.58-2.73.29-3.19.48-.25,2.02-.28,2.62-.31,2.09-.12,4.25-.44,6.32.01l-.35,3.51-7.33.41,8.97,2.44-.91,3.36Z"/>
    <path id="path185" class="st4" d="M534.14,451.33l-4.05,7.39-3.41-1.82,4.09-7.23,3.37,1.66Z"/>
    <path id="path186" class="st4" d="M526.32,459.34l-3.69-.72,1.25-8.22,3.69.53-1.25,8.42Z"/>
    <path id="path187" class="st4" d="M678.74,538.57l-7.85-2.13,1.14-4.2,7.85,2.13-1.14,4.2Z"/>
    <path id="path188" class="st4" d="M751.07,559.35l-7.85-2.13,1.14-4.2,7.85,2.13-1.14,4.2Z"/>
    <path id="path189" class="st4" d="M676.69,546.66l-7.85-2.13,1.14-4.2,7.85,2.13-1.14,4.2Z"/>
    <path id="path190" class="st4" d="M748.86,567.48l-7.85-2.13,1.14-4.2,7.85,2.13-1.14,4.2Z"/>
    <path id="path191" class="st4" d="M690.55,552.82l-4.48-1.22,4.11-15.13,4.48,1.22-4.11,15.13Z"/>
    <path id="path192" class="st4" d="M696.44,554.42l-4.49-1.22,4.11-15.13,4.48,1.22-4.11,15.13Z"/>
    <path id="path193" class="st4" d="M702.32,556.02l-4.49-1.22,4.11-15.13,4.48,1.22-4.11,15.13Z"/>
    <path id="path194" class="st4" d="M717.74,560.21l-4.48-1.22,4.11-15.13,4.48,1.22-4.11,15.13Z"/>
    <path id="path195" class="st4" d="M723.62,561.81l-4.48-1.22,4.11-15.13,4.48,1.22-4.11,15.13Z"/>
    <path id="path196" class="st4" d="M729.5,563.41l-4.48-1.22,4.11-15.13,4.48,1.22-4.11,15.13Z"/>
    <path id="path198" class="st4" d="M421.14,573.15c-1.7-.06-2.5-2.22-1.81-3.18.36-.5,1.28-1,1.82-1.31,1.03-.6,3.89-2.34,4.9-2.52,1.8-.33,2.8,2.24,2.09,3.22-.68.94-5.74,3.39-6.99,3.8Z"/>
    <path id="path199" class="st4" d="M268.89,543.16c-1.88-.33-2.92-2.97-3.91-4.45-.42-.64-1.04-1.53-1.16-2.29-.18-1.13,1.11-2.3,2.16-2.38,1.12-.08,2.03,1.76,2.58,2.59l1.48,2.3c1.45,2.21,1.94,3.33-1.15,4.24h0Z"/>
    <path id="path200" class="st4" d="M265.38,565.46c-1.25-.12-2.81-1.71-2-2.98.34-.54,1.42-1.13,1.97-1.5.82-.53,4.05-2.82,4.81-2.98,1.23-.27,2.86,1.89,1.93,3.15-.35.46-1.63,1.24-2.15,1.58-1.38.88-3.04,2.21-4.55,2.73h0Z"/>
    <path id="path201" class="st4" d="M408.17,617.49l-3.36-.91,2.44-8.97,3.36.91-2.44,8.97Z"/>
    <path id="path202" class="st4" d="M405.66,626.73l-3.36-.91,2.44-8.97,3.36.91-2.44,8.97Z"/>
    <path id="path203" class="st4" d="M409.58,627.8l-3.36-.91,2.44-8.97,3.36.92-2.44,8.97Z"/>
    <path id="path204" class="st4" d="M400.52,640.08l-3.36-.91,2.44-8.97,3.36.91-2.44,8.97Z"/>
    <path id="path205" class="st4" d="M396.45,639.58l-3.36-.91,2.44-8.97,3.36.91-2.44,8.97Z"/>
    <path id="path206" class="st4" d="M393.06,656.51c-1.66-.65-1.13-3.1-.39-3.49.48-.26,1.73-.25,2.3-.26l5.4.03c1.71.34,1.58,3.11.45,3.54-.68.26-6.72.26-7.76.18h0Z"/>
    <path id="path207" class="st4" d="M360.24,649.9l-6.9-.07c-.02-.85-.18-3.11.31-3.74.57-.74,3.81-.62,4.78-.58.52,0,1.15,0,1.52.41.52.61.38,3.17.29,3.98Z"/>
    <path id="path208" class="st4" d="M393.11,660.74c-1.66-.65-1.12-3.1-.39-3.49.48-.26,1.73-.25,2.3-.26l5.4.03c1.71.34,1.58,3.11.45,3.54-.68.26-6.72.26-7.76.18h0Z"/>
  </g>
</svg>