<?xml version="1.0" encoding="UTF-8"?>
<svg id="Discord.gg-_x40_marazm" xmlns="http://www.w3.org/2000/svg" version="1.1" viewBox="0 0 847.2 784.8">
  <!-- Generator: Adobe Illustrator 30.1.0, SVG Export Plug-In . SVG Version: 2.1.1 Build 136)  -->
  <defs>
    <style>
      .st0 {
        fill: #777;
      }

      .st1 {
        fill: none;
        stroke: #000;
        stroke-width: 1.2px;
      }

      .st2 {
        fill: #987f00;
      }

      .st3 {
        fill: #363636;
      }
    </style>
  </defs>
  <g id="Second_Floor">
    <g id="Floor-2">
      <path class="st3" d="M256.8,200.4h6v-7.8h17.4v85.2h-29.4v-77.4h6Z"/>
      <path class="st3" d="M755.4,307.2h-12.6v7.8h-60v111h12.6v-7.8h60v-111h0ZM742.8,354v27h-47.4v-27h47.4Z"/>
      <path class="st3" d="M646.2,439.8v60.6h-34.8v-60.6h34.8Z"/>
      <path class="st3" d="M669.6,151.8h-58.2v30h-2.4v-34.8h-19.2v39.6h-1.2v-75h-71.4v12h-15.6v-12h-48.6v75h-1.2v-39h-19.2v38.4h-1.8v-20.4h-120v32.4h120.6v-1.2h1.8v1.8h19.2v-6h1.2v6h135v-6h1.2v6h19.2v-10.2h2.4v4.8h10.8v-16.2h47.4v-25.2h0ZM539.4,132.6v54h-37.2v-54h7.2v1.2h-6v25.2h17.4v-25.2h-4.8v-1.2h23.4Z"/>
      <path class="st3" d="M609,504.6v-56.4h-17.4v55.8h9v2.4h-3.6v19.8h-1.2v-19.8h-55.8v45.6h4.8v1.2h-4.8v19.8h4.8v1.8h-4.8v42.6h31.2v-5.4h1.8v5.4h34.2v-72h-1.2v-1.2h1.2v-37.8h-1.2v-1.8h3ZM600.6,544.2v1.2h-3v8.4h-7.2v19.2h7.2v28.2h-24.6v5.4h-1.8v-31.8h-21v-1.8h2.4v-19.8h-2.4v-1.2h45v-19.8h1.2v12.6c0-.6,4.2-.6,4.2-.6Z"/>
    </g>
    <g id="Obstacles-2">
      <path class="st0" d="M557.4,127.8v64.2h-4.8v-64.2h4.8Z"/>
      <path class="st0" d="M574.8,126v59.4h-4.8v-59.4h4.8Z"/>
      <path class="st0" d="M588.6,130.8v51.6h-2.4v-51.6h2.4Z"/>
      <path class="st0" d="M488.4,125.4v28.2h-3.6v-28.2s3.6,0,3.6,0Z"/>
      <path class="st0" d="M488.4,169.2v28.2h-3.6v-28.2h3.6Z"/>
      <path class="st0" d="M471,169.2v28.2h-3v-28.2h3Z"/>
      <path class="st0" d="M471,125.4v28.2h-3v-28.2s3,0,3,0Z"/>
      <path class="st0" d="M456,130.2v46.8h-2.4v-46.8h2.4Z"/>
      <path class="st0" d="M502.2,148.2v10.2h-2.4v-10.2h2.4Z"/>
    </g>
    <g id="Stairs-2">
      <g id="Stairs-2-down">
        <path id="stair-62" class="st2" d="M669,168v-16.2h25.2v16.2"/>
        <path id="stair-63" class="st2" d="M323.4,148.2v17.4h-7.8v-17.4"/>
        <path id="stair-130" class="st2" d="M413.4,148.2v17.4h-7.8v-17.4"/>
        <path id="stair-131" class="st2" d="M591.6,504.6v-8.4h-22.2v8.4h22.2Z"/>
        <path id="stair-132" class="st2" d="M610.8,500.4v7.2h33v-7.2h-33Z"/>
        <path id="stair-140" class="st2" d="M279.6,199.8v-7.8h-17.4v7.8h17.4Z"/>
        <path id="stair-141" class="st2" d="M279.6,286.2v-7.8h-17.4v7.8h17.4Z"/>
        <path id="stair-155" class="st2" d="M721.8,315h20.4v-7.2h-20.4v7.2Z"/>
        <path id="stair-226" class="st2" d="M694.2,426h21.6v-7.2h-21.6v7.2Z"/>
        <path id="stair-135" class="st2" d="M457.2,72v19.2h-8.4v-19.2h8.4Z"/>
        <path id="stair-134" class="st2" d="M589.8,553.8h-34.8v18.6h34.8v-18.6ZM583.2,562.8v1.2h-21.6v-1.2h21.6Z"/>
        <path class="st2" d="M510.6,146.4c.6.6,1.8.6,2.4.6s0,1.2,0,1.2c.6,1.8-.6,3-1.2,4.8-.6,1.2,0,2.4-1.2,3-.6,0-1.2,1.2-2.4.6-.6,0-.6-.6-1.2-1.2s-.6-1.2-1.2-1.8c0-.6.6-3,.6-3.6s0-3,1.2-4.2c.6,0,2.4.6,3,.6h0Z"/>
      </g>
      <g id="Stairs-2-up">
        <path id="stair-127" class="st2" d="M609,181.8v-37.8h-19.2v38.4h19.2v-.6ZM600,172.8h-1.2v-19.8h1.2v19.8Z"/>
        <path id="stair-128" class="st2" d="M452.4,181.8v-37.8h-19.2v38.4h19.2v-.6ZM442.8,172.8h-1.2v-19.8h1.2v19.8Z"/>
        <path id="stair-69" class="st2" d="M179.4,109.2h-36.6v16.2h36.6v-16.2ZM172.8,117v.6h-22.8v-.6h22.8Z"/>
        <path id="stair-96" class="st2" d="M430.8,85.2h-34.8v16.2h34.8v-16.2ZM423.6,93v.6h-21.6v-.6h21.6Z"/>
        <path id="stair-97" class="st2" d="M286.8,312.6h-36v16.2h36v-16.2ZM279.6,320.4v.6h-22.2v-.6h22.2Z"/>
        <path id="stair-100" class="st2" d="M286.8,421.8h-36v16.2h36v-16.2ZM279.6,429.6v.6h-22.2v-.6h22.2Z"/>
        <path id="stair-101" class="st2" d="M716.4,580.2v-34.8h-16.2v34.8h16.2ZM708.6,573.6h-.6v-21.6h.6v21.6Z"/>
        <path id="stair-129" class="st2" d="M586.2,280.2h-36.6v16.2h36.6v-16.2ZM579,288v.6h-22.2v-.6h22.2Z"/>
      </g>
    </g>
    <g id="Wall-2">
      <path class="st1" d="M656.4,168h3v-16.8"/>
      <path class="st1" d="M648,168h-33.6v-16.8"/>
      <path class="st1" d="M511.8,139.8h8.4"/>
      <path class="st1" d="M511.8,146.4h8.4"/>
      <path class="st1" d="M511.8,153.6h8.4"/>
      <path class="st1" d="M517.2,123.6h22.2v-3"/>
      <path class="st1" d="M539.4,114.6v-3"/>
    </g>
  </g>
</svg>