<?xml version="1.0" encoding="UTF-8"?>
<svg id="Discord.gg-_x40_marazm" xmlns="http://www.w3.org/2000/svg" version="1.1" viewBox="0 0 847.2 785.4">
  <!-- Generator: Adobe Illustrator 30.1.0, SVG Export Plug-In . SVG Version: 2.1.1 Build 136)  -->
  <defs>
    <style>
      .st0 {
        fill: #777;
      }

      .st1 {
        fill: none;
        stroke: #000;
        stroke-width: 1.2px;
      }

      .st2 {
        fill: #987f00;
      }

      .st3 {
        fill: #363636;
      }

      .st4 {
        fill: #555;
      }
    </style>
  </defs>
  <g id="Ground_Floor">
    <g id="Floor">
      <path class="st3" d="M832.2,583.8h-22.8v-283.2l-17.4-2.4v49.2h-1.8v-161.4h1.8v109.2l17.4,2.4v-145.8h-17.4v29.4h-1.8v-29.4h-33V9h-38.4v142.8h-108v30h-1.8v-34.2h-19.2v39h-15v-24.6h-5.4v-1.2h5.4v-34.8h-30v34.8h17.4v1.2h-17.4v13.8h-1.8v-37.2h-45.6v36.6h-1.8v-36.6h-42.6v50.4h-.6v-42h-19.2v40.2h-1.8V19.8h-30.6v-2.4h30.6V0h-106.2v17.4h70.8v3h-115.2v-3h18V0H120v19.8h-29.4v28.2h3.6v1.8H0v39h123.6v1.8h-9.6v93.6h13.2v15.6h13.8v-9h2.4v9.6h137.4v34.8h-72v18h72v24.6h-20.4v-1.2h19.2v-22.2h-28.8v22.2h3v1.2h-3v61.8H103.8v38.4h146.4v242.4h15v146.4h38.4v-146.4h69.6v1.2h-13.8v15.6h12v1.8h-13.8v-17.4h-30v107.4h73.8l-.6-12,15.6-1.2.6,8.4,55.8-1.2,15-4.8,25.2,3.6,25.2,6.6,25.8-.6,3.6,24.6h70.8v8.4h37.2v-28.8h-40.8v-51h1.8v46.8h38.4v-118.2h67.8v102h48.6v73.8h38.4v-73.8h3.6l-1.2-127.8h0ZM795,609.6v5.4h-4.2v-5.4h1.2v-25.8h-9v-1.8h3v-3.6h4.2v-1.8h1.8v2.4h1.8v30.6h1.2ZM792,360.6v12.6h-1.8v-4.8h-4.2v-4.2h4.2v-4.2l1.8.6h0ZM792,386.4v7.8h-1.8v-7.8h1.8ZM792,410.4v6h-1.8v-6h1.8ZM792,433.2v82.2h-1.8v-82.2h1.8ZM792,531.6v6h-1.8v-6h1.8ZM792,554.4v6h-1.8v-6h1.8ZM775.2,581.4v1.8h-85.2v-1.8h85.2ZM682.8,581.4v1.8h-5.4v4.2h-5.4v-4.2h4.2v-1.8h6.6ZM646.2,494.4v6.6h-34.8v16.2h-63v30h63v19.8h-1.8v-12.6h-19.2v19.2h7.2v4.8h-1.2v-2.4h-46.2v-1.2h2.4v-20.4h-12.6v20.4h6v1.2h-6.6v17.4h-1.2v-88.8h70.8v-64.8h22.8v2.4h-20.4v55.8h32.4v-3.6h2.4ZM646.2,439.8v48.6h-2.4v-46.2h-6v-2.4h8.4ZM636,581.4v15.6h-1.8v-13.8h-6.6v-1.8s8.4,0,8.4,0ZM636,604.2v27h-103.8v-10.8h2.4v-4.8h3.6v-17.4h1.2v21.6h31.8v-34.8h24.6v-2.4h1.2v24.6h-1.2v-20.4h-23.4v33.6h23.4v-8.4h1.2v8.4h12v-47.4h1.8v9h9.6v1.8h-9.6v36h22.8v-15.6h2.4ZM636,649.2v11.4h-1.8v-9.6h-123.6v-29.4h-19.8v19.2h-3.6v-2.4h1.8v-16.8h-1.8v-1.2h27.6v28.8h121.2ZM615.6,221.4v4.2h-7.2v-25.2h-22.2v-1.8h22.2v-9.6h1.8v33l5.4-.6h0ZM615.6,364.8v4.2h-4.8v18h-1.8v-21.6h6.6v-.6ZM610.8,392.4v24h-4.8v-5.4h-67.8v5.4h-4.2v-5.4h-67.2v4.8h-4.2v-4.8h-66.6v5.4h-3.6v-4.8h-7.2v-1.8h6.6v-4.8h4.2v4.8h67.2v-4.2h4.2v4.2h67.2v-4.8h4.2v4.8h67.2v-4.8h3.6v-12l1.2-.6h0ZM590.4,5.4h-157.2v66.6h16.2v31.8h-16.2v33.6h109.2v-12.6h33.6v18.6h14.4V5.4ZM579.6,198.6v1.8h-132.6v-1.8h132.6ZM481.8,620.4v1.2h-12.6v16.8h12.6v2.4h-13.8v8.4h-36v16.8h-35.4v-27h-16.8v-1.8h16.8v-15.6h-18v-1.2h30.6s72.6,0,72.6,0ZM439.8,198.6v1.8h-131.4v-31.2h2.4v28.8h120v-3h1.8v3.6h7.2ZM327,409.8v1.8h-3v5.4h-4.2v-5.4h-1.8v-1.8h1.8v-4.8h4.2v4.8h3ZM274.8,17.4v3h-49.2v-3h49.2ZM219.6,17.4v2.4h-33v-2.4h33ZM180.6,17.4v2.4h-37.2v14.4h-1.8v-16.8h39ZM143.4,40.8v9h-40.8v-1.8h39v-7.2h1.8ZM143.4,88.8v91.2h-2.4v-89.4h-10.8v-1.8h13.2Z"/>
    </g>
    <g id="Ledge">
      <path class="st4" d="M531.6,275.4v58.8h-204.6v-58.8h204.6Z"/>
      <path class="st4" d="M587.4,473.4v9h-39.6v-9h39.6Z"/>
      <path class="st4" d="M587.4,444v9h-39.6v-9h39.6Z"/>
      <path class="st4" d="M431.4,198h-120v-28.8h120v28.8Z"/>
    </g>
    <g id="Obstacles">
      <path class="st0" d="M709.8,155.4v28.8h-10.2v-28.8s10.2,0,10.2,0Z"/>
      <path class="st0" d="M759.6,376.8v32.4h-78v-32.4s78,0,78,0Z"/>
      <path class="st0" d="M703.2,237.6v11.4h-12.6v-11.4h12.6Z"/>
      <path class="st0" d="M482.4,424.8v16.8h-33v-16.8h33Z"/>
      <path class="st0" d="M478.8,445.8l-1.8,16.8-33-3.6,1.8-16.8,33,3.6Z"/>
      <path class="st0" d="M385.8,516l-15.6,6-11.4-31.2,15.6-6,11.4,31.2Z"/>
      <path class="st0" d="M369,544.2v16.8h-33v-16.8h33Z"/>
      <path class="st0" d="M373.2,573.6v16.8h-33v-16.8h33Z"/>
      <path class="st0" d="M399,540v31.2h-16.8v-31.2h16.8Z"/>
      <path class="st0" d="M447,607.2v-15h-37.2v15h37.2Z"/>
      <path class="st0" d="M309.6,457.2l31.2-10.8-3.6-10.8-31.2,10.8,3.6,10.8Z"/>
      <path class="st0" d="M321.6,290.4l-12.6-28.8,10.2-4.2,12.6,28.8-10.2,4.2Z"/>
      <path class="st0" d="M809.4,442.2c0,1.2-.6,11.4-.6,11.4h-6l.6-11.4h6Z"/>
      <path class="st0" d="M746.4,136.2l-10.2-1.2,3.6-28.8,10.2,1.2-3.6,28.8Z"/>
      <path class="st0" d="M537.6,352.8v29.4h10.2v-29.4h-10.2Z"/>
      <path class="st0" d="M569.4,409.2l2.4-28.8-10.2-1.2-2.4,28.8,10.2,1.2Z"/>
      <path class="st0" d="M601.2,391.2h-29.4v10.2h29.4v-10.2h0Z"/>
      <path class="st0" d="M759.6,324.6v31.8h-78v-31.8h78Z"/>
      <path class="st0" d="M526.2,579.6l-3-.6v1.2h-1.2l1.2-7.8h-.6l-1.2,7.8-3-.6,1.2-7.8h-.6l-1.2,7.8h-1.2v-1.2l-3-.6-.6,6h1.2l-1.8,14.4,9.6,1.8,1.8-14.4h1.2c.6,0,1.2-6,1.2-6Z"/>
      <path class="st0" d="M462,589.2h3v-1.2h1.2v8.4h.6v-7.8h3v7.8h.6v-7.8h1.2v1.2h3v-6h-1.2l.6-15-10.8-.6-.6,15h-.6v6Z"/>
      <path class="st0" d="M514.8,552.6h3v-1.2h1.2v8.4h.6v-7.8h3v7.8h.6v-7.8h1.2v1.2h3v-6h-1.2l.6-15-10.8-.6-.6,15h-1.2c1.2,0,.6,6,.6,6Z"/>
      <path class="st0" d="M494.4,501.6l2.4-1.8-.6-1.2,1.2-.6,4.2,6.6.6-.6-3.6-6,2.4-1.8,4.2,6.6.6-.6-4.2-6.6,1.2-.6.6,1.2,3-1.8-3-4.8-1.2.6-7.8-12.6-9.6,6,7.8,12.6-1.2.6,3,4.8h0Z"/>
      <path class="st0" d="M300,201.6h-3v1.2h-1.2l-.6-7.8h-1.2l.6,7.8h-3l-.6-7.8h-.6l.6,8.4h-1.2v-1.2h-3l.6,6h1.2l1.2,14.4,10.8-1.2-1.2-15h1.2l-.6-4.8h0Z"/>
      <path class="st0" d="M203.4,70.2l1.2-3-1.2-.6.6-1.2,7.8,2.4v-.6l-7.8-2.4,1.2-3,7.2,2.4v-.6l-7.8-2.4.6-1.2,1.2.6,1.2-3-5.4-1.8-.6,1.2-14.4-4.2-3,10.8,14.4,4.2-.6.6,5.4,1.8h0Z"/>
      <path class="st0" d="M781.8,676.8l-3,.6v1.2h-1.2l-.6-7.8h-.6l.6,7.8-3,.6-.6-7.8h-.6l.6,8.4h-1.2v-1.2l-3,.6.6,6h1.2l1.2,14.4,10.8-1.2-1.2-14.4h1.2l-1.2-7.2h0Z"/>
      <path class="st0" d="M802.2,654.6l3,.6.6-1.2,1.2.6-1.8,7.8h.6l1.8-7.2,3,.6-1.8,7.8h.6l1.8-7.8,1.2.6-.6,1.2,3,.6,1.2-5.4-1.2-.6,3.6-14.4-10.8-2.4-3.6,14.4-1.2-.6-.6,5.4h0Z"/>
      <path class="st0" d="M593.4,471v14.4h-38.4v-14.4h38.4Z"/>
      <path class="st0" d="M450.6,222l1.8,2.4,1.2-.6,1.2,1.2-6,5.4.6.6,6-4.8,1.8,2.4-6,4.8.6.6,6-5.4.6,1.2-1.2.6,1.8,2.4,4.2-3.6v-1.2l11.4-9.6-7.2-8.4-11.4,9.6-1.2-1.2-4.2,3.6h0Z"/>
      <path class="st0" d="M727.8,54.6l3,1.2.6-1.2,1.2.6-3,7.2h.6l3-7.2,3,1.2-3,7.2.6.6,3-7.8,1.2.6-.6,1.2,3,1.2,2.4-5.4-1.2-.6,5.4-13.8-10.2-3.6-5.4,13.8-1.2-.6-2.4,5.4h0Z"/>
      <path class="st0" d="M773.4,266.4l-1.8-2.4-1.2.6-.6-1.2,6.6-4.8-.6-.6-6,4.8-1.8-2.4,6-4.8-.6-.6-6.6,4.8-.6-1.2,1.2-.6-1.8-2.4-4.8,3.6,1.2,1.2-12,9,6.6,9,12-9,.6,1.2c0-1.2,4.2-4.2,4.2-4.2Z"/>
      <path class="st0" d="M715.2,543.6l-1.2-3-1.2.6-.6-1.2,7.8-2.4v-.6l-7.2,2.4-1.2-3,7.2-2.4v-.6l-7.8,2.4-.6-1.2,1.2-.6-1.2-3-5.4,1.8.6,1.2-13.8,4.8,3.6,10.8,13.8-4.8.6,1.2,5.4-2.4h0Z"/>
      <path class="st0" d="M646.8,745.8l-1.2-3-1.2.6-.6-1.2,7.2-3-.6-.6-7.2,3-1.2-3,7.2-3-.6-.6-6.6,3-.6-1.2,1.2-.6-1.2-3-5.4,2.4.6,1.2-13.8,5.4,4.2,10.2,13.8-5.4.6,1.2,5.4-2.4h0Z"/>
      <path class="st0" d="M418.2,693l33,16.2-6.6,12.6-33-16.2,6.6-12.6Z"/>
      <path class="st0" d="M501.6,696.6v39h-14.4v-39h14.4Z"/>
      <path class="st0" d="M538.8,651v19.2h-13.2v-19.2h13.2Z"/>
      <path class="st0" d="M552.6,684.6l8.4,9-31.8,28.2-8.4-9,31.8-28.2Z"/>
      <path class="st0" d="M612.6,700.2h18.6v13.2h-18.6v-13.2Z"/>
      <path class="st0" d="M470.4,709.8l-19.2.6.6,12.6,19.2-.6-.6-12.6Z"/>
    </g>
    <g id="Stairs">
      <g id="Stairs-down">
        <path id="stair-1" class="st2" d="M275.4,234.6h-67.2v18h67.8v-18h-.6Z"/>
        <path id="stair-2" class="st2" d="M162,181.2v-39.6h-18v39.6h18Z"/>
        <path id="stair-3" class="st2" d="M125.4,142.8v17.4h-9v-17.4h9Z"/>
        <path id="stair-4" class="st2" d="M396.6,169.8h-18.6v8.4h18.6v-8.4Z"/>
        <path id="stair-7" class="st2" d="M276,451.2v54.6h-18v-54.6h18Z"/>
        <path id="stair-8" class="st2" d="M466.8,522.6h-49.8v18h49.8v-18Z"/>
        <path id="stair-220" class="st2" d="M547.8,517.2h61.8v30h-61.2c0-.6,0-30-.6-30Z"/>
        <path id="stair-221" class="st2" d="M612.6,591.6v17.4h7.8v-17.4h-7.8Z"/>
        <path id="stair-222" class="st2" d="M789.6,591h-8.4v17.4h8.4v-17.4Z"/>
        <path id="stair-223" class="st2" d="M471,275.4v8.4h-29.4v-8.4h29.4Z"/>
        <path id="stair-224" class="st2" d="M487.2,326.4v8.4h-29.4v-8.4h29.4Z"/>
        <path id="stair-136" class="st2" d="M808.8,322.2v17.4h-7.8v-17.4h7.8Z"/>
        <path id="stair-140" class="st2" d="M279.6,199.8v-7.8h-17.4v7.8h17.4Z"/>
        <path id="stair-138" class="st2" d="M667.2,319.2v18h7.2v-18h-7.2Z"/>
        <path id="stair-139" class="st2" d="M621.6,469.2v-17.4h-8.4v17.4h8.4Z"/>
        <path id="stair-143" class="st2" d="M399,1.2h17.4v8.4h-17.4V1.2Z"/>
      </g>
      <g id="Stairs-up">
        <path id="stair-69" class="st2" d="M179.4,109.2h-36.6v16.2h36.6v-16.2ZM172.8,117v.6h-22.8v-.6h22.8Z"/>
        <path id="stair-96" class="st2" d="M430.8,85.2h-34.8v16.2h34.8v-16.2ZM423.6,93v.6h-21.6v-.6h21.6Z"/>
        <path id="stair-97" class="st2" d="M286.8,312.6h-36v16.2h36v-16.2ZM279.6,320.4v.6h-22.2v-.6h22.2Z"/>
        <path id="stair-100" class="st2" d="M286.8,421.8h-36v16.2h36v-16.2ZM279.6,429.6v.6h-22.2v-.6h22.2Z"/>
        <path id="stair-101" class="st2" d="M716.4,580.2v-34.8h-16.2v34.8h16.2ZM708.6,573.6h-.6v-21.6h.6v21.6Z"/>
        <path id="stair-129" class="st2" d="M586.2,280.2h-36.6v16.2h36.6v-16.2ZM579,288v.6h-22.2v-.6h22.2Z"/>
        <path id="stair-62" class="st2" d="M669,168v-16.2h25.2v16.2"/>
        <path id="stair-127" class="st2" d="M609,181.8v-37.8h-19.2v38.4h19.2v-.6ZM600,172.8h-1.2v-19.8h1.2v19.8Z"/>
        <path id="stair-128" class="st2" d="M452.4,181.8v-37.8h-19.2v38.4h19.2v-.6ZM442.8,172.8h-1.2v-19.8h1.2v19.8Z"/>
        <path id="stair-63" class="st2" d="M322.8,148.2v17.4h-7.8v-17.4"/>
        <path id="stair-130" class="st2" d="M413.4,148.2v17.4h-7.8v-17.4"/>
        <path id="stair-131" class="st2" d="M591.6,504.6v-8.4h-22.2v8.4h22.2Z"/>
        <path id="stair-132" class="st2" d="M610.8,500.4v7.2h33v-7.2h-33Z"/>
        <path id="stair-140-2" class="st2" d="M279.6,199.8v-7.8h-17.4v7.8h17.4Z"/>
        <path id="stair-141" class="st2" d="M279.6,286.2v-7.8h-17.4v7.8h17.4Z"/>
        <path id="stair-155" class="st2" d="M721.8,315h20.4v-7.2h-20.4v7.2Z"/>
        <path id="stair-226" class="st2" d="M694.2,426h21.6v-7.2h-21.6v7.2Z"/>
        <path id="stair-135" class="st2" d="M457.2,72v19.2h-8.4v-19.2h8.4Z"/>
      </g>
    </g>
    <g id="Wall">
      <path class="st1" d="M366.6,39l36.6-3.6,1.2,14.4-36.6,3.6"/>
      <path class="st1" d="M323.4,50.4v36.6"/>
      <path class="st1" d="M308.4,50.4v36.6"/>
      <path class="st1" d="M258,33.6l23.4,67.2"/>
      <path class="st1" d="M243.6,38.4l24,66"/>
      <path class="st1" d="M637.8,221.4h36.6"/>
      <path class="st1" d="M637.8,235.2h36.6"/>
      <path class="st1" d="M706.8,240.6v37.2h36"/>
      <path class="st1" d="M724.2,240.6v37.2"/>
      <path class="st1" d="M706.8,285v10.2h36"/>
      <path class="st1" d="M676.2,582h-31.2"/>
      <path class="st1" d="M638.4,582h-2.4"/>
      <path class="st1" d="M66.6,49.8v8.4"/>
      <path class="st1" d="M66.6,64.8v24"/>
      <path class="st1" d="M790.8,711.6h25.2"/>
      <path class="st1" d="M129,19.2h-9"/>
      <path class="st1" d="M249.6,354.6v24"/>
      <path class="st1" d="M249.6,348v-8.4"/>
      <path class="st1" d="M273.6,621h-8.4"/>
      <path class="st1" d="M303.6,621h-23.4"/>
      <path class="st1" d="M279.6,694.2h24"/>
      <path class="st1" d="M274.2,694.2h-9"/>
      <path class="st1" d="M718.2,151.2h26.4"/>
      <path class="st1" d="M751.2,151.2h5.4"/>
      <path class="st1" d="M745.2,75h-26.4"/>
      <path class="st1" d="M751.2,75h5.4"/>
      <path class="st1" d="M611.4,344.4v-49.8"/>
      <path class="st1" d="M611.4,353.4v12"/>
      <path class="st1" d="M621.6,259.2l-4.2,36"/>
      <path class="st1" d="M630.6,296.4l4.2-36"/>
      <path class="st1" d="M574.2,195.6v3"/>
      <path class="st1" d="M574.2,189v-3"/>
      <path class="st1" d="M588,277.8v-3.6h-25.2"/>
      <path class="st1" d="M552.6,274.2h-3.6v48h39"/>
      <path class="st1" d="M596.4,322.2h15"/>
      <path class="st1" d="M568.8,304.8h42.6"/>
      <path class="st1" d="M588,287.4v16.8"/>
      <path class="st1" d="M823.8,711.6h5.4"/>
      <path class="st1" d="M291,534h10.8v76.2h-10.8"/>
      <path class="st1" d="M276,610.2h-10.8v-76.2h10.8"/>
      <path class="st1" d="M219.6,19.2h6.6"/>
      <path class="st1" d="M142.8,49.8v8.4"/>
      <path class="st1" d="M142.8,64.8v24"/>
      <path class="st1" d="M790.8,394.2v16.8"/>
      <path class="st1" d="M790.8,416.4v16.8"/>
      <path class="st1" d="M790.8,514.8v16.8"/>
      <path class="st1" d="M790.8,537.6v16.8"/>
      <path class="st1" d="M790.8,559.8v16.2"/>
      <path class="st1" d="M573.6,21l-.6-13.8,15.6-.6,1.2,36-15.6.6-.6-15.6"/>
      <path class="st1" d="M177,339.6v8.4"/>
      <path class="st1" d="M177,354.6v24"/>
    </g>
    <g id="Building">
      <path class="st0" d="M361.2,327c-5.4,0-10.8-2.4-15-6s-6-9.6-6-15,2.4-10.8,6-15,9.6-6,15-6,10.8,2.4,15,6,6,9.6,6,15-2.4,10.8-6,15c-4.2,4.2-9.6,6-15,6Z"/>
      <path class="st0" d="M493.2,327c-5.4,0-10.8-2.4-15-6s-6-9.6-6-15,2.4-10.8,6-15,9.6-6,15-6,10.8,2.4,15,6c4.2,4.2,6,9.6,6,15s-2.4,10.8-6,15-9,6-15,6Z"/>
      <path class="st0" d="M429,327c-5.4,0-10.8-2.4-15-6s-6-9.6-6-15,2.4-10.8,6-15,9.6-6,15-6,10.8,2.4,15,6,6,9.6,6,15-2.4,10.8-6,15-9,6-15,6Z"/>
      <path class="st0" d="M493.2,385.2c-4.8,0-9-1.8-12.6-4.8-3-3-4.8-7.8-4.8-12s1.8-9,4.8-12,7.8-4.8,12.6-4.8,9,1.8,12.6,4.8,4.8,7.8,4.8,12-1.8,9-4.8,12-7.8,4.8-12.6,4.8Z"/>
      <path class="st0" d="M361.2,385.2c-4.8,0-9-1.8-12-4.8s-4.8-7.8-4.8-12,1.8-9,4.8-12,7.8-4.8,12-4.8,9,1.8,12,4.8,4.8,7.8,4.8,12-1.8,9-4.8,12c-3,3-7.8,4.8-12,4.8Z"/>
      <path class="st0" d="M429,385.2c-4.8,0-9-1.8-12.6-4.8s-4.8-7.8-4.8-12,1.8-9,4.8-12,7.8-4.8,12.6-4.8,9,1.8,12.6,4.8,4.8,7.8,4.8,12-1.8,9-4.8,12c-3,3-7.8,4.8-12.6,4.8Z"/>
      <path class="st0" d="M763.8,460.2h-10.8v-5.4h-16.8v5.4h-10.8v42.6h10.8v34.2h16.8v-34.2h10.8v-42.6Z"/>
    </g>
  </g>
  <path id="stair-101-2" class="st2" d="M589.2,553.8h-36v18.6h36v-18.6h0ZM582.6,562.8v1.2h-22.2v-1.2h22.2Z"/>
</svg>