<?xml version="1.0" encoding="UTF-8"?>
<svg id="Discord.gg-_x40_marazm" xmlns="http://www.w3.org/2000/svg" version="1.1" viewBox="0 0 847.8 784.8">
  <!-- Generator: Adobe Illustrator 30.1.0, SVG Export Plug-In . SVG Version: 2.1.1 Build 136)  -->
  <defs>
    <style>
      .st0 {
        fill: #777;
      }

      .st1 {
        fill: #987f00;
      }

      .st2 {
        fill: #363636;
      }
    </style>
  </defs>
  <g id="Basement">
    <g id="Floor-b">
      <path class="st2" d="M582.6,474v9h-39.6v-9h39.6Z"/>
      <path class="st2" d="M582.6,449.4v9h-39.6v-9h39.6Z"/>
      <path class="st2" d="M847.2,568.2h-60.6v4.2h-1.8v-4.2h-49.2v-25.2h-21v-46.8h-33v-44.4h-6v-37.2h95.4v-52.8h3.6v3h33.6v-46.2h-16.2v28.8h-19.8v-28.8h-107.4v54h-68.4v17.4h-56.4v1.8h-4.2v-117.6h-25.2v-118.2h65.4v42.6h33v-45.6h-10.2v19.2h-10.8v-28.2h-154.8v39.6h-3.6v-77.4h-15.6v-3.6h1.8v-26.4h-23.4v-1.8h1.8v-25.8h-6v-30.6h43.2V0h-55.2v75h3v3.6h-3v24.6h3v3.6h-3v19.2h39.6v-7.2h1.8v48h5.4v1.2h-46.8v12.6h-54.6v-36.6h-49.8v-4.2h12v-33.6h-45v33.6h26.4v4.2h-15v36.6h-88.8v-38.4h-18v39.6h-3v-37.8h-25.8v55.2h75.6v54.6h85.8v-18h-67.8v-36h130.2v75.6h-15v61.2h50.4v55.2h-33v18h33v42.6h-75v-38.4h-41.4v82.8h22.2v-44.4h3v88.2h-26.4v5.4h-2.4v-10.8h-9v-119.4h-26.4v260.4h26.4v-114h9v-10.2h2.4v5.4h26.4v60h130.8v-12h75v-12h-3.6v-52.2h39.6v52.2h-3.6v12h3.6v14.4h114v4.2h44.4v-4.2h109.2v-36h-12v-2.4h5.4v-3h1.8v3h48.6v15.6h12l-.6-28.8h0ZM772.8,581.4v2.4h-3v19.2h-70.8v-21.6h73.8ZM687,581.4v21.6h-53.4v-19.2h-4.8v-54h-2.4v-1.8h2.4v-28.8h15.6v-35.4h3v-2.4h1.2v2.4h15v118.2l23.4-.6h0ZM664.8,384.6v66.6h-15v3h-1.8v-3h-3v-11.4h-33.6v34.8h-3v-90h56.4ZM613.8,527.4v1.8h-1.8v33.6h-3.6v-9h-27v19.2h30v30h-75.6v-62.4h12v6.6h40.8v-30h-40.8v5.4h-12v-50.4h54.6v12.6h18v-3.6h3v46.2h2.4ZM590.4,408.6v51.6h-54.6v-10.2h-12v4.8h-39.6v-45.6h39.6v3.6h12v-6.6h4.2v2.4h50.4ZM517.8,335.4v55.2h-51.6v2.4h-1.2v-2.4h-70.8v2.4h-1.8v-58.2h125.4v.6ZM499.2,198.6v75.6h-143.4v-75.6h73.8v-9h3.6v9h66ZM466.8,406.2v116.4h-31.2v18h31.2v47.4h-53.4v-136.8h-21v-45h1.8v3h71.4v-3h1.2Z"/>
    </g>
    <g id="Stairs-b">
      <g id="Connector-Ground_Floor">
        <path id="stair-1" class="st1" d="M275.4,234.6h-67.2v18h67.8v-18h-.6Z"/>
        <path id="stair-2" class="st1" d="M161.4,181.2v-39.6h-18v39.6h18Z"/>
        <path id="stair-3" class="st1" d="M125.4,142.8v17.4h-9v-17.4h9Z"/>
        <path id="stair-4" class="st1" d="M396.6,169.8h-18.6v8.4h18.6v-8.4Z"/>
        <path id="stair-7" class="st1" d="M276,451.2v54.6h-18v-54.6h18Z"/>
        <path id="stair-8" class="st1" d="M466.8,522.6h-49.8v18h49.8v-18Z"/>
        <path id="stair-220" class="st1" d="M547.8,517.2h61.8v30h-61.8v-30Z"/>
        <path id="stair-221" class="st1" d="M612.6,591.6v17.4h7.8v-17.4h-7.8Z"/>
        <path id="stair-222" class="st1" d="M789.6,591h-8.4v17.4h8.4v-17.4Z"/>
        <path id="stair-223" class="st1" d="M471,275.4v8.4h-29.4v-8.4h29.4Z"/>
        <path id="stair-224" class="st1" d="M487.2,326.4v8.4h-29.4v-8.4h29.4Z"/>
        <path id="stair-136" class="st1" d="M808.8,322.2v17.4h-7.8v-17.4h7.8Z"/>
        <path id="stair-140" class="st1" d="M279.6,199.8v-7.8h-17.4v7.8h17.4Z"/>
        <path id="stair-128" class="st1" d="M452.4,181.8v-37.8h-19.2v38.4h19.2v-.6ZM442.8,172.8h-1.2v-19.8h1.2v19.8Z"/>
        <path id="stair-127" class="st1" d="M609,181.8v-37.8h-19.2v38.4h19.2v-.6ZM600,172.8h-1.2v-19.8h1.2v19.8Z"/>
        <path id="stair-138" class="st1" d="M667.2,319.2v18h7.2v-18h-7.2Z"/>
        <path id="stair-139" class="st1" d="M621.6,469.2v-17.4h-8.4v17.4h8.4Z"/>
        <path id="stair-134" class="st1" d="M589.8,553.8h-34.8v18.6h34.8v-18.6ZM583.2,562.8v1.2h-21.6v-1.2h21.6Z"/>
        <path id="stair-143" class="st1" d="M399,1.2h17.4v8.4h-17.4V1.2Z"/>
      </g>
    </g>
    <g id="Wall-b">
      <path class="st0" d="M360.6,327c-12,0-21.6-9.6-21.6-21.6,0-6,2.4-11.4,6-15,4.2-4.2,9.6-6,15-6s11.4,2.4,15,6c4.2,4.2,6,9.6,6,15,1.2,12-8.4,21.6-20.4,21.6h0Z"/>
      <path class="st0" d="M493.8,327c-12,0-21.6-9.6-21.6-21.6,0-6,2.4-11.4,6.6-15s9.6-6,15-6,11.4,2.4,15,6,6.6,9.6,6.6,15c0,12-9.6,21.6-21.6,21.6h0Z"/>
      <path class="st0" d="M429.6,327c-12,0-21.6-9.6-21.6-21.6,0-6,2.4-11.4,6.6-15s9.6-6,15-6,11.4,2.4,15,6,6.6,9.6,6.6,15c0,12-9.6,21.6-21.6,21.6h0Z"/>
      <path class="st0" d="M325.2,550.2l37.8,9-3,12-37.8-9,3-12Z"/>
      <path class="st0" d="M322.8,564l13.2,2.4-1.8,12.6-13.2-2.4,1.8-12.6Z"/>
      <path class="st0" d="M334.8,538.8v10.2h-10.2v-10.2h10.2Z"/>
      <path class="st0" d="M338.4,541.8l10.8,2.4-2.4,10.2-10.8-2.4,2.4-10.2Z"/>
      <path class="st0" d="M321,518.4v6.6h-6.6v-6.6h6.6Z"/>
      <path class="st0" d="M379.8,518.4v6.6h-6.6v-6.6h6.6Z"/>
      <path class="st0" d="M359.4,600.6v10.8h-10.8v-10.8h10.8Z"/>
      <path class="st0" d="M345.6,603v9h-15v-9h15Z"/>
      <path class="st0" d="M330,600v10.8h-10.8v-10.8h10.8Z"/>
    </g>
  </g>
</svg>