<?xml version="1.0" encoding="UTF-8"?>
<svg id="Discord.gg-_x40_marazm" xmlns="http://www.w3.org/2000/svg" version="1.1" viewBox="0 0 1240.66 1036.62">
  <!-- Generator: Adobe Illustrator 29.8.3, SVG Export Plug-In . SVG Version: 2.1.1 Build 3)  -->
  <defs>
    <style>
      .st0 {
        fill: #131323;
      }

      .st1 {
        fill: #777;
      }

      .st2 {
        stroke-width: 10.67px;
      }

      .st2, .st3, .st4, .st5, .st6, .st7, .st8 {
        fill: none;
      }

      .st2, .st5, .st7 {
        stroke: #987f00;
      }

      .st3 {
        stroke-width: 8px;
      }

      .st3, .st4 {
        stroke: #333;
      }

      .st4 {
        stroke-width: 12px;
      }

      .st5 {
        stroke-width: 4.45px;
      }

      .st6 {
        stroke: #914833;
        stroke-dasharray: 0 0 1 1;
        stroke-miterlimit: 3;
      }

      .st6, .st8 {
        stroke-width: 2px;
      }

      .st7 {
        stroke-width: 4.44px;
      }

      .st9 {
        fill: #363636;
      }

      .st10 {
        fill: #212121;
      }

      .st8 {
        isolation: isolate;
        stroke: #000;
      }

      .st11 {
        fill: #333;
      }

      .st12 {
        fill: #191919;
      }
    </style>
  </defs>
  <path class="st10" d="M264.71,709.58c-4.13-8.73-9.1-18.68-18.43-29.68-6-7.07-12.08-12.54-17.4-16.7-5.83-3.82-13.78-10.06-20.89-19.67-12.41-16.78-15.04-34.08-15.73-42.31.15-15.74.3-31.49.45-47.23V201.92c20.91-5.31,41.81-10.61,62.72-15.92l36.7-7.4,96.4-5.4,71.8-4.5,68-10.6,45.4-12.8,38.4-17.5,52.9-29,49.8-30.9,17.2-9.9,13.9-6.2,25.2-2.7,161.4-.1c8.12-.07,16.25-.14,24.37-.21,12.78-.11,22.18-.03,23.85-.03,13.49.03,70.78-.3,225.22-1.49-.95,296.49-1.9,592.97-2.85,889.46h-2.58c-3.37.03-6.75.05-10.12.08l-32.1,13.7.1,12.7-58.9.1v-12.8l-10.6-8.5-139.6-.9-10.3,9.6v12.4l-80.5.2v-12.3l-11.21-5.85-293.79-1.05s-254.77-1.74-271.11-1.83c-.27-52.46-.55-104.92-.82-157.37-.03-6.07-.59-18.93-3.93-35.36-4.31-21.16-10.9-35.62-12.96-39.97h0Z"/>
  <path d="M439.03,825.9h143.3v-10.7h131.5v-136.2h8v-272.8h-7.9v-117.7h1.9v-18.9h-18.7v2.2h-114.9v-13h-143.3v127.2h-37.7l-4.7,20.1v273.1l4.7,19.4h37.8v127.3h0Z"/>
  <g>
    <g>
      <path class="st3" d="M894.23,173.1c-14.5,25.8-42.6,30.6-61.5,51.1"/>
      <path class="st3" d="M812.43,248.8c-.2-12.6,14.1-26.2,26.7-26.1,12.3.2,24.7,12,24.5,26.1-.2,13.1-10.3,24.8-24.1,24.9-14.6.1-26.9-12.7-27.1-24.9h0ZM890.23,352.7c-.2-11.5-12.6-26.3-26.8-26.6-12.9-.3-30.4,12.7-31.5,22.7"/>
      <path class="st3" d="M832.33,274.2c-1.3,372.3-1,539.2-.9,545.5,0,6.3-.7,9.9-2.6,12.6-1.8,2.7-4.4,5.3-8,7.4s-14.9,3.4-19.7,3.6c-4.8.3-13.6,1.1-68.1,1.2M526.63,260.4s-.2-6.9,1-10c1-2.7,2-5.2,4.8-7.1,2.9-2,10.9-2.6,10.9-2.6M542.73,240.6l270.8-.9M570.13,242.1c0-6.9-.2-11.7-.3-17.2-.2-8.5-.2-13.9-.2-20.9.3-5.2-.7-11,5.1-14.5,28.3-16.1,62.4-30.4,91.5-45.5,9-4.4,22-12.1,30.3-14.5,7.5-2.2,14.4-1.8,22.2-1.8,20.1-.1,38.3-.2,60.1-.2,18.7,0,42.6-1.8,48.9,3.1,6.5,5.5,9.3,12.8,10.3,22.7.9,13.3.5,23.8.5,37.6,0,11-1,24.5-.8,33M730.43,843.5s.1-113.1.4-141.1c0-4.4-.3-7.6,1.2-10.9,1.4-3.1,4.3-5,5.6-7.9,1.2-2.7,1.7-6.7,1.7-9.8-.1-43.5.7-80.1.9-120.2.2-44.8.3-89.7,0-134.3,0-3.4.1-9.2-.7-12.6-.9-4-4-7.6-6-9.9-3.5-4-2.7-7.4-2.7-12.8-.1-46.3.2-140.6.2-140.6M733.53,844.5c-109.5-.2-210.9.5-320.7.5M326.93,238.9s-4,21.4-.4,35.7,14.9,21.1,30.9,23.4c13,1.9,44.2,1.5,44.2,1.5"/>
      <path class="st3" d="M388.13,298.4c.2,48.6.2,224.1,1.3,521.7.6,9.3,6.1,24.9,23.6,24.9M263.63,176.6s1.8,19.6,11.6,40.7c3,6,8.5,12.7,14.3,16.1,9.3,5.5,21.3,4.8,32,4.5,17.8-.6,41.1-.5,50.9,2.1,11.8,3.1,15.2,13.4,15.4,22.5.3,13,.2,29.4.2,35.5M752.23,304.7h-19M751.83,343.3h-18.2M753.23,413.5h-11.2M753.63,452h-12M753.63,522.9h-12M816.43,452.3h13.3M816.43,413.8h13.4M815.23,561.5h14.7M753.43,631.9h-12M753.03,671h-11.6M814.53,671.3h15.7M814.83,633.4h15.8M751.83,740.3h-18.5M831.73,818.2h-100.1M634.33,843.5v-24M651.73,243.4v31.1M661.23,241.8v-15.8M772.23,237.7v-14.1M740.83,562.2h12M401.43,789.1h-15.2M729.23,728.7h-18.5M737.93,588.1h-18.5M737.63,498.1h-18.5M729.83,343.3h-18.5M420.03,856.2v-8.9M362.53,883.5l-.2-78.5M238.03,885.3l153,.2M363.53,847.2c17.3.2,32.7.3,33.9-6.1"/>
      <path class="st3" d="M.13,222.2s48.7-1.2,73-3.3c20.3-1.8,40.6-3.7,60.5-7.9,28.8-6.1,56.2-17.8,84.8-25,23.9-6,48-11.6,72.3-15.1,21.1-3.1,42.5-3.8,63.8-5.3,41.2-2.9,82.6-2.4,123.6-7.2,22.5-2.6,44.6-6.5,66.6-12.3,18.2-4.8,35.4-11.8,52.5-19.6,34.9-15.8,67.1-36,99.7-56.4,28.8-18,85.7-57.1,85.7-57.1M131.53,212.3s-2.5,254.9-3.3,383.2c-.1,12.2,1.1,24.6,4.4,36.3,3,10.4,6.7,21.1,13.7,29.4,8,9.6,20.6,14.4,30.7,21.6,10,7.1,22,12.1,29.8,21.6,11,13.5,16.8,30.8,21.8,47.4,5.2,17.3,6.6,35.7,8.3,53.7,1.79,20.1,1.7,40.4,1.7,60.6,0,35,.6,93.4.6,93.4"/>
    </g>
    <g>
      <path class="st4" d="M787.63,925.3c26.9-14.7,39.4-24.1,57.7-45.1,23.1-28,41.5-62.7,41.8-111.8M917.23,17.4c-.1,153.4-3,330.3-4.8,484.7-.9,77.2-3.2,196.9-3.7,274-.6,77.2.5,111.8.5,188.5"/>
      <path class="st4" d="M1006.93,925.5c-28.2-16.2-32.6-20-55.3-42.6-24.1-28.7-44.2-64.6-42.9-114.5M895.03,17.3c0,153.4-3.7,367.2-5.6,521.6-.9,77.2-1.7,154.5-2.3,231.6s.1,117.1.1,193.8"/>
    </g>
  </g>
  <g>
    <path class="st9" d="M494.93,848.5l24,23.9,38.2-.1,2.2-4.5-.1-19.4M442.23,881.2v-26.2h-40.8v26.2h40.8ZM439.03,698.5v110h-37.8v-110h37.8ZM355.63,856.4v19.5h-16.3v-19.6l16.3.1ZM358.93,817.7v26h-16.4v-26h16.4ZM364.93,793.7v10.7h-21.2v-10.7h21.2ZM365.33,774.1v10.8h-21.7v-10.8h21.7ZM691.93,226.2v-56h-35.6l-53,24.8-.2,31.2h88.8ZM818.13,805.3v-94.9h-67.5v94.9h67.5ZM788.13,791.9c-2.6-.1-5.3-.6-7.8-1.2-3-.7-6.1-1.4-8.6-3.2-1.3-1-2.7-2.3-3-4-.4-1.7.5-3.6,1.1-5.2.9-2.3,2.9-4,3.8-6.3.8-2.1,1.2-4.4,1.3-6.7.1-2.4-.1-4.9-.6-7.3-.4-1.9-1.6-3.6-2.1-5.6-.4-1.6-1.1-3.3-.6-4.9.5-1.6,2-2.6,3.3-3.6,1.9-1.5,4.6-2,6.5-3.5,1.7-1.3,3-3.1,4.4-4.8,1.7-2,2.8-4.7,4.9-6.3s4.8-3.5,7.5-3,5,3.1,5.9,5.7c.9,2.7-.1,5.8-1.4,8.2-1.8,3.2-5.9,4.4-8.1,7.3-1.8,2.5-3.1,5.4-3.8,8.4-.6,2.8-.7,5.9-.2,8.7.6,3.2,1.9,6.4,3.6,9.2,1.5,2.3,4.2,3.7,5.7,6,.9,1.4,2.1,3.1,1.9,4.8-.2,1.6-1.7,3-3,4-2.3,1.7-5.2,2.8-8.1,3.2-.8.1-1.7.2-2.6.1h0ZM819.73,599.8v103.1h-68.6v-103.1h68.6ZM819.33,538.7v53.7h-68.8v-53.7h68.8ZM819.73,492.1v38h-69v-38h69ZM819.73,380.9v104.1h-69.2v-104.1h69.2ZM819.93,373.4v-75.4l-43.8-44.1h-25.5v119.5h69.3ZM793.33,225.5v-15l3.1-2.3v-43.5l-3.1-2.8v-8.9h-70.5v8.9l-3.1,2.8v43.5l3.1,2.3v15h70.5ZM384.83,532v-58.9h-8.8l-4.7,2.9h-4.6v51.6l9.3,4.3,8.8.1h0ZM366.63,333.4v95.4h-31.7v-95.4h31.7ZM438.93,276v110h-37.7v-110h37.7ZM497.23,825.7v15.5h52.2l-.1-15.5"/>
    <path class="st9" d="M480.92,550.07c4.85-.02,9.71-.03,14.56-.05,2.85,2.64,5.7,5.28,8.54,7.92,4.87.07,9.74.15,14.61.22l1.66-1.08c.02-.39.03-.78.05-1.17,3.55.04,7.1.08,10.65.12-.04-1.43-.07-2.86-.11-4.29,9.21-.02,18.42-.03,27.64-.05.27.02.54.03.81.05.03,1.79.07,3.57.1,5.36h10.9v1.6h-1.1v8.6h56v10.5c0,.3-.2.6-.4,1-.1.2-.4.6-.8.9-.4.2-.7.3-.9.4h-3.3c0,5.2.1,10.3.1,15.5h2.9c.2,0,.6.1,1,.3.2.1.5.3.8.7.2.2.2.4.3.6v34.5c-15.7,0-31.5-.1-47.2-.1,0,2,0,4.1-.1,6.1h-60.8v39.9h12.1v1.3h-1.3v4.6h-1.4v-4.6h-15v4.8h-1.6v-3.1h.3v-1.8h-16.6v60.7c-2.03,0-24.95-.05-27.01-.05s-25.18-.05-27.29-.05v39.08c5.25-.02,10.5-.05,15.75-.08,5.18-.03,10.37-.06,15.55-.1,0,6.2,0,12.4-.1,18.6,8.5,0,17,0,25.4-.1.1,9.6.3,19.2.4,28.8,9.17.07,18.39.11,27.65.12,9.26.02,18.48,0,27.65-.02,0-48.9.1-97.8.1-146.7h-9.6v4.7h-1.7v-4.7h-1.2v-2.4h1.7v1.3h45.9v-2.2h.7v-.9h.4v.9h.9v2.3c7.5,0,14.9,0,22.4-.1v-11h-22.4v1.7h-1v.9h-.5v-1.2h-.5v-10.4h3.6v-1.5h2.7v1.5h23.1v-1.6h2.9v1.7l.9-.9h2.7v42.8h-22.8v115.3h70.3c0-9.14.01-20.45.03-29.59.01-9.22.03-20.54.05-29.77,2.01,0,4.02,0,6.03.01,0,.71,0,1.41.01,2.12,2.4.01,4.81.02,7.23.02h7.97v3.39c-.16.29-.32.59-.47.88-.08-.03-.17-.08-.26-.14-.07-.04-.13-.09-.18-.13l.39-.78v-2.71h-3.62c0,.49,0,.99.01,1.48-.42,0-.85,0-1.27.01,0-.49,0-.99-.01-1.48-1.71,0-3.42,0-5.12.01,0,2-.02,4-.02,6.01-.11,0-.22,0-.33.01v-6.05h-3.84v7.81c1.28,0,2.56,0,3.84.01v-.69h.31v.69c1.82,0,3.65.01,5.47.02v-4.43h.66v4.39c.3,0,.6.02.9.02.11-.23.22-.45.33-.68.16.08.32.16.49.24-.15.26-.29.51-.44.77-4.37,0-8.74,0-13.11.01,0,3.78,0,7.56.01,11.34l13.01.03c1.05,1.9,2.11,3.81,3.16,5.71-.01,1.13-.03,2.26-.04,3.39h22.83c-.01-41.88-.03-83.76-.04-125.63h-16.37c-.01,2.4-.02,4.8-.03,7.21h-.46l-.02-61.51h24.88v-38.3c-23.7,0-47.4.1-71.2.1,0-18,.1-36,.1-54,23.7-.1,47.4-.1,71.1-.2v-38.8h-66.6v-104.6h37.8v.4h-1.1v8.2h1.3v.4c-6-.1-12.1-.1-18.1-.2,0,5.5-.1,10.9-.1,16.4h16.9v6.9c6.4,0,12.8-.1,19.3-.1v-3.7c.4,0,.9,0,1.3-.1.5-1.8.9-3.7,1.4-5.5v-74.3h-34.1v-48.7l-53.3-.2v23.6h-47.4v96.6h6.6v.7h-31.5v10.4h31.5v2.9h25.8v12.1h-22.8v-1h21.7v-10l-60.8-.2c0,4.3,0,8.7.1,13h-1.1v-12.3h-18.7v-7.4h3v6h15.4c-.1-49-.1-98.1-.2-147.1h-51.5v29.2h-25.5v18.7h-32.3v38.9c18.3,0,36.6.1,54.9.1v60.2h18.3v-5h1v4.8h1.3v1.6h-46.9v7.3h-1.9v-7.4h-54.3v32.3c-4.9,0-9.8-.1-14.6-.1v59.5h14.7v17.8h27.1v1.4h-41.8v50c4.8,0,9.5-.1,14.3-.1h27.6v1.2h-27.6v18.8c-4.8,0-9.5-.1-14.3-.1,0,19.4.1,38.8.1,58.2h14.2v32.2h54.9c.1-36.4.1-72.7.2-109.1h-11.2v-1.2c3.7,0,7.5,0,11.2-.1v-17.17c.2,0,.41.01.61.02,4.73-.03,9.45-.05,14.18-.08h.02ZM481.74,534.45c-5.01,0-10.02,0-15.03.01-.19,0-.38-.01-.57-.02,0-1.46,0-2.92.01-4.38.02-4.2.04-8.39.09-12.56h-10.9v-1.5h10.9c.1-26.4.1-52.8.1-79.2v-5.5h2.1v5.5c26.8,0,53.6.1,80.4.1v-13.4h1.1v9h14.5v-6h8.3v25.9h5.7v21.8h47v11c-.1.2-.2.6-.4,1-.2.3-.5.8-1.1,1.2-.2.1-.6.3-1.2.3h-2.7c0,5.3,0,10.5.1,15.8h3.5c.7.2,1,.5,1.1.6.2.2.3.5.4.8s.2.6.3.8v11.3h-56.1v8.5h1.1v1.6h-3.6c-1.21,0-2.41,0-3.62-.01-1.29,0-2.59.02-3.88.02v6.29l-28.3.1c-.03-1.45-.07-2.9-.1-4.35-3.56.03-7.12.07-10.68.1v-1.01c-.72-.02-1.43-.04-2.15-.07-.03-.36-.07-.72-.1-1.08-4.72-.02-9.43-.04-14.15-.07-2.82,2.48-5.64,4.97-8.46,7.45-4.55-.01-9.11-.02-13.66-.03h0ZM530.94,538.14c9.35.06,18.69.11,28.04.17.25,0,.5.02.75.02v1.6h-27.27v4.66c1.17,0,11.56-.02,12.73-.02,1.48,0,12.87-.02,14.34-.02,0,.54,0,1.07.01,1.61h-.95c-9.24-.08-18.45-.11-27.65-.1h0v-7.92h0ZM676.33,693.6c-11.3,0-22.6,0-33.9.1v-13.9h33.9c3.42-.08,6.9-.14,10.41-.18,3.48-.03,6.91-.04,10.3-.02,0-2.15-.01-4.3-.02-6.45h.51c.01,2.31.03,4.61.04,6.92,2.05,0,4.1.02,6.15.02v.6c-9.1,0-18.3.1-27.4.1v10.3l27.4-.03v.42h-6.21c0,2.14,0,4.27.01,6.41h-.5v-4.2c-2.41-.03-5.94-.06-10.22-.09-3.39-.02-5.77-.01-10.49-.01h.02Z"/>
    <path class="st9" d="M728.23,557.3h-7.7v5.7h-12.2v-13.2h-7.1c0-5,.1-10,.1-15h16.4c1-2.6,2-5.2,3-7.9h7.3v1.9c.8,1.9,1.7,3.7,2.5,5.6v15.2c-.8,1.2-1.5,2.3-2.3,3.5v4.2h0Z"/>
  </g>
  <g>
    <path class="st5" d="M400.79,802.93h36.2M405.49,733.03v-34.4M405.59,349.43v38.4M400.79,282.43h36"/>
    <path class="st2" d="M606.99,457.23v17.1"/>
    <path class="st5" d="M704.09,685.93h-18.8M687.69,772.43h-9.3M715.59,542.43h-11.3M690.19,388.63h-11.5M578.99,397.73h-26M400.79,548.53v-12.6M594.59,674.83h9.1M594.39,411.53h13.9"/>
  </g>
  <path class="st1" d="M367.68,775.52v-6.4h3v6.4h-3ZM367.78,783.02v-7h2.9v7h-2.9ZM335.38,797.32v-5.8h4.7v5.8h-4.7ZM391.78,879.72v-3h8.7v-18.4h-27.9v16.2h-.6v5.2h19.8ZM335.38,807.82v-5.8h4.6v5.8h-4.6ZM340.28,817.02v-6.3h6v6.3h-6ZM351.28,817.02v-6.2h6v6.2h-6ZM338.78,896.72v-6.3h6.3v6.3h-6.3ZM348.38,896.62v-6.3h6.5v6.3h-6.5ZM819.38,522.72l-7.4,7.4-4.7-4.8,7.4-7.4,4.7,4.8h0ZM772.88,714.62h-13.9v9.2h13.9v-9.2ZM554.48,437.02h10.5v-3.7h-8.3v-.6h-2v.6h-.2v3.7ZM257.68,195.42l-10.3,2.9,1.5,5.2,10.3-2.9-1.5-5.2ZM256.78,193.32l-10.1,2.9-1.5-5.4,10.1-2.9,1.5,5.4ZM1113.58,894.52v-13.9h-9.2v13.9h9.2ZM842.58,250.12v-3.2l-6.3-1.3v5.7l6.3-1.2ZM660.38,884.82l-1.6,5.1,6.5.7.9-3-5.8-2.8h0ZM860.08,490.92v-3.2l-6.3-1.3v5.7l6.3-1.2Z"/>
  <path class="st8" d="M281.24,798.18c.69-10.8.59-24.71-2.05-40.6-2.52-15.16-6.64-27.83-10.57-37.57-2.25-6.96-5.63-15.25-10.83-24-9.39-15.79-20.7-26.36-28.92-32.8-6.64-4.4-18.67-13.68-27.38-29.8-12.67-23.45-10.02-46-8.79-53.61V201.92c8.62-2.95,17.91-5.8,27.83-8.4,12.34-3.24,24.02-5.68,34.89-7.51l36.7-7.4,96.4-5.4,71.8-4.5,68-10.6,45.4-12.8,38.4-17.5,52.9-29,49.8-30.9,17.2-9.9,13.9-6.2,25.2-2.7,161.4-.1c91.15-.58,182.3-1.16,273.45-1.74-.47,147.17-.94,294.33-1.41,441.5-.48,149.32-.96,298.64-1.43,447.96-4.23.03-8.46.05-12.69.08l-32.1,13.7.1,12.7-58.9.1v-12.8l-10.6-8.5-139.6-.9-10.3,9.6v12.4l-80.5.2v-12.3c-3.74-1.95-7.48-3.9-11.21-5.85-97.93-.35-195.86-.7-293.79-1.05,0,0-255.38-1.87-271.11-1.83-.39-48.03-.79-96.07-1.18-144.1h-.01Z"/>
  <path d="M713.95,710.14v-.59h-16.34c0-2.08,0-4.17-.01-6.25h-.56v6.84h16.91Z"/>
  <line class="st2" x1="613.53" y1="457.2" x2="613.53" y2="474.3"/>
  <line class="st5" x1="559.23" y1="542.3" x2="533.23" y2="542.3"/>
  <path class="st3" d="M542.13,240.6c-39.2-.57-78.39-1.13-117.59-1.7-17.43.28-34.86.55-52.29.83"/>
  <path class="st0" d="M461.64,909.32c1.74.6,3.71-1.71,3.91-1.96,1.06-1.25.77-1.86,1.83-3.59,1.11-1.83,1.72-1.6,3.2-3.52,1.09-1.41,2.53-3.29,2.35-5.61-.13-1.62-1.07-3.7-2.35-3.85-1.15-.14-2.15,1.34-4.11,4.3-2.22,3.36-1.75,3.62-3.59,6.26-1.89,2.72-3.1,3.47-3,5.15.07,1.13.71,2.44,1.76,2.8v.02h0Z"/>
  <path class="st0" d="M500.35,911.54c-1.31-.18-2.48-1.7-2.32-2.74.03-.21.13-.46,0-.68-.19-.33-.69-.28-1.08-.39-.73-.2-1.01-.91-1.76-2.35-1.42-2.74-1.65-2.59-1.6-3.1.11-1.17,1.25-1.22,2.71-3.33.52-.76.83-1.43,1.43-2.77,1.06-2.34.94-2.85,1.79-4.01.58-.8,1.2-1.65,2.28-1.96,1.8-.52,3.56.85,3.95,1.17,1.26,1.05.83,1.64,2.74,4.17,1.02,1.36,1.1,1.13,2.09,2.51,1,1.4,1.19,2.01,1.92,2.22.83.23,1.94-.19,2.48-.91.56-.76.22-1.48.95-2.12.44-.38.77-.31.95-.68.25-.54-.31-.95-.16-1.57.12-.51.57-.51,1.57-1.24,1.05-.77,1.01-1.1,2.25-2.02.33-.24.7-.52,1.24-.82,1.71-.93,2.6-.65,3.27-1.51.42-.54.14-.74.54-1.25.77-.99,2.72-1.36,3.99-.64,1.47.83,1.22,2.67,2.42,2.89.66.12,1.43-.3,1.81-.83.49-.69.09-1.29.56-1.66.55-.45,1.35.19,2.13-.34.29-.2.33-.39.54-.66.78-1.01,2.6-1.31,4.01-.9.95.27,2.52,1.1,2.47,2.05-.02.32-.23.71-4.55,2.98-1.73.91-2.16,1.09-2.74,1.71-.86.92-.98,1.64-1.76,1.98-.83.36-1.7-.02-2.62-.39-2.13-.87-2.37-2.04-3.77-2.05-.64,0-.52.24-2.08.51-1.26.22-1.56.1-2.08.42-.72.44-1.32,1.38-1.1,2.05.19.58.83.46,1.3,1.17.46.7.51,1.82,0,2.37-.49.53-1.11.11-1.83.66-.66.5-1.06,1.53-.73,2.27.27.62.96.84,1.39.98,1.23.4,1.67-.13,3.25-.02.88.06.73.22,2.89.68,1.6.34,1.73.27,2.47.46.55.15,2.22.66,3.63,1.97,1.3,1.21,3.07,3.77,2.18,5.7-.04.09-.47.99-1.43,1.38-1.43.57-3.15-.32-4.11-1.3-1.42-1.46-.72-2.68-2.09-3.82-1.34-1.12-3.2-.93-3.68-.88-1.53.16-1.72.8-3.52,1.47-.78.29-3.94,1.45-6.36.16-1.37-.73-1.12-1.51-2.8-2.58-1.6-1.01-3.19-1.17-3.98-1.24-.44-.04-4.44-.33-7.17,2.27-.41.39-1.67,1.58-1.37,2.59.22.74,1.17.99,1.08,1.42-.08.38-.89.62-1.57.53l-.02.02h0Z"/>
  <path class="st0" d="M984.51,606.66c.25.44.93,1.04,7.43.46,3.11-.28,4.03-.52,4.63-1.3.45-.59.28-.92.59-2.87.56-3.51,1.43-4.37.78-5.41-.57-.92-1.84-1.2-2.67-1.17-1.38.04-2.11.95-3.65,2.28-4.09,3.54-6.42,3.66-7.11,6.26-.15.57-.32,1.2,0,1.76h0Z"/>
  <path class="st0" d="M980.14,589.9c.77-.17,2.01-.47,3.52-.91,2.63-.77,3.17-1.15,4.57-1.17,1.21-.02,2.92-.05,3.98,1.04.6.62.79,1.39,1.7,1.7.18.06.74.25,1.24,0,.65-.32.47-1.01,1.11-1.63.73-.71,1.41-.26,1.93-.85.51-.58.16-1.39,0-3.07-.14-1.41.01-1.82,0-3.2-.02-2.79-.65-4.94-1.01-6.78-.64-3.29-.41-6.23.07-12.13.32-4.01.6-4.02.72-7.24.09-2.5-.02-4.46-.26-8.28-.41-6.52-.9-9.15-1.04-9.91-.53-2.77-1.31-6.96-2.41-6.98-.87-.01-1.67,2.55-2.35,4.7-.47,1.5-.71,2.25-.78,3.26-.24,3.34,1.5,4.18.91,6.72-.33,1.41-.92,1.38-1.3,3.2-.3,1.42,0,1.71-.1,3.59-.1,1.72-.44,3.08-1.01,5.28-.64,2.5-.94,2.86-.65,3.65.34.94.94.93,2.31,2.67.84,1.07,1.27,1.64,1.35,2.41.13,1.37-.96,2.5-1.35,2.93-2.72,3.02-2.25,6.53-5.11,12.39-1.06,2.17-2.86,5.25-6,8.61h-.04Z"/>
  <path class="st0" d="M1120.78,688.73c4.42,1.53,6.63,2.29,7.53,1.96,7.5-2.76,4.88-29.79-1.08-46.76-1.14-3.25-3.58-9.5-8.9-15.65-4.4-5.09-8.22-7.16-9.1-7.63-.97-.51-2.91-1.46-10.27-3.13-10.88-2.47-11.39-1.47-18-3.42-5.97-1.77-6.94-2.99-10.96-3.03-1.51-.02-5.72,0-10.08,2.54-1.07.62-7.66,4.63-9,12.72-1.18,7.11,2.51,12.44,3.72,14.18,2.06,2.97,3.27,2.5,10.57,8.12,3.63,2.8,6.16,5.04,9.39,7.92,7.93,7.06,7.57,7.76,12.13,11.15,4.76,3.55,5.45,3,10.76,7.04,5.44,4.14,4.57,4.6,8.61,7.34,4.74,3.22,9.07,4.72,14.67,6.65h.01,0Z"/>
  <path class="st11" d="M446.33,238.1v-34.36h1.66c-.02-1.07.08-3.52,1.57-5.62.77-1.08,1.79-1.9,3.82-2.76,1.94-.82,5.4-1.94,10.26-1.65v-2.09h13.58v3.85c.55.39,1.39,1.08,2.15,2.21.76,1.1,1.82,2.68,1.47,4.4-.32,1.56-1.71,2.77-3.41,3.2v20.4c-.29.28-.59.56-.88.86v11.56h-30.2Z"/>
  <path class="st1" d="M260.27,542.02c1.3-1.48,2.61-2.95,3.91-4.43-2.85-2.45-5.69-4.91-8.54-7.36-1.31,1.48-2.62,2.95-3.94,4.43,2.85,2.45,5.71,4.91,8.56,7.36h.01,0Z"/>
  <polygon class="st1" points="236.25 535.67 240.78 533.91 238.52 529.37 234.13 531.59 236.25 535.67"/>
  <polygon class="st1" points="244.8 534.04 247.6 529.73 252.82 533.06 250.05 537.95 244.8 534.04"/>
  <polygon class="st1" points="241.18 523.05 247.44 521.22 245.74 515.78 239.55 517.77 241.18 523.05"/>
  <path class="st6" d="M1126.56,959.43c-.06-42-.12-84-.18-126-.02-7.36-.03-14.72-.05-22.08v-15.41c-.05-1.39-.16-3.4-.39-5.82-1.13-11.75-4.07-20.72-5.69-25.14-2.51-6.82-5.13-11.66-5.83-12.92-3.79-6.86-7.55-11.53-9.71-14.18-2.76-3.38-6.49-7.53-11.34-11.87-14.15-12.67-28.31-25.33-42.46-38-1.67-1.45-3.91-3.46-6.42-6-3.45-3.48-10.6-10.79-16.8-21.64-1.62-2.84-7.81-14.09-10.89-30.32-1.12-5.88-1.54-10.93-1.7-14.65v-305.72c.43-5.57,1.4-13.07,3.69-21.68,3.05-11.45,7.02-19.57,10.32-26.22,2.59-5.22,7.09-14.18,14.99-24.65,1.17-1.55,6.67-8.78,15.23-17.18,3.97-3.9,8.51-8.33,15.35-13.27,8.09-5.85,15.15-9.35,18.69-10.99,7.58-3.52,13.65-5.3,18-6.55,3-.86,11.02-3.07,22.5-4.6,11.69-1.55,20.63-1.55,25.04-1.57,14.89-.04,33.11-.32,56.91-.88"/>
  <path class="st6" d="M1133.6,959.43c0-14.28-.03-37.63-.04-51.92-.03-21.28-.07-45.52-.11-66.8.02-5.04.04-10.09.07-15.13.02-9.18.04-18.37.07-27.55.08-3.64-.03-8.38-.72-13.89-.13-1.03-.55-4.26-1.4-8.25-1.98-9.26-5.12-17.19-7.17-21.62-8.29-17.84-23.46-31.34-26.77-34.22l-36-32.09c-2.7-2.3-6.14-5.38-9.93-9.21-2.5-2.53-5.84-5.91-9.39-10.43-5.37-6.85-8.63-12.99-10.11-15.96,0,0-6.15-12.36-8.46-26.17-.93-5.57-1.33-11.93-1.33-11.93,0,0-.1-1.52-.15-3.1-1.26-33.23-.03-61.63-.03-61.63.72-16.23,1.09-71.59-.53-244.82,1.53-10.7,4.74-23.94,11.44-37.99,6.92-14.5,14.85-24.16,19.17-29.37,8.04-9.67,15.05-15.65,16.71-17.05.41-.35,8.42-7.04,18.33-12.82,4.41-2.57,7.87-4.2,8.72-4.59.8-.37,3.46-1.59,7.46-3.1,3.11-1.17,10.94-4,21.16-6.09,7.18-1.47,12.79-2.06,15.9-2.36,20.4-1.98,40.94-2.16,44.62-2.18h.39c14.34-.07,23.92.06,30.36.23"/>
  <path class="st12" d="M1146.88,753.49c-.58-2.05-6.13-1.7-9.78-3.26-2.88-1.23-4.49-4-7.7-9.52-2.17-3.73-3.75-6.46-2.67-8.22,1.04-1.69,3.44-.68,6.18-3.14,1.65-1.48,1.18-2.2,2.88-3.51,1.94-1.49,2.81-.74,5.48-2.22,2.66-1.47,3.01-2.88,4.43-2.74,1.02.1,1.63.91,3.13,2.87,2.22,2.9,1.47,1.38,4.3,5.6,4.33,6.42,5.46,6.28,5.35,7.83-.18,2.51-2.74,3.11-3.11,6.77-.19,1.86.44,2.01,0,3.08-1.14,2.79-5.64,2.42-6.21,4.89-.24,1.03.32,2.09-.39,2.69-.28.24-.72.38-1.08.24-.59-.22-.74-1.1-.82-1.37h.01,0Z"/>
  <path class="st12" d="M1124.72,699.85c2,1.36,4.64,1.06,6.46.85,1.66-.19,3.31-.38,4.3-1.57.58-.69,1.27-2.13,0-6.72-1.97-7.1-5.56-10.69-4.43-12,.73-.86,2.37.52,4.43-.52,1.55-.79,2.18-2.35,3.2-5.02,1.44-3.78,2.16-5.67,1.37-7.43-1.34-2.97-5.93-3.51-5.74-4.3.15-.62,2.86.17,4.24-1.24.95-.96.83-2.51.39-5.22-1.15-7.12-1.72-10.68-3.26-12.85-1.86-2.63-4.03-3.86-3.78-6.2.13-1.19.76-1.62.65-2.93-.14-1.7-1.4-3.23-2.87-3.98-1.99-1.02-4.8-.85-5.61.46-.3.49-.04.69,0,3.13.04,2.5-.22,3.22-.37,3.59-.45,1.05-1.13,1.54-1.52,1.96-.52.54-1.26,1.83-.39,8.28.68,5.07,1.02,7.6,1.76,8.8.44.72,1.63,2.46,1.24,4.43-.02.1-.08.4-.33.98-1.16,2.76-2.98,3.56-4.7,6.26-.77,1.21-1.15,1.81-1.17,2.35-.15,3.68,7.77,6.56,7.3,7.7-.17.4-1.15-.01-2.61.72-.22.11-1.62.83-2.22,2.22-.63,1.46-.08,2.97.13,3.59,2.35,6.92-.13,12.19,3.52,14.67h0Z"/>
  <path class="st12" d="M1151.46,633.37c5.02-.63,9.28-6.17,8.48-8.39-.26-.72-1.03-1-1.53-2.44-.47-1.35,0-1.75-.48-2.73-.75-1.6-2.68-2.11-3.14-2.24-1.26-.34-1.49.04-3.33,0-1.65-.04-3.16-.52-6.19-1.47-2.3-.72-2.57-.96-2.76-1.17-1.09-1.2-.49-2.54-1.14-4.78-.44-1.51-1.15-2.4-2.57-4.2-2.36-2.98-3.16-2.49-4.95-4.88-1.34-1.79-.67-1.78-3.05-6.14-1.62-2.97-2.17-3.44-2.19-4.78-.04-2.32,1.6-2.77,1.53-4.88-.1-2.94-3.38-5.09-3.81-5.37-3.27-2.13-6.09-2.63-6.09-2.63-.57-.1-1.23-.18-1.53-.68-.51-.86.46-2.16,1.53-4.29,1.29-2.6,1.95-3.9,1.91-4.98-.14-3.67-7.13-6.4-10.47-7.71-5.63-2.19-10.02-2.58-10.09-4.2-.03-.8,1.01-1.64,1.53-2.04,0,0,1.19-.96,2.85-1.21,4.21-.63,8.41,4.17,15.65,5.01,2.29.26,3.09-.07,5.29.59,3.23.97,4.39,2.54,6.09,2.04.83-.24,1.2-.8,2.93-3.81,4-6.94,4.35-7.98,4.59-9.18.51-2.46.8-3.88.19-5.47-1.88-4.88-9.97-5.03-9.92-7.61.02-1.08,1.44-1.16,2.11-3.32.51-1.64-.18-2.05.28-4,.42-1.77,1.05-1.78,1.62-3.81.42-1.51.77-2.76.19-3.71-.84-1.37-2.64-.53-4.2-2.04-1.28-1.25-.5-2.2-1.61-3.32-1.98-2-5.49.1-7.14-1.96-.66-.82-.2-1.29-.86-2.04-1.34-1.57-3.74-.16-7.62-.39-4.77-.28-5.56-2.64-9.33-1.96-2.08.39-2.02,1.14-4.38,1.57-.67.12-4.08.73-7.14-.88-3.45-1.81-2.48-4.34-6.79-8.43-2.8-2.65-4.69-2.99-4.76-4.69-.09-2.08,2.74-2.57,3.62-5.27.8-2.47-.67-4.89-3.64-9.57-3.54-5.6-6.08-9.61-10.45-10.54-2.51-.54-4.52.18-4.95-.78-.43-.94,1.97-2.01,3.81-5.08.51-.85,2.08-3.47,1.91-6.63-.2-3.6-2.67-7.97-5.76-8.39-3.92-.54-7.25,5.48-9.28,4.29-.91-.52-.31-1.74-1.33-2.92-2.07-2.41-6.31.51-8.91-1.4-1.66-1.22-1.71-4.8-1.81-11.97-.08-5.89.42-8.94-1.71-11.12-.93-.96-1.82-1.19-2.29-2.44-.87-2.34.68-5.72,2.19-5.86,1.39-.13,1.82,2.56,4.1,3.02,1.84.37,3.52-.99,4-1.37,3.71-2.98,3.21-9.2,3.14-10.01-.29-3.15-1.39-3.99-2.19-9.32-.12-.79-1.08-2.43-.38-3.41.6-.85,1.8-.44,2.38-1.37.57-.92-.33-1.76.19-2.92.51-1.14,1.57-.81,2.19-1.86.9-1.51-.8-2.99-.1-4.78.65-1.65,2.4-1.2,3.14-2.63,1.31-2.57-3.25-6.14-2.09-8.2.75-1.34,3.52-1.31,6.76-1.27,2.77.03,3.49.5,4.86-.14,2.19-1.03,3.03-3.5,3.24-4.13.26-.78,1.15-3.4-.1-5.29-.67-1.02-1.44-1.04-5.04-2.38-4.82-1.8-5.66-2.59-6.19-3.37-1.01-1.51-.22-2.13-.95-3.71-1.2-2.57-4.32-3.14-14.28-6.83-1.04-.39-2.73-1.04-3.43-2.62-.52-1.2-.12-2.11.1-3.72.54-3.98-1.05-4.78-1.05-9.59,0-3.16.69-2.49.66-5.59-.03-4.31-1.36-5.37-.76-8.76.37-2.11.98-2.24,1.14-4.37.18-2.47-.57-3.41-.76-5.4-.18-1.88.8-4.09,2.76-8.45,2.32-5.16,2.46-4.33,4.48-8.83,1.85-4.11,2.14-5.74,3.62-6.14.94-.27,1.28.28,5.24,2.14,3.74,1.77,4.93,1.99,5.33,3.22.5,1.57-.86,2.92-.19,3.61.54.55,1.95.25,2.85-.49,1.27-1.02,1.32-2.7,1.53-5.57.33-4.72.5-7.08.86-8.78.35-1.66.55-1.64,2.84-7.32,3.04-7.52,2.67-7.5,3.34-8.1,3.99-3.56,10.01,1.76,14.85-1.96,2.19-1.68,3.86-4.99,3.19-7.51-.64-2.41-3.08-2.83-3.29-5.27-.19-2.14,1.45-4.41,2.47-4.29,1.18.13.81,3.34,3.43,6.14,1.28,1.38,2.67,2,3.24,2.24,3.06,1.34,7.32,1.31,10.37-1.08,1.96-1.53,2.74-3.49,3.81-6.14,1.45-3.6.82-4.52,1.81-6.93,1.42-3.45,3.82-4.24,9.05-8.3,7.52-5.83,5.69-6.62,9.01-8.07,7-3.05,11.31,2.15,19.55-1.3,3.2-1.35,2.79-2.23,5.59-2.99,4.64-1.27,6.73.93,14.98,2.47,5.85,1.1,11.04,1.16,12.82,1.17,3.87.03,4.53-.27,8.13-.03,4.69.31,5.58.95,7.1.13,3.06-1.65,3.89-6.55,3.55-9.83-.17-1.58-.35-3.39-1.65-4.88-1.22-1.39-3.37-2.45-13.21-1.7-4.9.38-5.18.71-9.52,1.11-7.39.68-8.38-.11-15.05.39-6.53.49-5.38,1.23-14.09,2.14-6.72.71-11.91.75-14.73.72-3.72-.04-5.76-.24-7.62-.33,0,0-9.42-.45-21.9,2.89-14.41,3.86-31.75,15.4-45.06,31.1-8.69,10.24-12.75,18.83-20.53,35.25-11.42,24.11-11.14,33.99-10.95,37.03.55,8.89,2.03,17.52,2.03,17.52,1.64,9.58,2.51,9.47,2.29,13.37-.5,8.51-4.78,11.4-3.05,18.16.57,2.24,1.47,3.55,1.53,6.5.06,3.55-1.18,4.97-1.91,8.05-1.28,5.43,1.13,6.99,1.53,14.83.29,5.87-1.02,5.72-1.14,12.31-.14,7.29,1.46,8.53,2.29,16.66.99,9.73-1.14,9.39-.38,20.1.78,10.99,2.97,10.68,2.29,17.96-.58,6.23-2.49,9.54-.38,13.67,1.17,2.29,3.23,4.15,2.67,6.63-.12.54-.24.59-1.71,3.97-.7,1.63-1.06,2.44-1.14,2.84-.54,2.53,1.03,4.89,1.53,5.69,4.86,7.79,6.04,17.43,9.52,25.96,7.17,17.59,7.7,18.66,9.14,20.69,5.4,7.61,13.14,12.65,13.14,12.65,3.53,2.68,6.69,4.57,8.56,8.82,1,2.26.94,3.61,2.47,6.24.83,1.42,2.33,3.59,5.71,6.24,2.48,1.95,4.97,3.38,12.76,6.63,9.79,4.1,10.56,3.81,13.14,5.86,2.36,1.88,3.2,3.29,7.43,9.37,7.31,10.51,6.02,8,10.47,14.63,6.96,10.38,7.59,12.75,12.19,17.18,3.8,3.64,7.14,6.77,11.36,6.24l-.03.03h0v.06Z"/>
  <path class="st12" d="M1040.36,432.69c.65.97,1.12,1.12,10.96,4.7,3.18,1.16,5.31,1.93,8.32,1.86,1.7-.04,3.28-.08,4.79-1.08,3.38-2.24,4.36-7.96,2.35-10.08-.59-.62-1.01-.48-3.33-1.08-5.52-1.41-5.82-2.89-9.32-3.13-2.87-.2-3.3.75-5.16,0-2-.81-2.41-2.28-4.3-2.54-1.86-.26-3.4.88-3.52.98-2.62,2.01-2.9,7.23-.78,10.37h0Z"/>
  <path class="st12" d="M1044.39,344.56c.87,1.09,1.39.67,4.17,2.38,2.85,1.75,3.03,2.63,4.47,2.77,1.85.17,3.36-1.13,4.47-2.08.86-.74,3.02-2.86,3.46-6.26.16-1.25.43-3.33-.82-5.06-1.47-2.06-4.14-2.31-6.59-2.54-1.55-.14-3.63-.34-5.9.75-.83.4-2.53,1.22-3.55,3.13-1.16,2.15-1.14,5.11.29,6.91h0Z"/>
  <path class="st12" d="M1043.57,322.09c1.27,1.39,2.87,1.81,5.41,2.48,2.63.69,4.76,1.24,6.52.33,1.61-.84,1.71-2.28,3.59-8.29,2.11-6.74,2.55-6.76,3.59-11.15.27-1.15.01-.19,1.37-7.3.93-4.86,1.05-5.33.78-6.2-1.24-4-7.93-6.83-11.48-4.83-1.14.65-1.32,1.44-2.93,4.96-3.69,8.05-4.98,8.79-6.85,14.61-.57,1.77-1.01,3.19-1.3,5.22-.49,3.44-1.08,7.55,1.3,10.17h0Z"/>
  <path class="st12" d="M1126.25,280.24c.49.11,8.78,1.85,12.82-.49.82-.47,1.77-1.03,2.39-2.15.77-1.4.29-2.4,1.04-3.82.7-1.34,1.9-1.92,2.45-2.25,3.82-2.33,8-12.41,4.4-17.51-1.99-2.83-6.3-4.02-6.65-4.11-2.06-.55-2.75-.15-4.21-.98-2.65-1.51-1.98-3.74-4.3-5.09-1.64-.95-3.47-.63-7.14,0-2.71.47-4.06.7-4.89,1.76-1.12,1.44-.32,3.02,0,6.36.57,5.88-1.39,6.5-.84,12.91.25,2.91.85,5.1,1.23,6.46,1.06,3.8,2.52,6.8,3.72,8.9h-.02,0Z"/>
  <path class="st12" d="M1117.45,274.08c1.07,1.75.42,4.5-.88,6.16-.66.85-2.46,1.54-6.07,2.93-2.75,1.06-3.56,1.22-4.5.98-1.84-.47-2.97-2.34-3.03-2.45-.83-1.35-.58-2.26-1.27-2.54-.91-.37-1.64,1.06-3.33,1.08-1.37.01-2.38-.92-2.54-1.08-1.33-1.27-1.3-3.24-1.27-5.09.03-2.07.49-2.47.39-4.79-.05-1.07-.08-1.77-.4-2.64-.61-1.69-1.45-1.81-2.05-3.23-.08-.18-.87-2.17,0-4.21.89-2.08,2.93-2.81,4.11-3.23.48-.17,2.74-.98,3.33-.2.6.8-.93,2.69-.49,3.03.27.21.92-.46,2.45-.98,0,0,.75-.25,1.66-.39.51-.08,2.04-.23,6.07,1.76,2.34,1.16,3.49,1.8,3.62,2.05.79,1.5-.59,2.57-.48,5.77.04,1.16.1,2.85,1.17,4.3,1.27,1.74,2.63,1.28,3.52,2.74v.03h0Z"/>
  <path class="st12" d="M1108.12,482.09c-.76-2.48.89-3.42,0-6.26-.51-1.64-1.23-1.85-1.17-3.13.08-2.05,1.99-3.51,2.35-3.78.61-.47,1.29-.82,2.87-1.3,1.76-.54,3.4-1.04,6.04-1.17,3.88-.2,8.85-.46,10.4,2.22.69,1.2.42,2.51,0,4.57-.42,2.04-1.05,2.87-3.65,7.43-2.72,4.77-3.04,5.64-4.17,5.87-1.7.35-2.64-1.25-5.35-.91-1.5.19-1.58.72-2.67.65-1.97-.12-3.99-2.04-4.64-4.17v-.02h-.01,0Z"/>
  <path class="st12" d="M1107.86,457.05c1.21.1,2.34-.24,4.17-.78,2.17-.64,3.68-1.46,4.83-2.09,3.13-1.71,4.69-2.57,5.35-4.3.12-.32.73-2.01,0-3.65-.8-1.81-2.54-2-5.35-3.52-2.89-1.56-1.8-1.77-7.04-5.48-3.94-2.78-4.41-2.57-6-4.3-.96-1.05-1.38-1.77-2.22-1.83-.51-.03-1.6.16-4.3,4.7-1.99,3.34-2.98,5.01-3,6.26-.02,1.45.53,2.28,6.26,8.87,4.06,4.67,5.27,5.97,7.3,6.13h0Z"/>
  <path class="st12" d="M1120.38,413.77c3.86.05,3.85,1.63,9.49,2.54,3.09.5,5.63.88,8.32-.39.68-.32,2.88-1.4,4.21-3.91,1.3-2.46,1.43-5.65,0-8.22-1.33-2.39-3.51-3.34-5.28-4.11-3.75-1.63-7.25-1.21-8.22-1.08-2.66.36-2.74,1.08-5.09,1.17-2.38.09-2.72-.63-6.36-1.29-2.26-.41-5.1-.9-8.32-.03-1.67.45-3.08.84-3.91,2.1-.61.93-.5,1.71,0,6.26.52,4.77.54,5.21,1.08,5.87,1.42,1.75,3.9,1.91,6.07,2.05,4.03.26,4.54-1.02,8.02-.98v.02h-.01,0Z"/>
  <path class="st12" d="M1069.15,414.39c3.07.96,7-4.89,7.57-5.74,1.22-1.82,2.18-3.25,1.96-5.09-.2-1.63-1.27-3.12-2.22-4.43-1.29-1.79-1.67-1.64-1.83-2.38-.43-2.04,2.45-2.92,3.65-6.6.22-.66.29-2.14.42-5.11.24-5.09-.13-5.67-.42-6-.87-.95-1.9-.48-6.13-.65-4.56-.19-5.01-.81-7.96-.44-1.29.16-3.16.52-5.09,1.66-1.05.62-1.9,1.14-2.35,2.17-.64,1.49-.15,3.36.78,4.57,1.27,1.64,2.7,1.18,3.91,3,.37.55,1.06,1.59.78,2.61-.4,1.47-2.45,1.52-6.52,3.52-2.24,1.1-3.36,1.65-3.78,2.5-1.55,3.08,2.82,7.92,3.65,8.85.46.51,4.82,5.34,7.3,4.18,1.76-.82,1.71-4.24,2.3-4.18.53.05.13,2.76,1.87,5.48.61.96,1.15,1.79,2.09,2.09h.02,0Z"/>
  <path class="st12" d="M925.15,609.18c.54-4.76,7.62-5.57,7.76-9.43.11-2.81-3.64-3.39-3.88-6.68-.26-3.31,3.19-7.45,7.21-8.38,4.83-1.12,6.89,3.19,15.67,3.93,2.25.19,4.67.39,7.49-.52,3.05-.99,4.67-2.67,9.85-8.65,8.91-10.27,9.7-11.75,10.26-12.96,1.03-2.21,1.66-5.05,2.91-10.74.53-2.44,1.81-8.47,2.91-17.42.89-7.27,1.34-10.89.97-13.63-1.02-7.48-3.93-7.63-4.43-14.02-.53-6.73,2.63-7.55,2.36-15.45-.21-6.18-2.15-6.04-2.22-11.66-.07-6.43,2.46-6.86,4.43-16.9,1.18-5.99.3-5.99,1.81-13.76,1.3-6.69,1.96-6.7,2.08-10.34.16-4.62-.81-6.87.83-10.21,1.17-2.4,2.18-2.28,3.19-4.59,1.3-2.95.69-5.53,0-9.3,0,0-1.06-5.8-1.95-13.76-.29-2.61-.2-3.24-.14-13.09.05-9.24.03-17.09,0-21.09-.07-11.12-.27-10.88-.14-15.79.23-9.51.96-11.08,1.24-18.12.72-17.6-3.02-25.96-.55-26.85,2.32-.84,8.73,5.39,10.06,12.76,1.15,6.41-2.64,7.66-2.91,17.29-.09,2.96.6,7.17,1.95,15.58.85,5.31,1.28,7.96,1.95,11.27,1.71,8.54,2.92,11.68,1.18,15.32-1.1,2.3-3.82,2.31-4.43,4.85-.35,1.45.27,1.82.49,4.78.18,2.5-.1,4.44-.35,6.23-.6,4.2-1.36,4.28-1.18,6.49.15,1.82.67,1.79,1.87,5.63.74,2.37.56,2.43,1.52,6.09,1.4,5.31,1.73,4.99,1.95,7.01.31,2.97-.24,5.39-.69,7.4-.51,2.27-.77,3.42-1.59,4.91-1.29,2.33-2.42,2.7-2.98,4.78-.43,1.6-.19,2.94,0,3.93.52,2.74,1.67,3.27,2.5,5.5.81,2.19.47,4.36-.21,8.71-.55,3.53-.99,3.56-1.46,6.94-.18,1.3-.23,2.14-.41,7.33-.19,5.55-.29,8.33-.28,8.97.18,9.46.21,9.82.21,9.82.13,1.67.35,4.09-1.18,5.3-.73.58-1.25.39-1.87.98-1.22,1.16-.31,3-.14,5.89.24,4.32-1.34,8.01-1.59,8.57-1.12,2.52-2.06,2.94-1.85,4.39.29,1.89,2.06,2.11,3.31,4.59.31.62.58,1.37.83,5.17.31,4.77.68,5.79.21,7.27-.43,1.32-.69,1.08-1.18,2.62-.79,2.47-.58,4.62-.49,5.56.19,1.83.66,1.75.63,3.01-.04,1.61-.72,2.23-1.32,4.19-.47,1.57-.21,1.76-.58,3.86-.86,4.97-2.76,6.69-1.64,8.82.09.15.47.61,1.24,1.54,2.16,2.56,2.57,2.59,2.74,3.34.16.69-.48,1.87-1.73,4.23-.86,1.61-1.28,2.16-1.49,3.3-.21,1.13.02,1.57,0,2.46-.06,2.1-1.44,2.8-3.47,5.92-1.86,2.85-1.3,3.16-3,5.48-.64.86-1.94,2.65-3.8,3.94-4.46,3.1-8.24.68-13.55,3.19-1.65.78-1.5,1.11-5.48,4.59-6.95,6.05-13.46,11.73-17.27,10.12-2.18-.92-2.36-3.77-4.23-3.74-1.03.02-1.53.89-3.47,3.08-2.95,3.32-4.42,4.98-6.45,5.63-1.78.57-4.43.62-6.21-.85-1.35-1.12-2.01-2.98-1.82-4.67v.03h0Z"/>
  <path class="st12" d="M991.83,267.89c1.26,3.3,7.27,4.82,11.85,3.5,5.6-1.62,9.47-7.61,8.73-11.96-.42-2.52-2.29-3.93-1.53-5.32.83-1.5,3.37-.47,6.1-1.65,3.94-1.69,2.72-5.6,6.86-10.7,4.4-5.41,8.69-4.61,10.39-9.47,1.09-3.15-.49-4.07.83-6.8,1.66-3.41,4.67-3,9.98-6.8,2.95-2.11,2.04-2.25,8.52-8.44,4.15-3.96,6.23-5.93,8.29-7.41,2.16-1.54,6.68-4.5,10.21-8.44.46-.5,1.2-1.38,1.46-2.67.31-1.6-.28-3.1-2.08-5.97-2.67-4.24-4.01-6.37-4.99-6.59-3.23-.75-5.69,4.51-18.18,16.47-1.25,1.2-1.87,1.8-2.4,2.26-9.82,8.67-17.29,8.83-18.08,13.58-.36,2.17,1,3.34,0,6.18-.66,1.86-1.84,3.06-2.68,3.91-2.26,2.29-4.29,2.76-6.31,3.86-2.82,1.54-2.56,2.58-7.22,7.67-6.46,7.04-8.46,6.69-10.39,11.02-1.39,3.1-.4,3.4-2.18,7.41-1.6,3.62-2.78,4.25-4.89,8.54-1.98,4.04-2.96,6.06-2.28,7.82h.01-.02Z"/>
  <path class="st12" d="M1091.31,175.42c-1.14-2.19-.02-6.66,1.96-9,.93-1.1,1.89-1.55,7.17-2.15,5.85-.67,8.78-1,12.32-.52,2.03.27,2.23.49,6.07,1.05,3.22.48,4.83.73,6.65.71,3.78,0,4.14-.96,7.7-1.25,5.82-.48,6,1.96,9.52.89,3.26-.99,3.09-3.07,9-7.15,2.93-2.03,4.55-3.14,6.91-3.57,3.68-.67,4.69,1.15,9.13,1.78,2.54.37,5.78-.36,12.26-1.78,1.89-.42,5.53-1.27,10.42-1.42,3.25-.1,4.33.19,5.1,1.25,1.91,2.63,1.42,9.43-1.17,12.5-2.56,3.04-5.18.08-13.57,1.42-3.12.51-2.62.89-8.22,2.15-3.12.7-6.6,1.48-10.83,1.78-6.01.44-6.06-.62-12.78-.18-4.14.27-6.63.47-9.91,1.78-3.97,1.6-3.93,2.79-7.04,3.57-2.36.59-4.97.15-10.17-.71-4.74-.79-4.95-1.19-7.3-1.18-2.76.03-3.07.58-7.17,1-1.47.15-3.52.16-7.57.18-7.09.03-7.94-.14-8.48-1.18h0v.03Z"/>
  <path class="st12" d="M237.88,551.14c-.8-.32-1.55-1.06-2.41-3.52-.78-2.22-.59-2.8-1.33-6.13-.64-2.91-1-3.42-.56-4.11.78-1.21,2.42-.42,4.11-2.09.68-.67.85-1.24,1.79-1.73.27-.14,1.01-.52,1.96-.49.18,0,.15.02,1.76.33.71.14,1.07.2,1.24.23,1.05.15,1.14.05,1.47.21.5.26.49.62,1.01,1.22.48.55.86.66,1.47,1.06.61.41,1.98,1.32,2.28,2.53.39,1.56-1.16,3.01-.68,3.46.29.27.83-.27,1.3,0,.66.37.45,1.86.13,4.08-.31,2.08-.56,2.35-.72,2.48-.75.62-1.58.08-3.29.39-.93.17-.8.35-2.6,1.04-2.92,1.13-4.68,1.21-5.45,1.21-.7,0-1.07,0-1.47-.16h-.01Z"/>
  <path class="st12" d="M300.42,606.12c-2.53-2.09-1.77-5.94-1.66-6.46.14-.69.7-3.52,2.74-4.4,1.25-.54,1.7.24,5.09,0,1.32-.09,1.76-.25,2.15.1.83.74-.36,2.21,0,4.5.4,2.55,2.26,3.19,1.86,4.6-.36,1.28-2.2,1.79-3.52,2.15-1.7.47-4.54,1.25-6.65-.49h-.01,0Z"/>
  <path class="st12" d="M260.7,588.61c1.44.13,2.6-1.38,2.74-1.57,1.23-1.61.79-3.56.68-4.01-.45-1.95-1.86-2.99-2.45-3.42-.77-.57-1.7-1.26-2.84-1.08-1,.16-1.59.9-2.35,1.86-.71.9-2.14,2.7-1.57,4.01.31.71.88.53,2.35,1.5,2.13,1.4,2.19,2.59,3.42,2.71h.02Z"/>
  <path class="st12" d="M322.22,577.94c.64-.88-.33-1.82,0-3.62.25-1.37.92-1.43,1.27-2.62.71-2.42-.92-6-2.93-6.18-1.04-.1-2.05.73-2.54,1.47-.45.67-.44,1.82-.39,4.11.07,3.32.09,4.02.49,5.09.38,1,.77,2.02,1.76,2.35.77.26,1.86.08,2.35-.59h0Z"/>
  <path class="st12" d="M316.25,558.38c.54-.25-.25-1.71.59-2.64.84-.95,2.14,0,3.79-.98,1.18-.7.9-1.41,2.18-2.05,1.15-.58,1.65-.14,2.64-.78.08-.05,1.54-1.03,1.47-2.25-.06-1.06-1.23-1.26-1.27-2.35-.04-.93.8-1.18.68-1.96-.18-1.2-2.35-1.78-2.67-1.86-.32-.08-1.48-.36-3.03,0-2.32.54-3.73,2.07-4.43,2.84-1.48,1.64-2.02,3.3-2.4,4.51-.5,1.6-.89,2.83-.49,4.3.55,1.99,2.32,3.52,2.93,3.23h0Z"/>
  <path class="st12" d="M334.84,540.38c-1.01-.76-1.34-1.84-1.66-2.93-.36-1.2-.87-2.92,0-4.11.51-.7,1.61-.91,3.82-1.33,2.62-.5,3.22-.16,3.42-.03.57.37.81,1.03,1.27,2.34.72,2.05,1.14,3.25.59,4.4-.44.91-1.27,1.32-1.96,1.66-.3.15-3.34,1.61-5.48,0h0Z"/>
  <path class="st12" d="M343.45,520.91c-1.21-.18-2.42-1.13-4.79-3.03-1.93-1.54-2.9-2.33-3.33-3.33-.06-.15-.94-2.27,0-4.5.46-1.09,1.49-2.51,2.28-2.35.76.16.68,1.65,1.53,1.86.89.22,1.44-1.28,2.54-1.17.98.09,1.03,1.32,2.35,1.76.99.33,1.27-.27,2.35-.1,1.37.21,1.46,1.26,3.62,3.03,1.79,1.47,2.65,1.5,2.84,2.45.24,1.2-.9,2.35-1.27,2.74-.34.35-1.07.99-3.62,1.76-2.3.69-3.45,1.04-4.5.88h0Z"/>
  <path class="st12" d="M301.09,476.14c1.07.43,2.37-.32,3.03-1.08,1.2-1.36,1.19-3.65,0-4.89-.07-.07-1.19-1.21-2.45-.88-1.4.37-1.77,2.27-1.86,2.74-.24,1.24-.16,3.53,1.27,4.11h.01Z"/>
  <path class="st12" d="M985.15,661.26c-2.35-.42-3.63-2.55-5.74-6.2-2.01-3.47-3.02-5.21-2.41-6.72,1.05-2.61,5.3-2.92,5.48-2.93.64-.04,2.33-.12,3.98.85.78.46,1.31,1.01,4.3,6.91.94,1.85,1.12,2.26,1.11,2.93-.03,2.04-1.75,3.9-3.59,4.7-.44.19-1.66.72-3.13.46h0Z"/>
  <path class="st12" d="M1008.31,674.17c-1.32-.38-.81-2-3.13-6-1.11-1.91-1.9-2.69-1.89-4.24,0-1.2.48-2.21.78-2.87.43-.93.91-1.95,2.02-2.74.21-.15,1.75-1.2,3.66-.91,1.84.28,2.92,1.63,3.97,2.93,1.4,1.76,2,4.17,3.2,9,.33,1.35.56,2.4,0,2.93-.64.62-1.65-.08-3.39,0-2.95.14-3.67,2.33-5.22,1.89h0Z"/>
  <path class="st9" d="M1166.73,384.27c-2.48,3.28-6.76,6.68-27,10.21-20.55,3.58-30.82,5.37-38.35,2.27-12.05-4.97-17.9-15.74-25.04-28.91-3.59-6.62-9.66-18.07-11.39-34.17-1.12-10.47-4.01-37.39,11.78-49.42,8.64-6.58,19.58-5.48,41.46-3.28,20.72,2.08,31.08,3.12,39.59,11.38,8.64,8.39,10.27,19.27,13.04,37.82,1.79,11.96,1.2,20.47.26,33.92-1.04,14.92-2.78,18.11-4.35,20.19h0Z"/>
  <path class="st9" d="M235.47,547.62c10.63,2.67,12.73,3.38,17.35,3.69,6.78.46,10.33.69,13.26-1.65,4.07-3.25,4.12-9.19,4.17-15.82.06-6.7.1-12.03-3.46-15.56-3.3-3.29-6.14-1.47-16.37-3.96-11.45-2.78-13.27-6.35-18.07-4.83-5.26,1.67-7.73,7.43-10.37,13.56-2.51,5.83-6.09,14.15-2.41,19.3,1.34,1.88,2.65,1.94,15.89,5.27h0Z"/>
  <rect class="st9" x="1135.74" y="829.59" width="4.4" height="59.87"/>
  <rect class="st9" x="1131.92" y="834.77" width="3.16" height="51"/>
  <rect class="st9" x="1010.26" y="371.53" width="8.74" height="57.91"/>
  <rect class="st9" x="1019.75" y="371.53" width="7.24" height="57.91"/>
  <path class="st7" d="M509.36,682.3h-10.32"/>
  <path d="M0,0s0,0,0,0v-.02s0,.02,0,.02Z"/>
  <path d="M1240.6,1036.57s.06,0,.06.02c0,.01-.02.03-.06.04"/>
</svg>