<?xml version="1.0" encoding="UTF-8"?>
<svg id="Discord.gg-_x40_marazm" xmlns="http://www.w3.org/2000/svg" version="1.1" viewBox="0 0 840.15 963.75">
  <!-- Generator: Adobe Illustrator 30.1.0, SVG Export Plug-In . SVG Version: 2.1.1 Build 136)  -->
  <defs>
    <style>
      .st0 {
        fill: #777;
      }

      .st1 {
        fill: none;
        stroke-width: .5px;
      }

      .st1, .st2 {
        stroke: #000;
      }

      .st3 {
        fill: #987f00;
      }

      .st2 {
        fill: #363636;
      }
    </style>
  </defs>
  <path class="st2" d="M61.25,565.7v56.3c11.78.03,23.55.07,35.33.1.01.54.02,1.09.04,1.64-.76,0-1.52.01-2.28.02.01,1.15.03,2.3.04,3.46h-2.22c-.01-1.14-.03-2.27-.04-3.4-10.29-.05-20.58-.1-30.86-.16,0,6.81,0,13.62,0,20.43,10.34,0,20.67,0,31.01.01-.01-4.74-.04-9.49-.05-14.23.7-.02,1.4-.03,2.11-.04.06,6.93.11,13.87.16,20.8-6.55.04-13.1.09-19.65.13.01,2.77.01,5.54.03,8.32,9.71.02,19.42.03,29.13.05l-.14-35.52c-.96,0-1.93,0-2.89-.01,0-.53-.01-1.07-.01-1.59h41.89v3.25h-29.65v38.85h21.05v5.35h41.2v-26.65h84.2v26.65h41.2v-5.05h21.35v-21.65h33.2v64h-11.25v82.1h50.4v37.05h53.6v-106.4l8.7-8.7h25.4l8.7,8.7v106.4h54.45v-36.45h3.25v31.4h80.05v5.05h4.15v81.8h24.9v-56.3h-4.45v-25.5h8.3v81.8h25.2v-56.3h-4.45v-25.5h22.85v-5.05h28.45v-29.35h-28.45v-8h12.15v-15.4h-12.15v-248.05h8.9v-10.65h-8.9v-49.5h-60.75v9.2h-28.8v21.05h-20.45v-41.5h106.75v-173.7h-12.15v-8.6h-7.7v-22.5h-11.85v-1.5h-75.3v56.9h-86.55v-58.1h14.85v-10.05h-28.45v14.5h-48.35v-14.5h-28.45v10.05h14.25v58.1h-76.5v8.3h-8.6v-6.8h-4.15v-87.45h-82.15v28.75h-14.5v-2.35h-54.6v-2.95h-89.25v25.2h40.6v56H61.25v24.9h61.95v21.9h-61.95v79.7h43.1v10.25h38.45v37.4h-38.45v24.75h38.45v39.45h-38.45v8.95c-14.36.15-28.74.3-43.1.45h0ZM117.55,390.25v-4.7h25.2v4.7h-25.2ZM117.55,342.45v-4.7h25.2v4.7h-25.2ZM131.25,365.05v-10.65h11.55v10.65h-11.55ZM175.85,482v-77.6h36.85v-8.2h60.7v8.2h34.45v2.4c-34.2,18.35-104.9,56.5-114.2,62.05-8.4,5-12.45,11.3-14.45,14.4-.75,1.2-1.2,1.9-1.5,1.9-.95,0-1.85-1.05-1.85-3.15h0ZM175.85,603.9v-77.6c0-2.1.85-3.1,1.9-3.1.3,0,.75.7,1.5,1.9,2,3.1,6.05,9.4,14.45,14.4,9.3,5.55,80,43.65,114.2,62.05v2.4h-34.45v8.2h-60.75v-8.2l-36.85-.05h0ZM177.45,300.5v-38.85h108.85v-22.9h32.85v6.25h-16.15v22.9h16.15v12.3h-4.35v2.15h-10.4v15.2h10.4v2.9l-137.35.05h0ZM249.95,527.45c0-.2.3-.8.8-1.75,1.7-3.3,5.55-10.65,5.55-18.3v-6.85c0-5.7-2.7-11.55-4.5-15.45-.9-1.95-1.55-3.4-1.55-4.1,0-1.45,1.85-2.75,2.95-3.35,2.75-1.6,11.6-6.9,20.85-12.5h0c11.75-7.1,24.25-14.55,25.75-15.35,2.7-1.35,8.1-2.35,8.1,2.7v39h-34.45v25.05h34.45v39.55c0,3.05-2.1,5.3-3.95,5.3-1.75,0-5.05-2.15-7.85-3.95h0l-.55-.35c-1.75-1.15-17.25-10.25-29.2-17.3h0c-7.35-4.35-13.35-7.85-13.95-8.25-1.65-1.05-2.45-3.25-2.45-4.1h0ZM333.2,608.5v-86.85c0-2,1.6-3.6,3.6-3.6h14.75c2,0,3.6,1.6,3.6,3.6v86.85c0,2-1.6,3.6-3.6,3.6h-14.75c-2,0-3.6-1.6-3.6-3.6h0ZM333.2,486.6v-86.85c0-2,1.6-3.6,3.6-3.6h14.75c2,0,3.6,1.6,3.6,3.6v86.85c0,2-1.6,3.6-3.6,3.6h-14.75c-2,0-3.6-1.6-3.6-3.6h0ZM380.55,661.9v-82.55l8.2-10.55v-26.95h37.5v-12.6h-37.5v-11.35c0-2.4,1.95-4.3,4.3-4.3h24.35c2.95.25,9.9,2.2,14,8.2,1,1.5,1.8,2.8,2.5,3.95,2.85,4.75,4.15,6.95,12.5,6.95h67.2v-58h-73.7c-1.25,1.5-4.45,5.4-7.15,9.2-3.4,4.75-9.2,10.25-15.35,10.25h-24.35c-2.4,0-4.3-1.95-4.3-4.3v-13.1h37.5v-11.95h-37.5v-25.9l-8.2-11.25v-78.5h36.85v-11.95h14l8.55,8.5h59l8.55-8.5h16.05v11.95h37.2v79.1l-8.2,9.9v26.6h-37.55v11.95h37.55v52.5h-37.55v12.6h37.55v26.6l8.2,11.25v82.2h-36.5v11.95h-15l-8.85-8.85h-58.8l-8.85,8.85h-15.35v-11.95l-36.85.05h0Z"/>
  <path class="st0" d="M381.4,570.75c1.1,0,2,.9,2,2h0c0,1.1-.9,2-2,2s-2-.9-2-2,.9-2,2-2h0ZM113.3,616.4c1.2,0,2.15.95,2.15,2.15h0c0,1.2-.95,2.15-2.15,2.15h0c-1.2,0-2.15-.95-2.15-2.15s1-2.15,2.15-2.15h0ZM104.15,617.8c1.2,0,2.15.95,2.15,2.15h0c0,1.2-.95,2.15-2.15,2.15h0c-1.2,0-2.15-.95-2.15-2.15s.95-2.15,2.15-2.15h0ZM385.4,516.2c1.1,0,2,.9,2,2s-.9,2-2,2-2-.9-2-2,.9-2,2-2h0ZM376.75,624.05c1.1,0,2,.9,2,2s-.9,2-2,2h0c-1.1,0-2-.9-2-2h0c0-1.1.9-2,2-2h0ZM376.75,379.6c1.1,0,2,.9,2,2s-.9,2-2,2h0c-1.1,0-2-.9-2-2h0c0-1.1.9-2,2-2h0ZM381.4,434.95c1.1,0,2,.9,2,2s-.9,2-2,2-2-.9-2-2,.9-2,2-2h0ZM385.4,485.1c1.1,0,2,.9,2,2s-.9,2-2,2-2-.9-2-2,.9-2,2-2ZM489.5,710.45c1.05,0,1.95.85,1.95,1.95h0c0,1.05-.85,1.95-1.95,1.95s-1.95-.85-1.95-1.95.85-1.95,1.95-1.95h0ZM438.65,671.35c1.05,0,1.95.85,1.95,1.95s-.85,1.95-1.95,1.95-1.95-.85-1.95-1.95h0c.05-1.1.9-1.95,1.95-1.95h0ZM449.95,710.45c1.05,0,1.95.85,1.95,1.95h0c0,1.05-.85,1.95-1.95,1.95s-1.95-.85-1.95-1.95.85-1.95,1.95-1.95h0ZM444.8,776.25c1.05,0,1.95.85,1.95,1.95h0c0,1.05-.85,1.95-1.95,1.95s-1.95-.85-1.95-1.95.85-1.95,1.95-1.95h0ZM494.85,776.25c1.05,0,1.95.85,1.95,1.95s-.85,1.95-1.95,1.95-1.95-.85-1.95-1.95.9-1.95,1.95-1.95ZM699.1,788.8l-1.35-5.65,4.35-1.05,1.35,5.65-4.35,1.05ZM660.35,795.25l3.85-5.1,1.85,1.4-3.85,5.1-1.85-1.4h0ZM702.05,736.15l-.65-7.4,3-.25.65,7.4-3,.25ZM679.3,753.05l-1.1-12.8,2.05-.2,1.1,12.8-2.05.2h0ZM702.05,799.35v-4.3h2.05v4.3h-2.05ZM649.15,795.6v-5.4h6.35v5.4h-6.35ZM377.5,740.75v7.2h2.4v-7.2h-2.4ZM410.3,740.75v7.2h2.4v-7.2h-2.4ZM542.5,781.25v7.2h2.4v-7.2h-2.4ZM572.8,781.25v7.2h2.4v-7.2h-2.4ZM572.8,714.35v-7.2h2.4v7.2h-2.4ZM542.5,714.35v-7.2h2.4v7.2h-2.4ZM86.1,593.3v-13.65h2.4v13.65h-2.4ZM112.1,593.3v-13.65h2.4v13.65h-2.4ZM377.5,729.1v-13.65h2.4v13.65h-2.4ZM410.3,729.1v-13.65h2.4v13.65h-2.4ZM542.5,738.75v-13.65h2.4v13.65h-2.4ZM572.75,738.75v-13.65h2.4v13.65h-2.4ZM542.5,773.15v-13.65h2.4v13.65h-2.4ZM572.75,773.15v-13.65h2.4v13.65h-2.4ZM363.45,740.75v7.2h2.4v-7.2h-2.4ZM396.25,740.75v7.2h2.4v-7.2h-2.4ZM528.45,781.25v7.2h2.4v-7.2h-2.4ZM558.7,781.25v7.2h2.4v-7.2h-2.4ZM558.7,714.35v-7.2h2.4v7.2h-2.4ZM528.45,714.35v-7.2h2.4v7.2h-2.4ZM72.05,593.3v-13.65h2.4v13.65h-2.4ZM98.05,593.3v-13.65h2.4v13.65h-2.4ZM363.45,729.1v-13.65h2.4v13.65h-2.4ZM396.25,729.1v-13.65h2.4v13.65h-2.4ZM528.4,738.75v-13.65h2.4v13.65h-2.4ZM558.7,738.75v-13.65h2.4v13.65h-2.4ZM528.4,773.15v-13.65h2.4v13.65h-2.4ZM558.7,773.15v-13.65h2.4v13.65h-2.4ZM363.45,743.4v4.55h16.45v-4.55h-16.45ZM396.25,743.4v4.55h16.45v-4.55h-16.45ZM528.4,783.9v4.55h16.45v-4.55h-16.45ZM558.7,783.9v4.55h16.45v-4.55h-16.45ZM558.7,711.7v-4.55h16.45v4.55h-16.45ZM528.4,711.7v-4.55h16.45v4.55h-16.45ZM352.8,778.55c0-2.15,1.75-3.9,3.85-3.9h11.1c2.15,0,3.9,1.7,3.9,3.85h0c0,2.15-1.75,3.85-3.85,3.9h-11.1c-2.15,0-3.85-1.7-3.9-3.85h0ZM72.05,590.65v-9.15h16.45v9.2h-16.45v-.05ZM68,612.7c0-2.05,1.65-3.7,3.7-3.7h10.7c2.05,0,3.7,1.65,3.7,3.7s-1.65,3.7-3.7,3.7h-10.7c-2,.05-3.7-1.65-3.7-3.7ZM105.1,612.7v-4.2h7.05v4.2h-7.05ZM145.65,438.9l6.25-12.1,2.65,1.35-6.25,12.1-2.65-1.35ZM144.55,545v-17.45h2.8v17.45h-2.8ZM98.05,590.65v-9.15h16.45v9.2h-16.45v-.05ZM363.45,726.45v-9.2h16.45v9.2h-16.45ZM492.95,799.05v-14.2h2.75v14.2h-2.75ZM492.95,773.05v-14.2h2.75v14.2h-2.75ZM468.05,707.15l.25-5.8,10.25.4-.25,5.8-10.25-.4ZM492.95,741.1v-14.2h2.75v14.2h-2.75ZM443.4,741.1v-14.2h2.75v14.2h-2.75ZM443.4,765.95v-14.2h2.75v14.2h-2.75ZM443.4,800.35v-14.2h2.75v14.2h-2.75ZM443.4,818.75v-14.2h2.75v14.2h-2.75ZM396.25,726.45v-9.2h16.45v9.2h-16.45ZM528.4,736.1v-9.2h16.45v9.2h-16.45ZM567.85,516.35v-6h10.6v6h-10.6ZM570.1,520.2v-15h7.1v15h-7.1ZM552.4,516.35v-26.9h3.85v26.9h-3.85ZM558.2,459.4v-6.05h6v6.05h-6ZM570.1,460.9v-7.55h4.05v7.55h-4.05ZM596.2,361.15v-3.7h3.35v3.7h-3.35ZM596.2,368.05v-3.7h3.35v3.7h-3.35ZM596.2,379.75v-3.7h3.35v3.7h-3.35ZM596.2,386.65v-3.7h3.35v3.7h-3.35ZM599,331.05v-13.2h1.8v13.2h-1.8ZM599,405.05v-13.2h1.8v13.2h-1.8ZM596.2,310.8v-16.9h4.6v16.9h-4.6ZM596.2,426.8v-16.9h4.6v16.9h-4.6ZM563.95,447.8v-3.75h9.7v3.75h-9.7ZM563.05,450.75v-2.95h13.25v2.95h-13.25ZM563.05,462.05v-10.15h5.55v10.15h-5.55ZM455.95,503.2c0-2.3,1.85-4.15,4.15-4.15h18.2c2.3,0,4.15,1.85,4.15,4.15h0c0,2.3-1.85,4.15-4.15,4.15h-18.2c-2.3,0-4.15-1.85-4.15-4.15h0ZM506.05,522.5v-4.15h-7.2v4.15h7.2ZM502.85,502.8v-4.15h7.2v4.15h-7.2ZM510.6,528.4v-10h-4.55v10h4.55ZM437.6,514.55v-3.15h5.6v3.15h-5.6ZM357.7,453.5l8.9,12.85,2.35-1.65-8.9-12.85-2.35,1.65ZM357.7,557.2l8.9-12.85,2.35,1.65-8.9,12.85-2.35-1.65ZM376.95,564.25v3.2h7.9v-3.2h-7.9ZM378.45,443.6v-3.2h7.9v3.2h-7.9ZM371.95,644.25v-31.3h2.9v31.3h-2.9ZM475.75,321.95l7.1-.1-.05-3.4-7.1.1.05,3.4ZM464.7,328.65l17.6,1.3.5-6.8-17.6-1.3-.5,6.8ZM434.5,296.25l4.3-.7-.55-3.5-4.3.7.55,3.5h0ZM434.9,268.45l3.95.4.9-8.45-3.95-.4-.9,8.45ZM449.05,252.65h3.35v-5.35h-3.35v5.35ZM455.15,267h7.6v-3.1h-7.6v3.1ZM465.7,267h7.6v-3.1h-7.6v3.1ZM468.85,248.85h7.6v-3.1h-7.6v3.1ZM456.25,248.85h7.6v-3.1h-7.6v3.1ZM449.45,342.15h15.75v-5.15h-15.75v5.15ZM444.75,345.05h53.4v-2.9h-53.4v2.9ZM444.75,668.45h53.4v2.9h-53.4v-2.9ZM324.4,592.75v-31.3h2.9v31.3h-2.9ZM324.4,457.85v-31.3h2.9v31.3h-2.9ZM371.9,410.4v-31.3h2.9v31.3h-2.9ZM371.9,612.9v-29.45h6.85v29.45h-6.85ZM324.4,561.95v-25.9h6.85v25.9h-6.85ZM324.4,427.05v-25.9h6.85v25.9h-6.85ZM371.9,379.6v-25.9h6.85v25.9h-6.85ZM371.9,661v-20.05h6.85v20.05h-6.85ZM319.8,271.3l1.25-6.6,4.85.9-1.25,6.6-4.85-.9ZM319.8,263.5v-4.85h7.1v4.85h-7.1ZM317.9,237.3v-5.45h3.75v5.45h-3.75ZM311.6,238.05v-3.45h5.25v3.45h-5.25ZM231.6,327.45v-7.2h27.65v7.2h-27.65ZM297.25,358.2v-28.7h3.35v28.65h-3.35v.05h0ZM290.45,360.05v-3.75h10.2v3.75h-10.2ZM270.7,360.05v-3.75h17.65v3.75h-17.65ZM301.75,360.05v-12.45h15.65v12.45h-15.65ZM279,346.05v-18.6h8v18.6h-8ZM166,359.35v-29.45h9.9v29.45h-9.9ZM181.35,327.45v-7.2h27.65v7.2h-27.65ZM133.9,260.15v-7.2h11.3v7.2h-11.3ZM175.95,260.15v-8.15h7.9v8.15h-7.9ZM216.1,260.15v-5.2h7.9v5.2h-7.9ZM221.45,246.45v-2.4h32.7v2.4h-32.7ZM261.25,241.5v-6.9h12.2v6.9h-12.2ZM449.2,672.8l14.9.15v2.6l-14.9-.15v-2.6ZM475.9,673.85l14.9.15v2.6l-14.9-.15v-2.6ZM494.95,345h3.2v-8.95h-3.2v8.95h0ZM494.95,668.45h3.2v8.95h-3.2v-8.95h0ZM444.75,345h3.2v-8.95h-3.2v8.95ZM444.75,668.45h3.2v8.95h-3.2v-8.95ZM324.4,609.55v-20.05h6.85v20.05h-6.85ZM324.4,474.6v-20.05h6.85v20.05h-6.85ZM371.95,427.15v-20.05h6.85v20.05h-6.85ZM383,543.3v24.1h2.95v-24.1h-2.95ZM384.45,464.5v-24.1h2.95v24.1h-2.95ZM434.45,514.5v-22.9h4.55v22.9h-4.55ZM499.4,510.35v-11.7h4.55v11.7h-4.55ZM570.1,491.6v-17.9h7.1v17.9h-7.1ZM586.2,592.85v-28.15h7.95v28.15h-7.95ZM624.15,759.3l7.3-4.75,1.35,2.05-7.3,4.75-1.35-2.05ZM626.15,740.05l2.15-8.4,1.9.5-2.15,8.4-1.9-.5ZM639.5,734.85l3.55-7.95,1.8.8-3.55,7.95-1.8-.8ZM643.1,740.1v-6.75h4.3v6.75h-4.3ZM656.85,733.35v-3.3h10.35v3.3h-10.35ZM646.6,744.55v-11.25h6.95v11.25h-6.95ZM664.3,723.25v-8.95h3.45v8.95h-3.45ZM614.75,723.25v-2.95h9.4v2.95h-9.4ZM683.1,652.95l-.95-8.65,3.65-.4.95,8.65-3.65.4ZM702.1,597.5v-11.35h2.65v11.35h-2.65ZM699.45,509.15v-6.25h5.35v6.25h-5.35ZM653.45,544.65v-4.35h10.3v4.35h-10.3ZM650.05,574.55v-6.25h23.55v6.25h-23.55ZM650.05,604.25v-6.25h23.55v6.25h-23.55ZM595.9,603.75v-6.25h24.35v6.25h-24.35ZM700.1,482.65l-3.35.25-.7-9.6,3.35-.25.7,9.6ZM616.2,484.1v-3.4h7.55v3.4h-7.55ZM633.65,474.9v-5.55h4.1v5.55h-4.1ZM596.35,530.65v-7h4.45v7h-4.45ZM596.35,541.5v-7h4.45v7h-4.45ZM620.25,540.3v-15.9h4.45v15.9h-4.45ZM622.8,569.7v-23.4h7.3v23.4h-7.3ZM650.05,604.25v-16.6h5.45v16.6h-5.45ZM632.4,651.05v-18.3h8.15v18.3h-8.15ZM613.6,637.55v-25.1h8.35v25.1h-8.35ZM676.35,659.8v-14.05h5v14.05h-5ZM632.2,723.25v-8.95h3.45v8.95h-3.45ZM647.4,723.25v-8.95h3.45v8.95h-3.45ZM646.6,692.25v-8.95h3.45v8.95h-3.45ZM655.5,696.1v-8.95h3.45v8.95h-3.45ZM600,693l1.2-8.85,3.45.45-1.2,8.85-3.45-.45ZM616.8,693.15l-.6-8.9,3.45-.25.6,8.9-3.45.25ZM632.4,700l-6.9-5.7,2.2-2.65,6.9,5.7-2.2,2.65ZM586.2,637.55v-28.15h7.95v28.15h-7.95ZM558.7,736.1v-9.2h16.45v9.2h-16.45ZM528.4,770.55v-9.2h16.45v9.2h-16.45ZM544.65,750.6v-3.5h14.05v3.5h-14.05ZM558.7,770.55v-9.2h16.45v9.2h-16.45ZM649.1,824.05v-9.2h5.4v9.2h-5.4Z"/>
  <path class="st3" d="M390.4,476.2h35.35v-10.9h-35.35v10.9ZM514.35,476.2h36.8v-10.95h-36.8v10.95ZM390.4,541.3h35.35v-11.55h-35.35v11.55ZM514.6,541.35h36.65l-.1-11.65h-36.65l.1,11.65ZM104.7,454.85h37.9v-10.35h-37.9v10.35h0ZM104.7,566h37.9v-9.05h-37.9v9.05h0ZM104.7,516.8h37.9v-24.9h-37.9v24.9h0ZM273.45,516.65h34v-24.9h-34v24.9ZM176,612h36.85v-8.1h-36.85v8.1ZM273.6,612.1h33.5v-7.9h-33.5v7.9ZM175.9,404.4h36.85v-8.1h-36.85v8.1h0ZM273.1,404.4h34.55v-8.05h-34.55v8.05ZM381.75,348.65h35.15v-11.3h-35.15v11.3ZM523.5,349.2h36.4v-11.85h-36.4v11.85ZM381.75,673.9h35.15v-11.5h-35.15v11.5ZM524.15,673.9h35.75v-11.85h-35.75v11.85ZM689.25,274.85h-7.7v-8h7.7v8ZM312.7,663.9h-12.15v-7.4h12.45l-.3,7.4h0ZM113.65,663.55h17.25v-6.25h-17.25v6.25h0ZM123.7,342.95h19.8v10.95h-19.75l-.05-10.95h0ZM312.7,663.9l.3-18.6h8.6v18.6h-8.9ZM122.3,657.7v-10h-8.65v10h8.65ZM130.7,353.45v11.8h-7v-11.8h7ZM310.25,253.25v7.8h-6.75v-7.8h6.75ZM319.15,267.4h-15.65v-6.7h15.65v6.7ZM432.85,240.45h-14.25v-8.65h14.25v8.65ZM522.4,240.45h-14.85v-8.65h14.85v8.65ZM637.55,284.6h-23.8v-9.7h23.8v9.7ZM639.1,447.9h-25.65v-8.2h25.65v8.2ZM653.95,460.6v19.45h-9.15v-19.45h9.15ZM732.9,801.75v18.4h-8.5v-18.4h8.5ZM665.8,468h-12.65v-7.4h12.65v7.4ZM724.4,820.15h-11.9v-6.9h11.9v6.9ZM544.85,798.05h-20.55v-8.6h20.55v8.6ZM395,798.05h20.7v-9.1h-20.7v9.1ZM544.85,798.05v11.35h-7.65v-11.35h7.65ZM395,798.05v11.45h8.6v-11.45h-8.6Z"/>
  <path d="M346.95,360.45h8.2v-42.6h-8.2v42.6Z"/>
  <path class="st1" d="M665.85,851.7h-3.8M670.75,851.7h10.9M668.95,825.9h13.45M640.5,825.9h12.45M642.5,851.7h10.45M637.4,851.7h-4M634.7,825.9h-2M628.45,806.95v13.9M628.45,802.5v-13.25M628.45,789.25h-33.35M628.45,789.25h5.45M640.5,789.25h-6.6M645.85,789.25h29.15v-18.1M675,768.95v2.2M675,771.15h-41.1M595.1,771.15v18.1M595.1,771.15h38.8M595.1,771.15v-3.35M595.1,789.25h-7.7M633.9,782.35v6.9M633.9,777.6v-6.45M705.45,811.9v8.6M712.7,813.45v-11.8h11.8v11.8h-11.8ZM705.45,804.95v-12.7M705.45,780.5v2.7M705.45,770.25v-2.4M675,756.65v-3.9M675,708.05v15.4M675,697.15v-16h-79.9v25.65M585.5,767.85h9.6M595.1,767.85v-37.75M585.5,730.1h9.6M595.1,730.1v-6.65M595.1,723.45h12.15M595.1,723.45v-16.6M613,723.45h3.35M675,723.45v29.3M675,723.45h-21.2M662.05,752.7h12.9M655.9,752.7h-2.1M642.5,752.7h11.3M636.55,752.7h-1.85M624.45,752.7h10.25M617.8,752.7h-1.5v-29.3M616.3,723.45h18.4M634.7,752.7v-29.3M634.7,723.45h19.05M653.75,752.7v-29.3M587.4,806.95v13.1M587.4,801.65v-12.4M587.4,789.25h-38.45M537.15,809.5v-11.5h-12.7v27.85M545.85,789.45h-32.55v-82.6h81.8M561,673.8l-36.85.05M602.4,519.9h-7.3v25.35M614.8,519.9h4.85M644.4,545.25h30.55M674.95,545.25v-25.35h-55.35M674.95,545.25v106.3h-79.9v-106.3M639.25,545.25h-19.65M619.6,545.25v-25.35M619.6,545.25h-4.85M602.4,545.25h-7.3M632.9,490h-16.3M639.25,490h5.15M674,477v13h-29.6M674,470.65v-10.25M665.85,467.95v11.8h-11.8v-11.8h11.8ZM644.4,490v-21.15M595.1,441.35v6.35M595.1,431.4v-78.2M595.1,342.6v-43.2M600.6,274.95h-5.5M610.25,274.95h59.8M689.75,274.95h-19.7M670.05,274.95v-13.6M670.05,256.85v-12.7M639.25,284.35h-25.7v154.9h25.7M492.45,529.4v3M492.45,523.35v-3.9M492.45,484.4v2.7M492.45,477.75v-3.35M452.85,487.15h39.6M492.45,487.15v32.3M452.85,519.45h39.6M447.1,519.45h-3.35v-32.3h3.35M403.55,809.5v-11.5h12.1v27.85M355.45,706.8h71.55v60.9M380.45,776.95v12M394.8,776.95v12h32.2v-21.2M394.8,771.5v-3.75h32.2M380.45,771.5v-3.75h-35.95M380.45,673.8h37M345.5,625.65v-13.35M300.5,664.7v-8.25M300.5,656.45v-13.35h12.45v13.35h-12.45ZM293.1,643.1h-33.2M307.85,612.1h-34.25M175.65,612.1h36.3M140,643.1h35.6M133.85,643.1v1.7M133.85,664v-19.15M133.85,644.8h-11.65v12.3h20.2v12M124.95,614v-10.25h17.45M142.4,603.75v18.25M142.4,603.75v-18.15h-17.45v9.95M93.8,610.95v10.9M93.8,605.8v-2.05h-32.5M142.45,580.8v-14.7h-38M61.3,566.1h43.15M61.25,444.45h43.15M143.5,407.25v3.4M111.95,414.1v-3.4h31.5M143.5,410.65v33.9h-31.5M111.95,420.95v23.6M111.95,444.55h-7.55M90.75,401.1v22.25h-29.45M90.75,395.25v-5.15M90.75,390.15h-29.45M90.75,390.15h26.7M143.45,390.15v10.95M143.45,390.15h-26.05M143.45,390.15v-4.6M143.45,372.3v13.25M143.45,366.85v-1.4M143.45,351.8v2.55M117.45,374.05v11.5M117.45,390.1v-4.6M117.45,369.25v-3.75h13.8M143.45,365.45v-11.15M143.45,365.45h-12.25M143.45,345.95v-3.4M143.45,324.4v13.2M143.45,320.3v-2.75M117.45,322v-4.45M117.45,326.45v11.15M151.7,302.8h-8.2M151.7,261.75h-8.2M169.85,261.75h7.2M169.85,302.8h7.2M177.05,302.8v2.75M177.05,302.8v-2.05M177.05,311.05v13.35M177.05,360.7v-36.3M177.05,377.8h88.35v-17.1M265.4,347v13.7M265.4,360.7h35.6M346.9,360.7h-45.9M301,360.7v-32.5M301,318.25v9.9M301,328.15h17.1M329.75,328.15h17.1M337.65,300.75h4.8M318.15,300.75h-2.75M310.25,252.15v8.55h8.9v6.85M264,306.95v-6.15M301,306.95v-6.15M264.05,314.45v10.25M264.05,340.5v-15.75M264.05,324.75h-37.65M215.4,324.4h-38.35M175.65,396.2h37M273.25,396.2h34.95M379.6,337.25h38.5M560.7,337.25h-37.2M454.1,246.05v17.1h24.6M483,263.15h3.2v-17.1M117.45,385.55h26.05M143.45,354.3h-12.25v11.15M117.45,337.6v4.9h26M117.45,337.6h26.05M143.45,337.6v4.9M104.4,444.55v10.25h38l.15,37.25h-38.3v24.75h38.3l-.15,40h-38v9.25"/>
  <path class="st0" d="M63.67,624.15h-1.99v19.53h30.09c0-.76-.01-1.52-.02-2.28-9.33.03-18.67.06-28.01.09-.03-5.78-.05-11.56-.07-17.34Z"/>
</svg>