<?xml version="1.0" encoding="UTF-8"?>
<svg id="Discord.gg-_x40_marazm" xmlns="http://www.w3.org/2000/svg" version="1.1" viewBox="0 0 840.15 963.75">
  <!-- Generator: Adobe Illustrator 30.1.0, SVG Export Plug-In . SVG Version: 2.1.1 Build 136)  -->
  <defs>
    <style>
      .st0, .st1, .st2 {
        fill: none;
      }

      .st0, .st1, .st2, .st3 {
        stroke: #000;
      }

      .st4 {
        fill: #777;
      }

      .st1 {
        stroke-width: .5px;
      }

      .st5 {
        fill: #987f00;
      }

      .st2 {
        stroke-width: .72px;
      }

      .st3 {
        fill: #363636;
      }
    </style>
  </defs>
  <path class="st3" d="M698.75,841.5h4.75c0-5.15-.05-10.35-.05-15.5h-4.9v-1.25h5v-3.1h29v-29.3h-29v-240.15h81.4v-24.9h-50.85v11.2h-5.3v-6.55h-12.5v-11.85h-12.8v-35.2h81.4v-24.85h-50.85v10.5h-5.3v-6.85h-25.25v-13.7h-1.55V112.95h-31.15v42.05h-76.75v-44.85h-92.95V.5h-63.3v109.65h-94.8v102.8h-52.1v10.9h-5.3v-6.55h-26.2v3.05h-32.4v-37.7h-30.65v78.55h-6.25v-78.5h-30.9v38.05h-33.7v16.2H44.5v24.3h50.85v-10.9h4.7v6.55h25.6v4.35h-20.9v60.1h-3.1v69.15h-42.1v53.25h-29.75l-18.7,8.1v24.3H.5v10.9h10.6v33.95H.5v10.9h10.6v23.65l18.7,8.7h9.35v21.4H9.1v25.85h-4.85v24.1h4.85v31.45h82.8v18.4c-14.45.05-28.9.1-43.4.1,0,8.1-.05,16.2-.05,24.35l83.05.15v-1.85h4.05v146h58.6v4.05h-9.15v104.95h62.9v-105.25h-9.4v-4.05h58.65v-145.4h3.75v1.55h26.1v24.3h99.65v30.1h-81.8v22.75h47.7v37.45h78v10.3h10.3v-10.3h122.9v-3.1h79.25v3.1h4.6c0,.45,0,.9.05,1.3-1.65,0-3.3.05-4.95.05l-.05,15.4,5.15-.1.05,1.4-1.9-.05-.05,13.6h-1.2l.05-10.6h-16l-.1,16.9,15.95.05v-1.75h1.15l-.2,26.4,1.95-.05.05,1.05-22.4-.1-.1,14.3,20.95.05v1.4h-2.45l-.05,8.75-10.55-.05-.15,16,20.65.15.05-24.7-2.8.05v-1.25l12.45.1.05-9.1-2.5-.05.05-5.2-1.75.05v-1.3h1.7v-11.5l1.6-.05-.2,16.8,11.55.05v-15.6l-6.65-.05-.05-1.3,6.6.1v-1.5h1.35l-.2,48.55,124.85-.95.1-75.6-124.8-.2v16.75h-1.25v-1.7l-12.95.05v-18.45h-1.95v-1.35c0-.25-.1-.45-.15-.7-.05-.65,0-1.35-.05-2-.05-.2-.05-.4-.1-.6-.05-.55-.1-1.4.1-2.5M110.4,694.75v-29.65h30.55v4.15h-5.95v27.55h-3.55v-2.05h-21.05ZM259.05,268.7v-31.1h84v7.7h-30.45v6.65l5.4,5.4v2.25h-8.9v-14.3h-8.75v23.4h-41.3ZM291.75,669.15v-3.55h28.55v-24.25h32.85v63.45h73.2v15.3h-31.85v-3.95h-26.5v3.95h-26.45v-24.8h-40.25v1.65h-4.05v-27.8h-5.5ZM334.3,611.95v-42.3h18.9v42.3h-18.9ZM334.3,440.7v-42.65h18.9v42.65h-18.9ZM343.05,304.4v-7h106.75v7h-106.75ZM345.15,375v-52.8h8.05v52.8h-8.05ZM442.1,512.15v-16.85h36.6v16.85h-36.6ZM486.6,304.35v-7h107.85v7h-107.85ZM559.25,567.9v-20.45l18.2-18.15h16.5v59.95h80.35v63.9h-79.7v-3.3h-5.35v-8.25h-19.6c-1.2,0-2.15-.95-2.15-2.15v-63.3l-8.25-8.25h0ZM560.8,459.7v-20.15l7.2-7.15v-65c0-1.2.95-2.15,2.15-2.15h19.05v-7.5h4.8v119.4h-15.65l-17.55-17.45h0ZM593.95,273.8v-83.15h75.5v83.15h-75.5ZM603.7,794.8v-7.65h70.6v7.65h-70.6ZM613.8,465.35v-14.95h60.4v9.3h-29.7v29.3h-9.4v-23.65h-21.3Z"/>
  <path class="st5" d="M110.65,665.1v-8.2h9.25v8.2h-9.25ZM60.65,594.65h6.6v-14.2h-6.6v14.2ZM61.3,709.4h15.7v-7.6h-15.7s0,7.6,0,7.6ZM61.3,702.05h7.5l.1-8.3,8.05-.25v-7.25h-15.7l.05,15.8h0ZM99.25,594.7h9.65v-14.2h-9.65v14.2ZM105.15,565.1h26.4l.05-2.1,3.6.05v-6.8h-30.1l.05,8.85h0ZM105.15,517.35h11.85v-25.05h-11.8v25.05h-.05ZM105.15,452.3h30.05v-7.8h-30.05v7.8h0ZM110.65,656.9h9.25v-9.6h-7v1.1l-2.25-.1v8.6ZM119.9,656.9v8.2h11.05v-8.2h-11.05ZM120.75,364.2h8.55v-30.7h-8.55v30.7h0ZM120.75,335.1h9.85v-11.5h-9.85v11.5h0ZM128.5,352.7h6.8v-8.95h-6.8v8.95ZM128.6,343.2h6.65v-8.1h-6.65v8.1h0ZM185.75,611.5h24.4v-8.15h-24.4v8.15ZM185.7,404.05h25v-7.75h-25v7.75ZM273.3,611.5h25.15v-7.8h-25.15v7.8ZM273.3,404.05h25.15v-7.75h-25.15v7.75ZM274.7,517.1h10.95v-25.05h-10.95v25.05ZM286.85,280.5h8.65v-12.6h-8.65v12.6ZM299.8,259.9v8.6h17.95v-8.85h-8.55v-15.1h-9.4v15.35h0ZM301.05,664.9h18.4v-14.55h-7.25v6.55h-11.2l.05,8h0ZM391.9,673.3h22.85v-11.75h-22.85v11.75ZM391.65,349.1h23.5v-11.75h-23.5v11.75ZM393.15,808.45h7.85v-11.5h-7.85v11.5ZM400.4,540.8h23.3v-11.75h-23.3v11.75ZM400.55,476.15h23.15v-11.75h-23.15v11.75ZM393.15,797.55h13.6v-8.85h-13.6v8.85ZM416.45,239.25h13.8v-7.5h-13.8v7.5ZM437.45,603.1l6.65,3.5,6.7-12.65-6.65-3.5-6.7,12.65ZM447.6,571.6h17.2v-8.35h22.25v-8.35h-22.85v8.35h-16.6v8.35ZM447.9,645.6l11.2,8.95,4.7-5.85-11.2-8.95-4.7,5.85ZM464.2,449.95h22.85v-8.35h-22.85v8.35ZM490.5,377.1h6.7v-11.5h-6.7v11.5ZM507.55,239.25h14.45v-7.5h-14.45v7.5h0ZM512.3,571.6h17.2v-8.35h-17.2v8.35ZM516.6,540.75h22.85v-11.75h-22.85v11.75ZM516.6,476.1h22.85v-11.75h-22.85v11.75ZM525.15,349.1h23.85v-12.15h-23.85v12.15ZM525.2,673.25h23.7v-11.75h-23.7v11.75ZM528.5,796.8h7.75v11.5h8.95v-20.7h-16.7v9.2h0ZM594.8,465.7h17.85l.4-15.7h-18.45l.2,15.7ZM617.15,190.55h5.75v-11.6h-5.75v11.6ZM619.9,283.05h17.2v-9.15h-17.2v9.15ZM620.05,447.25h17.2v-8.75h-17.2v8.75ZM644.25,479.55h8.7v-12.4h-8.7v12.4ZM643.9,467.95h16.85v-8.35h-16.85v8.35ZM674.2,465.35h15.2v-15.45h-15.2v15.45ZM679.9,273.25h14.25v-8.2h-14.25v8.2ZM694.15,273.25h8.2v-19.45h-8.2v19.45ZM716.25,820.9h8.6v-7.6h-8.6v7.6ZM724.85,820.9h7.95v-19.1h-7.9l-.05,19.1h0Z"/>
  <path class="st4" d="M8.9,659.2l3.05,2.4,3.05-3.9-3.05-2.4-3.05,3.9ZM12.25,666h5.5v-3.9h-5.5v3.9ZM18.55,608.35h3.3v-2.45h1.05v2.9h3.3v-2.9h13.75v-4.9h-19.45v3.45h-1.95v3.9h0ZM26.1,622l1.6,8,3.25-.65-1.6-8-3.25.65ZM27.3,610.75h3.3v-3.9h-3.3v3.9ZM34.6,472.15h3.8v-7.35h-3.8v7.35ZM36.25,505.5h27.35v-4.9h-1.55v-2.9h-10.6v2.9h-15.2v4.9ZM39.95,543.9h27.35v-4.9h-24v-4.05h-3.35v8.95h0ZM39.95,473.7h3.35v-4.05h24v-4.9h-2.15v-4.85h-6.25v4.85h-.65v-4.85h-6.25v4.85h-12.05s0,8.95,0,8.95ZM40.9,509.3h10.55v-2.95h-10.55v2.95ZM45.75,617.3l.9,4.65,3.25-.65-.9-4.65-3.25.65ZM46.2,615.4l3.25.65.9-4.65-3.25-.65-.9,4.65ZM51.45,583.5l3.25.65.65-3.3-3.25-.65-.65,3.3h0ZM52.05,579.25h3.3v-3.9h-3.3v3.9ZM60.5,417.4h3.1v-17.6h-3.1v17.6ZM73,396.6h17.8v-3.75h-17.8v3.75h0ZM73.75,595.5c0,1.7,1.4,3.1,3.1,3.1h0c1.7,0,3.1-1.4,3.1-3.1h0c0-1.7-1.4-3.1-3.1-3.1s-3.1,1.4-3.1,3.1h0ZM75.3,408.9h26.1v-2.9h-26.1v2.9ZM78.15,423.7h10.25v-3.75h-10.25v3.75ZM87.55,652.7h8.15v-3.7h-8.15v3.7ZM90.4,595.5c0,1.7,1.4,3.1,3.1,3.1h0c1.7,0,3.1-1.4,3.1-3.1h0c0-1.7-1.4-3.1-3.1-3.1s-3.1,1.35-3.1,3.1h0ZM92.95,671.05h5.45v-4.95h-5.45v4.95ZM95.6,429.1h28.6v-2.75h-28.6v2.75ZM98.3,395.85h10.25v-3.75h-10.25v3.75ZM101.45,423.3h10.25v-3.75h-10.25v3.75ZM107.95,555.75h27.35v-4.9h-27.35v4.9h0ZM108.55,458.2h26.15v-5.55h-26.15v5.55h0ZM113.45,638.45h3.65v-4.95h-3.65v4.95ZM113.45,631.05h3.65v-4.95h-3.65v4.95ZM114.85,520.55h8.95v-3.35h-8.95v3.35ZM115.05,491.6h5.35v24h3.6v-27.3h-8.95v3.3h0ZM133.75,520.55h9.25v-3.35h-4.35v-24.35h-4.9v27.7ZM134.15,491.95h5.2v23.95h4.1v-28h-9.3v4.05h0ZM135.3,795.4c0,1.4.75,2.8,2.2,3.5h15.8c2.9-1.4,2.9-5.55,0-6.95h-15.8c-1.45.7-2.2,2.1-2.2,3.45h0ZM136.4,734.2c0,1.4.75,2.8,2.2,3.5h15.8c2.9-1.4,2.9-5.55,0-6.95h-15.8c-1.45.7-2.2,2.1-2.2,3.45h0ZM137.25,746c0,1.4.75,2.8,2.2,3.5h15.75c2.9-1.4,2.9-5.55,0-6.95h-15.75c-1.5.7-2.2,2.05-2.2,3.45h0ZM137.5,722.1c0,1.3.6,2.6,1.9,3.4l15.75,1.35c3-1.15,3.4-5.3.6-6.95l-15.75-1.35c-1.6.6-2.45,2.05-2.5,3.55h0ZM138.95,646.35h7.55v-3.75h-7.55v3.75ZM139.45,840.7c0,1.4.75,2.8,2.2,3.5h15.8c2.9-1.4,2.9-5.55,0-6.95h-15.8c-1.5.7-2.2,2.05-2.2,3.45h0ZM144.25,517.95h3.5v-27.3h-3.5v27.3ZM145.8,650.25l3.5,1.2,2.4-7-3.5-1.2-2.4,7h0ZM148.35,324.5h4.95v-2.8h-4.95v2.8ZM148.35,316.5h4.95v-2.8h-4.95v2.8ZM148.35,308.45h4.95v-2.8h-4.95v2.8ZM148.3,515.25h3.4v-9.5h3.6v-4.8h-7v14.3h0ZM148.4,500.4h6.9v-5.1h-6.9v5.1ZM151.25,369.45h3.35v-8.8h-3.35v8.8ZM152.9,512.7h2.85v-4.8h-2.85v4.8ZM160.15,369.45h3.7v-8.8h-3.7v8.8ZM166.25,666.9h5.55v-4.95h-5.55v4.95ZM168.2,304.25h4.45v-.3h4.45v.6h5.55v-3.05h-10v.3h-4.45v2.45ZM168.4,346.35h7v-3.45h-7v3.45ZM168.4,332.95h7v-3.45h-7v3.45ZM182.05,346.35h7v-3.45h-7v3.45ZM182.05,332.95h7v-3.45h-7v3.45ZM184,757.8c0,1.55.8,3.1,2.45,3.85h17.55c3.25-1.55,3.25-6.15,0-7.75h-17.55c-1.6.8-2.45,2.35-2.45,3.9h0ZM185.1,769.35c0,1.4.75,2.8,2.2,3.5h15.8c2.9-1.4,2.9-5.55,0-6.95h-15.8c-1.45.65-2.2,2.05-2.2,3.45ZM186.55,803.3c1.4,2.9,5.55,2.9,7,0v-15.75c-1.4-2.9-5.55-2.9-7,0v15.75ZM186.55,675.65c1.4,2.9,5.55,2.9,7,0v-15.75c-1.4-2.9-5.55-2.9-7,0v15.75ZM189.05,369.5h3.7v-8.8h-3.7v8.8ZM193.55,877.75l2.5,3.2,4.15-3.2-2.5-3.2-4.15,3.2ZM196.35,943.7c0,1.65,1,3.3,2.85,3.8l15.5-2.9c2.6-1.95,1.85-6-1.3-6.85l-15.5,2.9c-1.05.75-1.55,1.9-1.55,3.05h0ZM197.65,906.95c.35,3.2,4.25,4.6,6.55,2.35l5.35-14.85c-.35-3.2-4.25-4.6-6.55-2.35l-5.35,14.85h0ZM197.85,800.85c1.4,2.9,5.55,2.9,7,0v-15.75c-1.4-2.9-5.55-2.9-7,0v15.75ZM197.85,671.55c1.4,2.9,5.55,2.9,7,0v-15.75c-1.4-2.9-5.55-2.9-7,0v15.75ZM198.95,727.05c1.4,2.9,5.55,2.9,7,0v-15.75c-1.4-2.9-5.55-2.9-7,0v15.75ZM198.95,369.5h3.7v-8.8h-3.7v8.8ZM203.7,304.6h4.35v-3.1h-4.35v3.1ZM206.8,369.5h3.7v-8.8h-3.7v8.8ZM208.05,346.4h2.25v-5.1h-2.25v5.1ZM208.05,333.8h2.25v-5.1h-2.25v5.1ZM210.45,867.5l5.8,14.65c2.4,2.2,6.25.65,6.5-2.55l-5.8-14.65c-2.4-2.2-6.25-.7-6.5,2.55h0ZM216.05,369.5h3.7v-8.8h-3.7v8.8ZM216.75,346.4h2.25v-5.1h-2.25v5.1ZM216.75,333.8h2.25v-5.1h-2.25v5.1ZM223.6,924.55c.35,3.2,4.25,4.6,6.55,2.35l5.35-14.85c-.35-3.2-4.25-4.6-6.55-2.35l-5.35,14.85h0ZM223.8,657.3h7.8v-3.3h-7.8v3.3ZM224.15,369.5h3.7v-8.8h-3.7v8.8ZM226.4,779.35c0,1.4.75,2.8,2.2,3.5h15.8c2.9-1.4,2.9-5.55,0-6.95h-15.8c-1.45.7-2.2,2.05-2.2,3.45h0ZM227.15,747.45c-.05,1.2.55,2.45,1.75,3.15l14.55,1.35c2.8-1.05,3.15-4.9.6-6.45l-14.55-1.35c-1.5.55-2.3,1.9-2.35,3.3h0ZM227.25,730.55c1.4,2.9,5.55,2.9,7,0v-15.75c-1.4-2.9-5.55-2.9-7,0v15.75ZM227.25,666.7h4.4v-7.65h-4.4v7.65ZM229.4,818.15c0,2.6,2.35,4.85,5.2,4.4l14.85-10.5c1.8-3.25-.95-7.15-4.65-6.55l-14.85,10.5c-.4.65-.55,1.4-.55,2.15h0ZM229.7,758.2c0,1.4.75,2.8,2.2,3.5h15.8c2.9-1.4,2.9-5.55,0-6.95h-15.8c-1.45.7-2.2,2.1-2.2,3.45ZM230.35,685.95c-.05,1.1.35,2.25,1.25,3.15l17.05,6.4c3.7-.35,5.4-4.85,2.8-7.55l-17.05-6.4c-2.45.3-4,2.3-4.05,4.4h0ZM232.25,369.5h3.7v-8.8h-3.7v8.8ZM232.45,337.95h7v-3.45h-7v3.45ZM232.45,324.55h7v-3.45h-7v3.45ZM240.45,359.4h1.9v-6.1h-1.9v6.1ZM240.45,346.9h1.9v-6.1h-1.9v6.1ZM240.45,331.8h1.9v-6.1h-1.9v6.1ZM250.5,841.95h5.9v-4.7h-5.9v4.7ZM250.5,836.15h4.4v-6.1h-4.4v6.1ZM256.4,834.25h3.15v-6.95h-3.15v6.95ZM257.5,838.45h7v-3.5h-7v3.5ZM271.15,745.5c0,1.6.85,3.2,2.5,4h18.05c3.35-1.6,3.35-6.35,0-8h-18.05c-1.65.85-2.5,2.45-2.5,4ZM274.8,795.45c0,1.4.75,2.8,2.2,3.5h15.8c2.9-1.4,2.9-5.55,0-6.95h-15.8c-1.5.65-2.2,2.05-2.2,3.45h0ZM274.8,771c0,1.4.75,2.8,2.2,3.5h15.8c2.9-1.4,2.9-5.55,0-6.95h-15.8c-1.5.7-2.2,2.05-2.2,3.45h0ZM275.65,829.55h4.1v-5.05h-4.1v5.05ZM276.7,838.45c0,1.4.75,2.8,2.2,3.5h15.8c2.9-1.4,2.9-5.55,0-6.95h-15.8c-1.45.65-2.2,2.05-2.2,3.45h0ZM313.55,284.75h6.35v-4h-6.35v4ZM313.55,252.4l3.85,4,3.05-2.95-3.85-4-3.05,2.95h0ZM317.55,298.3h6.35v-4h-6.35v4ZM325.1,296.95l4.15.65.45-2.9-4.15-.65-.45,2.9h0ZM331.6,250.55h5.6v-4.25h-5.6v4.25ZM332.5,298.3h6.35v-4.8h-6.35v4.8ZM343.5,296.3h6.35v-4h-6.35v4ZM343.5,276.5l4.65,1.35,1.7-5.9-4.65-1.35-1.7,5.9ZM343.5,136.45h5.55v-5.65h-5.55v5.65ZM343.75,120.4l.9,5.45,5-.85-.9-5.45-5,.85ZM344.3,251.15h4.85v-6.1h-4.85v6.1ZM349.1,267.65l.8,2.95,3.85-1-.8-2.95-3.85,1ZM357.45,228.35h38.3v-7.3h-38.3v7.3ZM357.45,203.4h59.05v-7.3h-59.05v7.3h0ZM357.45,145.45h59.05v-7.3h-59.05v7.3h0ZM357.45,118.35h59.05v-7.35h-59.05v7.35h0ZM359.95,182.9l8.8,1.4,4.1-25.75-8.8-1.4-4.1,25.75h0ZM361.4,232.9l3.05.85,1-3.65-3.05-.85-1,3.65ZM369.75,584.6h9.05v-18.35h-9.05v18.35ZM371.1,180.75l3.55,1.5,1.75-4.2-3.5-1.45-1.8,4.15h0ZM371.5,220l3.7,1,1.2-4.4-3.7-1-1.2,4.4ZM372,170.5l.1,4.55,3.8-.1-.1-4.55-3.8.1h0ZM378.8,630.15h10.55v-7.9h-10.55v7.9ZM386.25,184.4h8.95v-26.05h-8.95v26.05ZM395.15,609.6h5.8v-4.85h-5.8v4.85ZM396.4,642.85h3.85v4.25h7.7v-4.25h6.05v-1.05h0v-3.9h-9.9v1.5h-3.5v-7.4h-4.2v10.85h0ZM399.65,445.7h2.25v-10.85h-2.25v10.85ZM402.8,545.55h5.1v-3.55h-5.1v3.55ZM403.7,606.2c0,2.5,2,4.5,4.5,4.5s4.5-2.05,4.5-4.5-2-4.5-4.5-4.5-4.5,2-4.5,4.5h0ZM404.05,598.45h3.85v-2.6h-3.85v2.6ZM404.55,452.5h15.65v-4.25h-15.65v4.25ZM404.55,430.35h5.85v1.25h8.5v-3.4h-14.35v2.15h0ZM404.95,211.15l13.3,7.15,2.35-4.35-13.3-7.15-2.35,4.35ZM405.75,390.25h2.6v-6.25h-2.6v6.25ZM408.8,396.95l2.55,1.75,3.95-5.75-2.55-1.75-3.95,5.75h0ZM409,598.45h8.45v-1.85h-8.45v1.85ZM410.4,586.95h23.75v-9.05h-23.75v9.05ZM414,560.5h14.65v-4.4h-14.65v4.4ZM416.5,204.6l9.55,5.15,4.1-7.55-9.55-5.15-4.1,7.55h0ZM418.95,432.5h8.5v-3.4h-8.5v3.4ZM422.25,642.85h7.7v-4.95h-7.7v4.95ZM424.05,391.25h5.35v-2.55h-5.35v2.55ZM427.45,398.1h1.9v-4.85h-1.9v4.85ZM427.45,383.65h2.65v-2.55h-2.65v2.55ZM429.25,603.7h4.9v-2.85h-4.9v2.85ZM431.1,112.8l1.35,5.5,5.25-1.3-1.35-5.5-5.25,1.3h0ZM432.45,145.45l3.2,6.65,7.35-3.55-3.2-6.65-7.35,3.55ZM433.45,600.25l3.4,1.55,2-4.45-3.4-1.55-2,4.45h0ZM434.4,161.85l6.75,8.6,19.9-15.6-6.75-8.6-19.9,15.6ZM434.9,202l10.9.6,1.65-29.65-10.9-.6-1.65,29.65h0ZM438.1,115.45c0,2.3,1.85,4.15,4.15,4.15s4.15-1.85,4.15-4.15-1.85-4.15-4.15-4.15-4.15,1.85-4.15,4.15h0ZM439.2,210.3l4.3,10.35,7.25-3-4.3-10.35-7.25,3ZM440.9,400.05h7.85v-13.5h-7.85v13.5ZM444.1,348.15l5.2,3.6,2.7-3.9-5.2-3.6-2.7,3.9ZM444.35,562.7h2.3v-15.75h-2.3v15.75ZM444.35,618.25l3.3,4.5,10.9-7.95-3.25-4.5-10.95,7.95h0ZM445.5,49.95l.9,5.45,5-.85-.9-5.45-5,.85h0ZM446.4,33.95h13.1v-8.6h-13.05v8.6h-.05ZM449.65,464.15l3.95,5.45,7-5.1-3.95-5.45-7,5.1ZM451.95,414.1l2.7,3.95,2.55-1.75-2.7-3.95-2.55,1.75ZM451.95,311.65h10.2v-6.3h-10.2v6.3ZM454.75,242.4l1.2,10.75,8.6-.95-1.2-10.75-8.6.95ZM455.05,393.25h10.75v-4h-10.75v4ZM456.8,410.75h10.75v-4h-10.75v4ZM457.2,81.4h9.45l.45,1.15,3.1-1.15h9.9v-2.8h-6.6l-6.2-16.55-6.9,2.6,5.25,13.95h-8.4v2.8h-.05ZM457.85,562.7h4.8v-3.05h-4.8v3.05ZM458.55,558l2.75,1.6,2.05-3.55-2.75-1.6-2.05,3.55ZM459.5,382.4h10.75v-4h-10.75v4ZM462.9,266.1l11.35,2.75,3.25-13.35-11.35-2.75-3.25,13.35ZM466.45,527.9h28.35v-4.95h-28.35v4.95ZM466.45,483.8h24.35v6.9l-.85.25,3.95,13.45-3.95,13.45.85.25v4h10v-4.7h-4.9l3.75-12.7-1.1-.3,1.1-.3-4.35-14.7-.5.15v-5.7h0v-4.95h-28.35v4.9h0ZM467.55,358.35l8.85,6.05,2.25-3.3-8.85-6.05-2.25,3.3ZM467.55,250.2l13.2,5.9-1.1.05.25,5.4,4.7-.25-.25-5.4-3.3.15,5-11.2-13.45-6-5.05,11.35h0ZM467.75,643.3l3.5.2.25-3.9-3.5-.2-.25,3.9ZM468.3,441.4h12.35v-4.95h-12.35v4.95ZM468.3,463.45l2.6,4.6,9.75-5.5-2.6-4.6-9.75,5.5ZM470.95,638.3l1.55,3.15,3.6-1.8-1.55-3.15-3.6,1.8ZM472.25,642.85l.75,3.85,3.45-.7-.75-3.85-3.45.7ZM473,125.8l6.25,4.7,2.8-3.7-6.25-4.7-2.8,3.7ZM475.95,47.7l2.4,20.1,9.85-1.2-2.4-20.1-9.85,1.2ZM476.25,271.2l4.6,1.1,1.3-5.25-4.6-1.1-1.3,5.25ZM477.1,396.05h2.7v-4.25h-2.7v4.25ZM478.7,554.1h6.8v-5.8h-6.8v5.8ZM478.9,24.5h5.05v5.15h7.75v-8.75h-7.75v-1.95h-5.05v5.55h0ZM480.65,639.55l9.45,3.25,1.55-4.45-9.45-3.25-1.55,4.45ZM480.65,632l1.55,3.15,3.6-1.8-1.55-3.15-3.6,1.8ZM481.8,615.45l1.85,3.95,4-1.85-1.85-3.95-4,1.85ZM483.2,119.75l7,25.4,10-2.75-7-25.4-10,2.75h0ZM483.7,71.85l.9,5.45,5-.85-.9-5.45-5,.85h0ZM484.8,624.9l2.35,2.6,4.8-4.35-2.35-2.6-4.8,4.35ZM486.65,214.35h9.75v-24.45h-9.75v24.45ZM487.8,633.8l3.8,1.3,1.15-3.3-3.8-1.3-1.15,3.3ZM488.2,396.15l.35,4.75,7.55-.6.7,9,4.15-.3-1-12.9-.65.05-.05-.8-11.05.8h0ZM488.35,618.7h4.4v-4.4h-4.4v4.4ZM490.65,244.7l5.75,5.6,10-10.3-5.75-5.6-10,10.3ZM491.7,188.95h4.7v-.7h.7v36.35h9.65v-50.95h-10.35v9.85h-4.7v5.45h0ZM492.35,182.55h3.3v-5.3h-3.3v5.3ZM494.8,422.65h3.6v-6.8h-3.6v6.8ZM496.6,461.1l11.4,1.5,1.05-7.8-2.25-.3,1.4-5.25-3.8-1-1.45,5.4,2.55.7-7.85-1.05-1.05,7.8h0ZM496.65,638.8l21.5.9.35-7.9-21.5-.9-.35,7.9h0ZM498.5,585.15l4.9,5.5,4.2-3.75-4.9-5.5-4.2,3.75ZM507.15,429.7h2.55v-16.15h-2.55v16.15ZM507.45,179.85l10.65,2.4,5.45-24-10.65-2.4-5.45,24h0ZM509.05,453.3h4.7v-5.7h-4.7v5.7ZM510.5,229.2l11.75.65.8-14.85-11.75-.65-.8,14.85ZM512.45,644.4h19.45v-2.9h-19.45v2.9ZM513.45,259.45h14.35v-12.3h-14.35v12.3h0ZM516.1,423.95h6.6v-4.15h-6.6v4.15ZM516.1,397.35h6.6v-4.15h-6.6v4.15ZM516.1,370.8h6.6v-4.15h-6.6v4.15ZM520.05,203.7h58.3v-7.95h-58.3v7.95ZM520.05,145.2h58.3v-7.95h-28.35l2.25-4.65-13.4-6.5-2.25,4.7,13.4,6.5h-29.95v7.9h0ZM520.05,117h58.3v-6.3h-58.3v6.3ZM520.6,440.35h11.7v-7.8h-11.7v7.8ZM520.95,758h16.1v-7.7h-16.1v7.7ZM524.45,562.65h5.95v-5.45h-5.95v5.45ZM524.45,556.05h3.85v-3.95h-3.85v3.95ZM524.7,547.4l1.85,3.35,6.35-3.45-1.85-3.35-6.35,3.45ZM526.6,588.8l7.1,7.95,5-4.45-7.1-7.95-5,4.45ZM528.95,255.5l4.05.35.85-9.15-4.05-.35-.85,9.15h0ZM533.85,249.05l.85,4.85,4.5-.8-.85-4.85-4.5.8ZM539.85,178.15l9.35,2.5,2.2-8.4-9.35-2.5-2.2,8.4h0ZM540.4,228.55h37.95v-7.95h-37.95v7.95ZM542.1,159.4l2.25,8.4,9.35-2.5-2.2-8.4-9.4,2.5ZM547.55,565.35h3.1v-2.7h-3.1v2.7ZM551.25,395.25h8.1v-12.95h-5.75v9.5h-2.35v3.45h0ZM553.65,180.65h23.35v-22.65h-23.35v22.65ZM555.05,614.9h4.5v-4.65h-4.5v4.65ZM571.15,815.15h3.85v-4.1h-3.85v4.1ZM576.6,814.25h3.85v-1.8h5.65v-4.2h-5.65v.4h-3.85v5.6h0ZM577.65,790.3h15.25v-2.15h-15.25v2.15ZM582,296.25h10.6v-23.15h-10.6v23.15ZM585.2,124.65h7.4v-13.95h-7.4v13.95ZM595.25,747.5h9.55v-3.5h-9.55v3.5ZM595.25,702.9h3.3v-8.6h-3.3v8.6ZM595.4,332.6h5.1v-16.6h-5.1v16.6ZM595.4,310.2h5.1v-16.6h-5.1v16.6ZM595.85,284.5l2,4.25,6-2.8-2-4.25-6,2.8ZM596.1,189.15l2.55.4.7-4.35-2.55-.4-.7,4.35ZM596.8,158.5h7.45v-3.1h-7.45v3.1ZM596.9,576.3h3.5v-8.4h-3.5v8.4ZM596.9,563.75h3.5v-8.4h-3.5v8.4ZM596.9,552.65h3.5v-8.4h-3.5v8.4ZM596.9,528.65h2.55v-5.9h-2.55v5.9ZM596.9,721.65h7.9v-3.55h-7.9v3.55ZM597.65,795.05h3.75v-4.05h-3.75v4.05ZM597.9,763.1l3.45.45,1.3-9.45-3.45-.45-1.3,9.45ZM598.5,588.8h16.45v-4.8h-16.45v4.8ZM598.7,278.9h5.1v-3.9h-5.1v3.9ZM604.8,714.5h8.55v-2.8h-8.55v2.8ZM604.8,694.3h8.55v-3.8h-8.55v3.8ZM605.5,158.5h3.55v-3.1h-3.55v3.1ZM608.55,488.05h4.75v-5.2h-4.75v5.2ZM613.3,722.7h7.9v-3.55h-7.9v3.55ZM616.7,657.4h5.45v-3.95h-5.45v3.95ZM618.55,738.5h2.65v-7.85h-2.65v7.85ZM618.55,712.6h2.65v-9.7h-2.65v9.7ZM618.7,540.95l.8,3.25,7.45-1.8-.8-3.25-7.45,1.8ZM619.6,801.3h5.9v-4.75h-5.9v4.75ZM621.15,421.4h16.25v-4.75h-16.25v4.75ZM621.15,407.9h16.25v-4.75h-16.25v4.75ZM621.15,394.45h16.25v-4.75h-16.25v4.75ZM621.15,380.95h16.25v-4.75h-16.25v4.75ZM621.15,346.1h16.25v-4.75h-16.25v4.75ZM621.15,332.6h16.25v-4.75h-16.25v4.75ZM621.15,319.15h16.25v-4.75h-16.25v4.75ZM621.15,305.65h16.25v-4.75h-16.25v4.75ZM623.1,739.65h2.65v-7.85h-2.65v7.85ZM623.1,728.8h2.65v-7.85h-2.65v7.85ZM623.35,695.45h2.1v-8.35h-2.1v8.35ZM624.95,719.15h10.5v-2.65h-10.5v2.65ZM626.35,678.4h4.55v-2.75h-4.55v2.75ZM626.45,800.95l4.1,2.4,2.4-4.1v1.7h9.95v-4.75h-9.95v3.05l-4.1-2.4-2.4,4.1h0ZM627.55,473.75l1.65,3.2,5.25-2.75-1.65-3.2-5.25,2.75ZM628.15,569.7l3.3.6,1.35-7.55-3.3-.6-1.35,7.55ZM628.3,657.8l1.85,5.15,4.5-1.6-1.85-5.15-4.5,1.6ZM628.7,765.3h16v-3.85h-16v3.85ZM628.8,488.05h5.95v-3.6h-5.95v3.6ZM632.2,674.25l.85,4.7,3.2-.55-.85-4.7-3.2.55ZM632.8,497.15h12.35v-3.65h-12.35v3.65ZM636.7,661.3h5.7v-5.45h-5.7v5.45ZM636.8,719.15h9.15v-2.65h-9.15v2.65ZM639.55,714.2h2.1v-8.35h-2.1v8.35ZM640.5,516.4h3.95v-3.65h-3.95v3.65ZM641.65,686.15h8.55v-3.8h-8.55v3.8ZM642.85,678.4h5.7v-5.45h-5.7v5.45ZM643.8,819.55h9.5v-4.35h-9.5v4.35ZM643.8,714.2h2.1v-8.35h-2.1v8.35ZM646.75,722.35h4.3v-4.55h-4.3v4.55ZM649.1,588.5h7.65v-4.15h-7.65v4.15ZM650.2,756.65h4.25v-3.85h-4.25v3.85ZM650.2,657.95h9.35v1.6h5.7v-5.45h-5.7v1.3h-9.35v2.55ZM650.6,495.35h12.35v-1.85h-12.35v1.85ZM653,449.4h16.25v-3.95h-16.25v3.95ZM654.45,819.5h5.9v-2.15h-5.9v2.15ZM655.9,765.3h2.5v-12.5h-2.5v12.5ZM655.9,744h16.4v-2.95h-16.4v2.95ZM655.9,797.15l.3,4.15,4.15-.3-.3-4.15-4.15.3ZM659.55,725h9.15v-2.65h-9.15v2.65ZM660.95,549.8h11v-4.8h-11v4.8ZM665.3,421.4h16.25v-4.75h-16.25v4.75ZM665.3,407.9h16.25v-4.75h-16.25v4.75ZM665.3,394.45h16.25v-4.75h-16.25v4.75ZM665.3,380.95h16.25v-4.75h-16.25v4.75ZM665.3,346.1h16.25v-4.75h-16.25v4.75ZM665.3,332.6h16.25v-4.75h-16.25v4.75ZM665.3,319.15h16.25v-4.75h-16.25v4.75ZM665.3,305.65h16.25v-4.75h-16.25v4.75ZM668.35,587.35h3.6v-17.85h-3.6v17.85ZM669.3,566.7h2.65v-9.05h-2.65v9.05ZM669.3,536.05h2.65v-5.9h-2.65v5.9ZM669.3,528.7h2.65v-5.9h-2.65v5.9ZM670.7,204.35h9.9v-6.55h-9.9v6.55ZM672.45,278.65h16.25v-3.95h-16.25v3.95ZM672.8,150.05l2.8,14,4-.8-2.8-14-4,.8ZM675.2,528.7h6.25v-4.45h-6.25v4.45ZM675.5,802.1h4.55v-4.35h-4.55v4.35ZM675.95,546.25l2,.3,1.8-12.45-2-.3-1.8,12.45h0ZM676.7,758.1h2.05v-12.5h-2.05v12.5ZM677.75,632.25h2.65v-4.45h-2.65v4.45ZM682.15,264.05h11.45v-3.95h-5.4v-4.75h-2.65v4.75h-3.4v3.95h0ZM689.35,253.75l1.05,4.6,2.6-.6-1.05-4.6-2.6.6ZM692.8,710.5l7.95,5.65,1.2-1.65-7.95-5.65-1.2,1.65h0ZM695.9,459.25h7.5v-7h-7.5v7ZM696.65,128.25h4.8v-8.25h-4.8v8.25ZM697.3,129.7l1.1,4.8,3.55-.8-1.1-4.8-3.55.8ZM697.8,185.2h4.05v-7.2h-4.05v7.2ZM699.05,222.1h2.3v-6h-2.3v6ZM699.45,588.8l3.5,9.1,1.9-.75-3.5-9.1-1.9.75ZM699.45,573.9l1.9.8,3.7-9.05-1.9-.75-3.7,9h0ZM699.65,464.15h3.75v-3.35h-3.75v3.35ZM699.8,170.45h2.05v-7.25h-2.05v7.25ZM701.95,737.05h2.05v-9.75h-2.05v9.75Z"/>
  <path class="st2" d="M439.9,620.5c0,11.3,9.15,20.4,20.45,20.4h0c11.3,0,20.45-9.15,20.45-20.4s-9.15-20.4-20.45-20.4-20.45,9.15-20.45,20.4Z"/>
  <path class="st1" d="M131.95,617.45v5.55h-18.9v25.35H32.7v-25.55h23.6v-58.95h3.45v53.6h72.2ZM141.7,623v-56.25h-6v-1.75h-4.1v5.95h7.2v52.05h2.9ZM401.25,767.25v-2.45M401.25,778.35v4.2h25.05M395.8,788.6v-10.25h5.45v-6.85M426.3,771.5v17.1h-33.7M401.25,808.9v-11.45h6.45M622.2,652.6v7.75M536.55,808.55v-11.7h-8.3M673.7,780.6l.45,14.3h8.55v10.5M682.65,820.9v-9.7M703.85,805.4v-13.1M703.85,821.35v-10.15M622.15,697.45v-21.95M646.15,733.2v-17.35M654.8,744.5h-8.65v-6.45M673.7,715.85h-79.6M622.2,740.3v-38.35M622.2,765.75v-17.7M654.8,750.6v15.15M673.7,740.3h-18.9v6.1M594.1,706.75h-9.35M512.25,717.4v-10.65h64.1M537.95,787.35v-1.95M512.25,785.4v1.95h33.2M537.95,773.45v6.5M542.65,764.45v8.95h-4.7v-5.1h-25.7M546,752.55v11.9M512.25,744.5h33.75v3.55M512.25,779.95v-48.05M594.1,764.45h-81.85M662.2,765.75h-68.1M673.7,765.75h-7M545.45,824.1v-1.65M545.45,807.8v4.6M573.65,807.8v-20.45M594.1,804.55v3.25h-48.65v-20.45h48.65M673.7,693.55v-11.95h-79.6v116.85M673.7,770.25v-65.1M523.5,673.6h25.75v-11.75h-25.75M534.7,620.35v24.15h-56.75v-8.35M481.05,620.35h46.8M481.95,613.25l6.2-4.65,7.45-.9,3.1-9.3h16.1M514.85,590h-16.1v-15.5l-9.3-3.1M489.4,571.4h-42.5M489.4,571.4h44.05M533.45,563.05h-9.95M446.95,563.05h17.05M464,563.05v-8.05h24.2M464,563.05h59.5M508.35,557.8l5.6-2.8h9.6M523.5,555v8.05M523.5,555v-7.45l7.45-4.05h9M514.85,540.75h25.1v-11.75h-25.1M471.45,521.9h19.55M490.95,512.9v-20.75M490.95,484.75h-19.55M454.7,484.75h-18.6M436.1,521.9h18.6M369.4,590v-28.5M426.15,540.8h-25.75v-11.8h25.75M426.15,476.35h-25.75v-12.1h25.75M369.4,456.85v-29.4M398.55,445.4l4.65,8.05h23.9l7-6.95M428,427.45h-22.65M405.4,416.6v-8.65M405.4,402.35v-2.45M430.5,363.05v-4.35h-25.1v41.2M430.5,369.55v30.35h-9.3M415.3,399.9h-9.9M471.45,411.65h-16.75l-5.6-5.6v-16.1l5.6-5.55h15.5l5.6,5.55v13.65M454.7,445.4l-.75-8.9-5.4-4.9M488.15,441.45h-24.15v8.45h24.2M514.85,476.35h25.1v-12.1h-25.1M530.95,424.35v7.25h-20.9v-19.95c6.95-.25,20.9-.55,20.9,0v8.05M530.95,397.9v8.2h-20.9v-11.5M510.1,384.4h20.9v8.4M510.1,384.4v10.15M510.1,384.4v-5.2M530.95,371.4v7.8h-20.9M510.1,379.2v-19.8M530.95,366.3v-7.6h-20.9v.7M490.95,377.45v-18h19.1M497.4,365.4v29.15h12.7M523.45,349.4h25.4v-12.45h-25.4M481.15,368.55v-8l-14.05-8.65h-15.6M417.2,348.95h-25.6v-11.8h25.6M594.65,650.9h-32.85c-1.2,0-2.15-.95-2.15-2.15v-70.1l-8.35-10.85v-33.85l12.25-12.2h30.9M594.45,486.5h-30.9l-12.25-12.2v-34.15l8.35-10.15v-70.25c0-1.2.95-2.15,2.15-2.15h32.85M594.65,357.55v-173.6M594.65,357.55v92.35M599.25,489.35h-4.6v-39.4M630.2,538h-5.15M625.05,538h-30.55v-17.55h8.2M625.05,538v-5.75M625.05,525.95v-5.5M625.05,520.45h-11.2M625.05,520.45h18.45M655,520.45h-11.5M643.5,525.95v-5.5M643.5,532.25v5.75M643.5,538h30.85M643.5,538h-4.55M674.35,538v52M674.35,538v-17.55h-7.85M461.7,656.35c-3.95-2.9-7.9-5.8-11.9-8.65-4.35-3.15-15.3-9.8-17.35-21.1-2.1-11.3,2.1-17.35,5.65-24.9,2.85-6.05,6.25-12.45,7.55-14.9M452.45,590.55c-2.2,4.3-9.55,19.3-11.2,22.6M466.6,650.3l-15.5-11.5M346.2,529v5.4M346.2,569.55v-35.15M328.15,534.45h18.05M328.15,475.7h18.05M346.2,475.7v5.35M346.2,475.7v-35.35M305.45,444.8v-33.8M305.45,491.95v27.15M305.45,564.25v34.05M272.7,611.85h26.05v-8.45h-26.05M270.9,615.6h8.7M294.3,615.6h8.9M301.1,641.45h19.65M291.4,641.45h-32.35v1.5M259.05,648.4v-5.45M259.05,661.65v6.95h26.3M299.9,657.15h12.4v-6.95M259.05,642.95h-85.55M173.5,642.95v5.45M173.5,642.95v-1.5h-10.3M173.5,662.05v6.95h-26.3M147.2,641.45h-13.9M113,641.45h6.95M189.8,615.75h-17.8v-27.2M172,557.5v-35.65M172,483.8v-35M172,419.2v-27.8h17.85M207.05,391.4h8.75M270.9,391.4h8.7M294.3,391.4h8.9M272.7,396.25h26.05v7.85h-26.05M272.7,491.95h13.3v25.35h-13.25M73.1,565.2h-13.35M56.3,565.2h-3.9M43.5,565.2h-4.55M81.6,565.2h50.05M104.25,556.15h31.15v8.85M104.25,517.5h13v-25.05h-13M104.25,452.25h31.15v-7.85h-55.35M71.5,444.4h-12M59.5,424.45h8.5M74,424.45h44.45v-24.1M118.45,393.35v-1.95M118.45,391.4h2.4M118.45,391.4h-16.3M106.95,375.25h-4.85M117.85,375.25h2.85M123.6,375.25h-2.9M130.85,375.25h12.4M172,375.25h-28.75M182.55,375.25h64.1M129.65,365.3v-12.7h5.75M120.75,375.25v-31.7M120.75,322.7v20.85M120.75,343.55h22.55M143.25,343.55v31.7M143.25,343.55v-20.85M187.7,300.65h-44.45v22.05M198.9,300.65h44.15M143.25,322.7h-12.4v12.7h4.55M91.85,706.2v3.6M91.85,697.15v-11.65M110.9,665.15v-16.75M120,641.45v15.55h13.3v-15.55M120,641.45h13.3M128.75,617.4v-38.9h-19.65v16.9M99.4,595.4v-16.9h-32.05v16.9M275.35,375.25h-16.35v-53.1h17.95M282.9,322.15h62.35M345.2,375.25h-62.3M285.4,280.35h15.4M313.1,299.2v-18.85h-12.25M313.1,299.2h-12.25v-18.85M313.1,299.2h29.6v-8.8M342.7,278.45v-16.35M342.7,250.2v-36.8M319.1,268.35h-19.4M285.4,233.5v4.4M285.4,228.2v-3.75M259.65,235.5v2.4M259.65,230.45v-9.95M197.05,261.2h11.6M214.65,261.2h12.75v-40.75h-12.75M208.65,220.45h-11.6M177.35,220.45h12.5M177.35,261.2h12.5M171.55,261.2h-12.5v-40.75h12.5M125.85,241.35v-4.4M125.85,243.6v13.4M100.15,245.7v3.95M100.15,240.15v-3.7M377,245.6h53.5v-6.4M430.5,110.75v120.8M415.3,239.2h15.2M430.5,239.2v-7.7M415.3,231.55h15.2M507.75,110.75v120.8M559.65,245.6h-51.9v-6.4M523.45,239.2h-15.7M507.75,239.2v-7.7M523.45,231.55h-15.7M594.65,161.1v-5.55M616.75,155.55v23.5h7.7M668.5,245.6h11.95v19.2h14.1v-11.1M688.1,311.75v-16.2h-30.75v59.35h7.25M670.6,354.85h17.5v-38M643.65,311.75v-16.2h-30.75v59.35h7.25M626.15,354.9h17.5v-38M688.1,386.45v-16.2h-30.75v59.35h7.25M670.6,429.55h17.5v-38M643.65,386.45v-16.2h-30.75v59.35h7.25M626.15,429.6h17.5v-38M620.15,273.2v10h17.95M638.1,447.05h-17.95v-8.55h17.95M677.85,449.95h-3.45v19.3M674.4,476.4v12.95h-61.5M609.9,489.35h3M612.9,489.35v-6M612.9,477.4v-27.4h-3M599.3,449.95h-4.6M653.05,479.95v-11.95h8.1M703.85,482.05v2.55M729.7,479.95v4.7M729.7,475.25v-4.75M703.85,477.4v-13.15M689.65,465.8v-15.85M687.2,449.95h15.15M703.7,522.45v-2M703.7,528.1v3.4M703.7,545v-13.5M703.7,550v1.6M729.75,547.75v3.85M729.75,543v-4.95M716.35,531.45h-12.65M206.7,615.8h9.65M211.1,611.85h-25.45v-8.45h25.45M211.1,404.1h-25.45v-7.85h25.45M76.75,693.6v8.3h-7.85v-8.3h7.85ZM594.1,787.4h79.75"/>
  <path d="M246.75,296.55h-3.75v78.8h3.75v-78.8ZM446.15,110.1h-8.2v-4.9h8.2v4.9ZM500.9,110.1h-8.55v-4.9h8.55v4.9Z"/>
  <path class="st0" d="M687.85,841.35c.1-.25.1-.5.1-.8,0-1.6-.05-3.2-.15-4.85"/>
  <path class="st0" d="M680.55,902.45c.05-.55.05-1.1.1-1.7,0-.4.05-.85-.15-1.2s-.6-.65-.95-.55c-.15-.1-.1-.4.05-.5s.35-.15.55-.2c.4-.1.75-.5.65-.9-.05-.15-.15-.3-.25-.4-.8-1-1.3-2.2-1.55-3.45-.05-.2-.05-.45.1-.6.05-.05.15-.1.25-.1.65-.15,1.35,0,2-.1.85-.15,1.6-.65,2.4-.75.45-.05.95.05,1.4.05s.95-.1,1.25-.5c.35-.45.3-1.05.25-1.65-.05-.4-.1-.8-.15-1.2"/>
  <line class="st0" x1="714.85" y1="876.45" x2="720" y2="876.45"/>
  <line class="st0" x1="725.5" y1="876.45" x2="731.55" y2="876.45"/>
  <line class="st0" x1="731.45" y1="846.45" x2="731.55" y2="882.6"/>
  <line class="st0" x1="731.5" y1="887.95" x2="731.55" y2="905.65"/>
  <line class="st0" x1="731.5" y1="911.15" x2="731.5" y2="922.95"/>
  <line class="st0" x1="715" y1="893.7" x2="731.15" y2="893.65"/>
  <path class="st0" d="M747.2,922.7c-1.4-1.55-2.75-3.1-4.15-4.65.05-8,.05-15.95.1-23.95,1.3-1.25,2.6-2.5,3.85-3.8,13.45,0,26.9.05,40.4.05,1.35,1.3,2.7,2.65,4.05,3.95,0,8,0,16.05.05,24.05l-4.1,4.1"/>
  <path class="st0" d="M747.55,846.25c-1.45,1.5-2.9,3-4.35,4.5l-.2,24.2,4,4c2.85-.05,5.75-.1,8.6-.15"/>
  <path class="st0" d="M762.6,878.9h25.2c1.3-1.3,2.6-2.55,3.85-3.85,0-8.05,0-16.1-.05-24.1l-4.6-4.65"/>
  <path class="st0" d="M809,922.35c-1.35-1.35-2.75-2.7-4.1-4.05v-8.8"/>
  <path class="st0" d="M804.9,902.65c0-11.1.05-22.25.05-33.35"/>
  <path class="st0" d="M805.05,862.35l-.05-11.2c1.45-1.5,2.95-3.05,4.4-4.55"/>
  <rect class="st4" x="710.25" y="877.55" width="3" height="14.85"/>
  <rect class="st4" x="678.1" y="924.85" width="7.35" height="3.6"/>
  <rect class="st4" x="673.35" y="919.6" width="4.1" height="8.65"/>
  <rect class="st4" x="689" y="920" width="3.85" height="8.45"/>
  <rect class="st4" x="690.8" y="917.45" width="2.05" height="1.55"/>
  <rect class="st4" x="691.85" y="904.85" width="1.2" height="11.65"/>
  <rect class="st4" x="715.15" y="911.7" width="3.4" height="9.25"/>
  <rect class="st4" x="715.15" y="894.9" width="3.4" height="15.45"/>
  <rect class="st4" x="719.5" y="920" width="8.4" height="2.65"/>
  <rect class="st4" x="727.95" y="894.15" width="3.1" height="9.5"/>
  <rect class="st4" x="721.7" y="894.15" width="6.55" height="2.95"/>
  <rect class="st4" x="749.95" y="860.8" width="23.3" height="7.55"/>
  <rect class="st4" x="747.45" y="848" width="7.2" height="3.15"/>
  <rect class="st4" x="755.25" y="848" width="7.3" height="3.15"/>
  <rect class="st4" x="763.5" y="848" width="9.75" height="2.85"/>
  <rect class="st4" x="774.15" y="848" width="8.55" height="3.7"/>
  <rect class="st4" x="780.2" y="858.8" width="3.35" height="10"/>
  <rect class="st4" x="785.59" y="873.55" width="5.05" height="3.5" transform="translate(-388.1 813.65) rotate(-45)"/>
  <rect class="st4" x="786.28" y="847.8" width="3.35" height="5.55" transform="translate(-370.66 806.3) rotate(-45)"/>
  <rect class="st4" x="816.05" y="895.1" width="3.25" height="14.8"/>
  <rect class="st4" x="825.55" y="895.1" width="3.4" height="14.8"/>
  <rect class="st4" x="836.25" y="895.1" width="2.95" height="25.1"/>
  <rect class="st4" x="805.6" y="890.65" width="22.25" height="2.45"/>
  <rect class="st4" x="812" y="871.6" width="18.1" height="7.3"/>
  <rect class="st4" x="812" y="854.1" width="18.1" height="7.25"/>
  <rect class="st4" x="836.25" y="853.75" width="2.9" height="7.35"/>
  <rect class="st4" x="836.25" y="862.6" width="2.9" height="8.6"/>
  <rect class="st4" x="836.25" y="871.95" width="2.9" height="7.1"/>
  <rect class="st4" x="835.8" y="880.05" width="3.35" height="8.5"/>
  <path class="st0" d="M829.95,894.1c-8.2-.05-16.45-.05-24.65-.1"/>
  <rect class="st4" x="668.9" y="854.8" width="2.6" height="7.8"/>
  <rect class="st4" x="671.45" y="861.25" width="12.75" height="1.4"/>
  <rect class="st4" x="672.6" y="846.2" width="8.95" height="3.5"/>
  <rect class="st4" x="680.55" y="846.2" width="4.1" height="8.25"/>
</svg>