<?xml version="1.0" encoding="UTF-8"?>
<svg id="Discord.gg-_x40_marazm" xmlns="http://www.w3.org/2000/svg" version="1.1" viewBox="0 0 840.15 963.75">
  <!-- Generator: Adobe Illustrator 30.1.0, SVG Export Plug-In . SVG Version: 2.1.1 Build 136)  -->
  <defs>
    <style>
      .st0, .st1, .st2, .st3 {
        stroke: #000;
      }

      .st0, .st2 {
        fill: none;
      }

      .st4 {
        fill: #777;
      }

      .st1, .st2 {
        stroke-width: .5px;
      }

      .st5 {
        fill: #987f00;
      }

      .st3 {
        fill: #363636;
      }
    </style>
  </defs>
  <path class="st3" d="M1.1,472.8h10v26.85h18.7v4.05H11.1v61.7h10.6v50.45h36.45v6.55h15.9v62.3h-24.6v25.25h41.45v-65.45h50.2v184.15h33.5v-38.25h43.2v-36.55h36.15v-19.2h34.3v-123.2h38.05v19.95h15.6v-20.6h67.95v20.6h15.3v-20.5h83.6v-38.75h67.25v133.1h-7.55v40.5h7.55v72.9h127.4v3l29.4-.05v-29.35l-29.4.05v-261.9h12.45v-10.6h-12.45v-170.35h-46.45v46.75h18.1v15.6h-53.55v-8.8h-16v8.75h-52.05v-8.75h-16.2v8.75h-54.25v-116.85h-1.55v-2.5h4.35v-5.6h82.8c18.85.05,73.35.2,73.35-65.1v-30.2h26.8v-42.75h9.3v-13.85h-82.7v11.85h5.95v9.2h-5.95v13.05h5.95v8.9h-5.95v13.6h26.1v22.8c0,1,.05,2.15.1,3.45.55,15.25,1.7,49-54.35,49H142.8v-85.9h18.2v-20.35h-57.05v20.35h18.4v112.9h-16.9v96.2h35.65v54.2H11.1v18.05H1.1v10.6h0ZM103.25,536.45v-64h38.3v64h-3.7v-7.2h-30.35v7.2h-4.25ZM120.4,365v-21.9h34.7v21.9h-34.7ZM142,293.1v-6.65h184.4v68.9h-29.45v-4.9h-3.15v-27.95h3.15v-22h-81.5v5.95h-5.25v-13.3l-68.2-.05h0ZM174.55,711.55v-41.25h79.25v23.35h-27.75v17.9h-51.5ZM174.95,655v-124.25h151.45v62.85h-56.6v17.8h1.8v43.65l-96.65-.05h0ZM174.05,474.55v-152.05h36.1v-7h3.85v7h1.4v27.95h-1.4v22.4h82.9v-1.4h29.45v103.15l-152.3-.05h0ZM341.5,594.75v-64.9h68.15v64.9h-68.15ZM341.75,474.55v-33.35h52.85v-66.6h25.55v-24.1h41.85v-6.65h6.3v67.85h-21.7v62.95h-104.85v-.1ZM341.75,374.15v-87.7h123.05v5.6h5.6v2.8h-2.1v33.9h-7v-1.75h-54.05v23.4h-24.9v23.7h-40.6v.05ZM424.8,594.75v-64.9h39.4v34.35h26.4v30.5h-65.8v.05ZM463.95,441.85v-14.5h210.75v23.1h2.85v12.45h-3.7v-2.95h-29.95v27.55h29.95v1.8h3v52.15h-22.35v-21.65h-59.75v38.8-8.7h-69.2v-75.45h-35.85v-32.6h-25.75ZM594.8,791.8v-110.4h82v110.4h-82ZM594.8,654.7v-91.2,19l4.75,4.35-1.95,2.05,9.75,10.2,2-2,3.15,3.15h64.3v54.5l-82-.05h0ZM616.05,582.8v-11.3h19.45v11.3h-19.45Z"/>
  <path class="st4" d="M547.55,409.2c2.35,0,4.2,1.9,4.2,4.2s-1.9,4.25-4.2,4.2h0c-2.35,0-4.2-1.9-4.2-4.2h0c-.05-2.35,1.85-4.2,4.2-4.2ZM448.9,521.7c2.35,0,4.25,1.9,4.25,4.2h0c0,2.35-1.9,4.2-4.25,4.2s-4.25-1.9-4.25-4.2,1.9-4.2,4.25-4.2h0ZM419.9,606.65c2.35,0,4.25,1.9,4.25,4.2h0c0,2.35-1.9,4.2-4.25,4.2s-4.25-1.9-4.25-4.2,1.95-4.2,4.25-4.2h0ZM215.25,773.85c1.2,0,2.2,1,2.2,2.2s-1,2.2-2.2,2.2-2.2-1-2.2-2.2,1-2.2,2.2-2.2h0ZM178.65,781.5c1.2,0,2.2,1,2.2,2.2s-1,2.2-2.2,2.2-2.2-1-2.2-2.2.95-2.2,2.2-2.2h0ZM211.45,789.1v-6.05h3.2v6.05h-3.2ZM205.2,789.1v-6.05h3.2v6.05h-3.2ZM198.95,789.1v-6.05h3.2v6.05h-3.2ZM179.9,720.75l.2-3.7,9.05.5-.2,3.7-9.05-.5ZM180.35,728.75l-.25-3.7,9.05-.6.25,3.7-9.05.6ZM208.4,715.8v-3.5h12.7v3.5h-12.7ZM230.45,698.2v-4.05h20.25v4.05h-20.25ZM237.3,719.1v-10.65h6.2v10.65h-6.2ZM277.9,726.3l-.7-3.25,6.25-1.35.7,3.25-6.25,1.35ZM406.35,484.45l-.2-2.1,11.05-1.15.2,2.1-11.05,1.15ZM404.2,481.35l-.05-2.1,14.45-.25.05,2.1-14.45.25ZM405.95,480.2l.1-2.1,14.45.55-.1,2.1-14.45-.55ZM422.85,478.7l1.55-2.25,6.45,4.5-1.55,2.25-6.45-4.5ZM390.9,510.55l2.4-3.45,5.15,3.6-2.4,3.45-5.15-3.6h0ZM219.4,525.15v-1.45h8.3v1.45h-8.3ZM225.75,493.95l3.45-3.45,2,1.95-3.45,3.45-2-1.95h0ZM206,527.25l2.75-5.45,2.5,1.25-2.75,5.45-2.5-1.25ZM194.5,480.85l-.9-3.4,7.25-1.9.9,3.4-7.25,1.9ZM184,479.8l.5-3.5,7.4,1.05-.5,3.5-7.4-1.05h0ZM183.9,497.5v-3.5h3.65v3.5h-3.65ZM231.2,499.45v-5.45h3.65v5.45h-3.65ZM213.15,527.25v-4.2h5.3v4.2h-5.3ZM254.2,511.3v-4.2h5.3v4.2h-5.3ZM407.25,524.25v-4.2h5.3v4.2h-5.3ZM425.3,525.95v-5.9h3.65v5.9h-3.65ZM447.9,434.2l3.5.1-.1,4.75-3.5-.1.1-4.75ZM558.35,419.05l-.3-2.35,9.9-1.2.3,2.35-9.9,1.2ZM555.9,416.3v-2.9h15.4v2.9h-15.4ZM482.9,552.65l3.95-3.55,2.6,2.9-3.95,3.55-2.6-2.9ZM484,549.1v-4.05h6.05v4.05h-6.05ZM483.9,455.25v-5.75h5.05v5.7h-5.05v.05ZM457.75,454.25l3.5.1-.2,7.1-3.5-.1.2-7.1ZM457,487.15l3.5.1-.2,7.1-3.5-.1.2-7.1ZM451.4,497.8l.15-3.5,7.1.3-.15,3.5-7.1-.3ZM453.8,523.9l1-3.35,6.8,2.1-1,3.35-6.8-2.1ZM431.75,530.2v-5.9h3.65v5.9h-3.65ZM378.6,608.4l2.85-5.15,3.2,1.8-2.85,5.15-3.2-1.8ZM272,600.15v-3.8h3.7v3.8h-3.7ZM270.65,695.6v-6.95h12.75v6.95h-12.75ZM279.4,720.8v-6h5.75v6h-5.75ZM281,734.65v-7.8h4.15v7.8h-4.15ZM276.4,734.65v-6.45h4.15v6.45h-4.15ZM269.75,734.65v-5.25h4.85v5.25h-4.85ZM248.05,748.7v-5.2h3.4v5.25h-3.4v-.05ZM241.8,748.7v-5.2h3.4v5.25h-3.4v-.05ZM235.55,748.7v-5.2h3.4v5.25h-3.4v-.05ZM229.3,748.7v-5.2h3.4v5.25h-3.4v-.05ZM223.1,748.7v-5.2h3.4v5.25h-3.4v-.05ZM214,764.4v-5.25h3.4v5.25h-3.4ZM186.45,726.65v-12.55h2.95v12.55h-2.95ZM196.6,741.25l-.65-5.4,5.3-.65.65,5.4-5.3.65ZM180.8,737.05v-3.6h4.25v3.6h-4.25ZM103.1,613.95l3.15-3.1,2.6,2.6-3.15,3.1-2.6-2.6ZM110.05,613.45l-1.25-4.25,2.7-.8,1.25,4.25-2.7.8ZM37.35,533l-2.8-6.25,5.35-2.35,2.8,6.25-5.35,2.35ZM17.7,559.3l-2.8-6.25,5.35-2.35,2.8,6.25-5.35,2.35ZM48.55,469.45l1,3.5,7-2-1-3.5-7,2ZM26.2,498.2l1-3.5,7,2-1,3.5-7-2h0ZM49.95,466.55l.7-6.15,4.35.5-.7,6.15s-4.35-.5-4.35-.5ZM17.5,451.35v-6.45h6.15v6.45h-6.15ZM11.8,458v-13.1h6.15v13.1h-6.15ZM56.05,468.3v-4.6h6.6v4.6h-6.6ZM109.35,388.1l.6-3.4,6.1,1.05-.6,3.4-6.1-1.05ZM118.3,389.65v-5.8h4v5.8h-4ZM123.6,389.65v-3.9h2.45v3.9h-2.45ZM266.2,284.85l3.25-5.1,3.3,2.1-3.25,5.1-3.3-2.1ZM265.6,370.3l.1-5.15,4.9.1-.1,5.15-4.9-.1ZM273.65,369.7l3-5.55,4.35,2.35-3,5.55-4.35-2.35h0ZM327.7,352.4l.2-6.45,3.25.1-.2,6.45-3.25-.1ZM327.9,361.8l.25-7.5,1.5.05-.25,7.5-1.5-.05ZM342.75,379.75l2.6-4.15,4.2,2.6-2.6,4.15-4.2-2.6ZM322.85,361.65l.1-3.5,4.95.15-.1,3.5-4.95-.15ZM287.95,339.5l1.35-3.2,4.55,1.9-1.35,3.2-4.55-1.9ZM639.4,424.15l2.45-5.35,5.6,2.55-2.45,5.35-5.6-2.55ZM648.4,423.95l1.1-2.45,4.25,1.95-1.1,2.45-4.25-1.95ZM655.25,426.65l.35-5.1,2.85.2-.35,5.1-2.85-.2ZM676.15,438.65l2.1-6,2.7.95-2.1,6-2.7-.95ZM675.6,444.65v-3.75h3.8v3.75h-3.8ZM682.25,444v-3.75h5.15v3.75h-5.15ZM675.05,449.15v-3.75h11.45v3.75h-11.45ZM680,413.4v-11.6h6.5v11.6h-6.5ZM657.2,395.2v-4.85h11.35v4.85h-11.35ZM657.2,383.75v-7.45h2.6v7.45h-2.6ZM657.2,370.15v-7.45h2.6v7.45h-2.6ZM672.25,353.05v-2.7h14.25v2.7h-14.25ZM665,190.5v-7.2h3.7v7.2h-3.7ZM660.3,190.5v-6.35h3.7v6.35h-3.7ZM653.75,190.5v-3.2h5.5v3.2h-5.5ZM595.75,190.5v-6.35h3.6v6.35h-3.6ZM666.85,370.15v-4.95h12.6v4.95h-12.6ZM666.85,385v-4.95h12.6v4.95h-12.6ZM662.75,555.5l-6.3-6.3,2.75-2.75,6.3,6.3-2.75,2.75ZM662.75,563.8l-6.3-6.3,2.75-2.75,6.3,6.3-2.75,2.75ZM662.75,572.1l-6.3-6.3,2.75-2.75,6.3,6.3-2.75,2.75ZM615.25,550.05v-20.1h8.5v20.1h-8.5ZM662.45,679.95l.45-8.05,2.85.15-.45,8.05-2.85-.15ZM647.55,678.15l.9-7.35,10.5,1.25-.9,7.35-10.5-1.25ZM590.4,644.4v-6h3.3v6h-3.3ZM588.5,652.3v-5.2h5.2v5.2h-5.2ZM590.4,658.3v-6h3.3v6h-3.3ZM602.85,680.5v-4.85h7.65v4.85h-7.65ZM597.15,680.5v-9.7h5.7v9.7h-5.7ZM684.15,788.25v-14.25h1.4v14.25h-1.4ZM573.65,739.15l3.45-2.7,1.7,2.15-3.45,2.7-1.7-2.15ZM576.6,817.7v-12.4h6.8v12.4h-6.8ZM618.5,817.7v-6.6h16.55v6.6h-16.55ZM681.35,788.25v-14.25h1.4v14.25h-1.4ZM682.75,789.3v-14.3h1.4v14.25h-1.4v.05ZM680.3,789.3v-14.3h1.4v14.25h-1.4v.05ZM678.9,790.3v-14.25h1.4v14.25h-1.4ZM637.4,679.4v-9.7h5.7v9.7h-5.7ZM667.35,679.4v-4.3h5.7v4.3h-5.7ZM688.05,558.25v-7.3h3.45v7.3h-3.45ZM673.05,572.1v-16.45h3.7v16.45h-3.7ZM673.05,550.05v-7.2h3.7v7.2h-3.7ZM663.65,545.9v-3.6h3.7v3.6h-3.7ZM658.05,545.9v-3.6h3.7v3.6h-3.7ZM623.1,570.15l2.9-4.7,3.5,2.15-2.9,4.7-3.5-2.15ZM631,568.2l2.1-3.4,3.5,2.15-2.1,3.4-3.5-2.15ZM633.15,550.05v-20.1h8.5v20.1h-8.5ZM614.3,410.55v-4.95h6.3v4.95h-6.3ZM475.65,388.25v-4.95h6.3v4.95h-6.3ZM470.15,321.05v-3.6h3.35v3.6h-3.35ZM396.3,272.75v-3.1h3.15v3.1h-3.15ZM428.7,349.95v-4.55h5.7v4.55h-5.7ZM434.4,349.95v-3.6h26.3v3.6h-26.3ZM443.2,330v-2.1h16.95v2.1h-16.95ZM432.15,332.05v-4.2h11.05v4.2h-11.05ZM415.2,332.05v-4.2h11.05v4.2h-11.05ZM408.15,344.45v-11.6h3.8v11.6h-3.8ZM414.05,370.9v-9.1h4.95v9.1h-4.95ZM399.85,373.6v-4.2h19.15v4.2h-19.15ZM387.5,355.85v-4.2h14.75v4.2h-14.75ZM383.2,364.45v-12.75h4.95v12.75h-4.95ZM390.65,399.3v-16h3.6v16h-3.6ZM390.65,433.95v-32.55h3.6v32.55h-3.6ZM377.7,440.6v-3.05h12.2v3.05h-12.2ZM363.2,440.6v-4.6h11.4v4.55h-11.4v.05ZM345.2,440.6v-3.05h15.15v3.05h-15.15ZM362.55,427.65v-7.05h11.5v7.05h-11.5ZM362.55,411.45v-25.15h11.5v25.15h-11.5ZM342.75,415.75v-32.5h4.85v32.5h-4.85ZM292.55,319.8v-17.65h3.05v17.65h-3.05ZM266.25,351.1v-28.35h6.3v28.35h-6.3ZM237.65,351.1v-28.35h6.35v28.35h-6.35ZM214.25,367.75l.35-12.9,1.9.05-.35,12.9-1.9-.05ZM218.1,366.7l-.7-10.85,2.45-.15.7,10.85-2.45.15ZM215.95,369.1l-1-15.6,2.75-.2,1,15.6-2.75.2ZM216.15,350.35v-17.9h4.05v17.9h-4.05ZM230.05,306v-4.95h31.25v4.95h-31.25ZM193.3,308.6v-12.9h5.4v12.9h-5.4ZM179.2,308.6v-12.9h5.4v12.9h-5.4ZM165.65,303.45v-7.75h5.4v7.75h-5.4ZM181.05,321.55v-3.45h7.1v3.45h-7.1ZM167.35,321.55v-3.45h7.1v3.45h-7.1ZM152.75,320.4v-12.9h3.1v12.9h-3.1ZM144.9,315.85v-6.2h3.95v6.2h-3.95ZM144,321.15v-4.7h5.55v4.7h-5.55ZM136.5,319.8v-5.65h6.1v5.65h-6.1ZM142.6,368v-2.8h2.85v2.8h-2.85ZM145.75,368.85v-2.85h2.85v2.8h-2.85v.05ZM149.2,369.4v-2.8h2.85v2.8h-2.85ZM167.35,379.55v-5.2h3.7v5.2h-3.7ZM166.2,387.7v-5.2h3.7v5.2h-3.7ZM143.35,389.65v-2.75h3.2v2.75h-3.2ZM127.8,389.65v-3.9h13.7v3.9h-13.7ZM141.5,400.3v-3.65h5v3.65h-5ZM141.5,405.55v-3.65h5v3.65h-5ZM141.5,422.5v-5.7h3.6v5.7h-3.6ZM146.5,425v-6.55h4.1v6.55h-4.1ZM107.05,467.45v-6.55h4.1v6.55h-4.1ZM146,428.4l-.4-3.7,5.45-.55.4,3.7-5.45.55ZM104.95,471.85v-4.6h6.6v4.6h-6.6ZM57.85,472.95v-4.6h6.6v4.6h-6.6ZM56.05,478.55v-4.6h13.4v4.6h-13.4ZM86.7,535.25v-13.45h5.15v13.45h-5.15ZM85.85,541.4v-4.5h6.05v4.5h-6.05ZM84.15,545.25v-4.5h6.45v4.5h-6.45ZM78.65,545.25v-4.5h4.05v4.5h-4.05ZM62.75,535.25v-4.5h15.1v4.5h-15.1ZM64.9,518.3v-4.5h12.95v4.5h-12.95ZM64.9,490.9v-4.5h12.95v4.5h-12.95ZM53.75,512v-15.35h4.05v15.35h-4.05ZM39.95,498.9v-6.55h4.05v6.55h-4.05ZM34.55,498.25v-6.55h4.05v6.55h-4.05ZM31,506.15v-3.5h6.3v3.5h-6.3ZM27,508.75v-3.5h3.5v3.5h-3.5ZM31,511v-3.5h3.55v3.5h-3.55ZM47.15,521.3v-7.05h4.2v7.05h-4.2ZM42.65,521.8v-7.05h4.2v7.05h-4.2ZM24.05,569.9v-4.95h5.85v4.95h-5.85ZM43.45,557v-1.95h9.7v1.95h-9.7ZM42.65,555v-1.95h11.6v1.95h-11.6ZM41.95,553.05v-1.95h14.55v1.95h-14.55ZM41.5,558.05v-1.95h14.55v1.95h-14.55ZM48.8,602.9v-8.85h3.85v8.85h-3.85ZM73.75,684.95v-8.85h3.8v8.85h-3.8ZM94.7,643.9v-3.8h7.05v3.8h-7.05ZM165.35,595.25l1.35-16.65,3.4.3-1.35,16.65-3.4-.3ZM169.75,592.9v-11.15h2.2v11.15h-2.2ZM165.1,576.55v-4.05h5.65v4.05h-5.65ZM143.8,497.9l.6-3.55,6.9,1.2-.6,3.55-6.9-1.2ZM146.8,541.75v-6.65h4.65v6.65h-4.65ZM149.6,598.25v-7.35h5.65v7.35h-5.65ZM143.8,609.5v-21.3h7.65v21.3h-7.65ZM116.4,606.7v-3.8h8.85v3.8h-8.85ZM116.4,612.25v-3.8h8.85v3.8h-8.85ZM119.85,643.9v-3.8h5.45v3.8h-5.45ZM126.7,643.9v-3.8h5.45v3.8h-5.45ZM141.75,755.75v-7.25h3.4v7.25h-3.4ZM141.75,762.8v-6.25h4v6.25h-4ZM150.35,749.3l-1.2-4.3,3.9-1.1,1.2,4.3-3.9,1.1h0ZM149.4,787.35v-8.45h4v8.45h-4ZM141.75,828.15v-47.45h6.85v47.45h-6.85ZM154.85,825.7l6.5-2.75,1.35,3.15-6.5,2.75-1.35-3.15ZM150,827.55v-7.05h3.4v7.05h-3.4ZM168.75,822.95v-7.05h3.4v7.05h-3.4ZM174.55,761.4v-15.3h3.4v15.3h-3.4ZM192.3,765.6v-5.6h10.45v5.65h-10.45v-.05Z"/>
  <path class="st1" d="M74.05,624.55h67.6v-62.4H52.7v41.15h-11.85v3.05h17.45v-41.25h80.55v56.8h-64.8v2.65h0Z"/>
  <path class="st5" d="M656.2,589.8v-8.3l5.9-7-4.4-4.4-8.35,7.9v11.8h6.85ZM99.5,587v8.6h9.6v-8.6h-9.6ZM58.6,587v8.6h9.25v-8.6h-9.25ZM63.2,692.7h11.35v-7.55h-11.35s0,7.55,0,7.55ZM174.55,496.7h5.75v-17.45h-5.75v17.45ZM174.55,525.95h5.75v-18.25h-5.75v18.25h0ZM128.7,335.25v-12.3h-8.45v12.3h8.45ZM478.2,283.75v-5.75h-5.6v5.75h5.6ZM336.75,283.9v-5.75h-5.65v5.75h5.65ZM203.65,281.15h5.75v-7.5h-5.75v7.5ZM605.85,144.9v5.75h5.5v-5.75h-5.5ZM644.35,460.45v19.3h8.35v-19.3h-8.35ZM732.3,821.15v-21.3h-8.2v21.3h8.2ZM710.15,821.15h14.45v-7.6h-14.45v7.6ZM620.05,589.6h14.6v-6.85h-14.6v6.85ZM459.65,481.9v-5.75h-9.5v5.75h9.5ZM471.5,457.55v-5.75h-7.6v5.75h7.6ZM471,551.75v-5.75h-6v5.75h6ZM323.7,494.75h6.65v-8.9h-6.65v8.9ZM323.45,519.45h6.5v-8.9h-6.5v8.9ZM406.75,519.35h6.65v-8.8h-6.65v8.8ZM338.7,494.75h6.6v-8.9h-6.6v8.9ZM338.4,519.45h6.65v-8.9h-6.65v8.9ZM421.7,519.35h6.65v-8.8h-6.65v8.8ZM456,520.2h8.6v-9.1h-8.6v9.1ZM604,565.5h5.85v-9.1h-5.85v9.1ZM603.65,525.95h5.65v-6.1h-5.65v6.1ZM652.75,467.25h13.95v-6.85h-13.95v6.85ZM120.25,342.55h19.9v-7.25h-19.9v7.25h0ZM40.6,615.35l18.05-.05v-8.7l-18.05.05v8.7Z"/>
  <path class="st0" d="M463.65,501.65h-81.35v11.15-21.95M161.4,501.7h74.7l.05,11.45v-22.3M252.2,490.75v22.35-11.45h113.85l-.05,11.45v-22.35"/>
  <path class="st2" d="M128.7,322.95v12.3h11.5M341.75,372.5h-5.65M331.6,372.5h-5.2M345.3,494.75h-21.6M338.65,474.55v11.3h6.65M330.35,474.55v11.3h-6.65M341.75,474.55h-15.1M463.65,511.05h-7.65M463.65,520.2l-7.65.05M345.1,510.55h-21.6M338.4,530.7v-11.3h6.65M330.15,530.7v-11.3h-6.65M341.5,530.7h-15.1M428.4,510.55h-21.6M421.7,530.65v-11.3h6.65M413.45,530.65v-11.3h-6.65M424.8,530.65h-15.1M675,396.15h12.4v-30.9M687.45,360.2v-10.8M122.3,277.75h73v-4.15h15.75M203.7,286.45v-5.3h7.4M464.8,286.45h7.7v-8.5M485.8,286.8h-7.6v-8.8M462,343.8v-2.95M462,331.65v-2.9M341.75,293.75h-5.9M331.85,293.75h-5.45M326.4,286.45h4.7v-9.1M341.75,286.45h-5v-9.1M394.85,286.45v-6.35M394.85,273v-6.25M611.35,134.9v15.75h-5.5v-15.75M658.4,134.9v33.45h-40.95v-33.45M341.75,441.2v-7.4M341.75,424.55v-50.4M296.95,371.45v-4.1M296.95,358.7v-3.35M152,322.85v-17.85M152,300.1v-6.95M155.1,322.85h-34.85l.15,20.25M174.1,362.05h-6.9M161.7,362.05h-6.6M29.8,501.7h9.95M53.35,504.4h-13.6v-4.85h13.6M53.35,527.7v8.1l39.15-.1v-62.4h-39.15v11.35M53.35,489.75v33M260.65,699.35h-6.75M288.2,699.35h-23.05M253.9,723.3v-29.5M253.9,734.65v-6.8M82.15,684.75h-8.95M90.9,684.75h-4.05M174.55,770.25v20.65M174.55,711.6v52.4M152.1,691.35h-11.05M174.55,691.35h-14.7M516.9,483.2h-45.5v38.4h45.6l-.1-38.4h0ZM463.65,520.2v9.65M463.65,474.45v36.6M489.75,448.5h-18.65v10.25M479.85,474.45h-16.2v-32.35M489.75,474.45h-5.4M490.75,555.25h-19.5v-10.05M479.75,529.75h-15.75M490.75,530.7v-.95h-6.3M512.8,548.7h-22.05M525.6,530.7h-34.9v33.4M525.6,548.7h-8.6M608.25,582.55h7.85M676.85,574.45h-5.25M676.8,541.4v45.3M654.55,541.4v25.5l7.55,7.55h4.25M611.15,525.8h-8.55v30.45h8.55M657.6,589.8h-43.35l-6.05-7.25v-17.05h-5.4,8.3M155.1,343.05v-5.2M155.1,328.25v-5.45h19M174.45,474.45v4.75h6.9M181.35,507.65h-6.65v-11h6.8M174.95,530.7v-4.8h6.55M77.3,692.7h-14.1v10M175,670.35v-5.65M175,660.2v-5.2M288.2,654.45h-4.35M279.05,654.45h-7.45M288.2,611.45h-7.85M275.95,611.45h-4.4M674.7,427.35v-3.25M674.7,415.25v-3.55M677.5,450.45h11.15M697.45,450.45h5.95M652.75,479.7v-12.45h13.95M673.8,487.5v-11.55M673.8,470.45v-7.55M710.15,813.55h13.95v-13.7M703.4,818.65v-8.8M703.4,803.1v-11.2M703.4,791.85h-6.05M688.05,791.85h-11.45M594.8,791.8h-5.3M585,791.8h-9M594.8,746.5h-7.3M582.9,746.5h-6.9M594.8,704.35h-6.7M583.05,704.35h-7.05M595.05,611.6h-5.15M581.25,611.6h-5.25M594.8,681.4v-10.55M594.8,662.3v-7.6M676.8,681.4h11.45M697.45,681.4h5.95M676.8,654.7h11.35M697.45,654.7h5.95M141.15,502h10.95"/>
</svg>